<?xml version="1.0" encoding="UTF-8"?>
<svg width="1200pt" height="1200pt" version="1.1" viewBox="0 0 1200 1200" xmlns="http://www.w3.org/2000/svg">
 <path d="m363.05 418.45h97.125c5.5781 0 10.641 2.2969 14.344 6 3.7031 3.6562 6 8.7656 6 14.344v77.016c0 5.625-2.2969 10.688-5.9531 14.391l-1.125 0.98438c-3.5625 3.0938-8.25 4.9688-13.266 4.9688h-97.125c-5.625 0-10.688-2.2969-14.391-5.9531-3.7031-3.7031-5.9531-8.7656-5.9531-14.391v-77.016c0-5.625 2.2969-10.688 5.9531-14.391 3.7031-3.7031 8.7656-5.9531 14.391-5.9531zm93.469 24h-89.812v69.703h89.812zm95.672 485.29h97.125c5.5781 0 10.688 2.2969 14.391 5.9531 3.7031 3.7031 5.9531 8.8125 5.9531 14.391v77.016c0 5.625-2.2969 10.688-6.5156 14.859-4.0781 3.6094-8.7656 5.4844-13.828 5.4844h-97.125c-5.625 0-10.688-2.2969-14.391-5.9531-3.7031-3.7031-5.9531-8.7656-5.9531-14.391v-77.016c0-5.5781 2.2969-10.734 5.9531-14.391 3.7031-3.7031 8.7656-5.9531 14.391-5.9531zm93.469 24h-89.812v69.703h89.812zm-282.61-24h97.125c5.5781 0 10.641 2.2969 14.344 6 3.7031 3.6562 6 8.7656 6 14.391v77.016c0 5.625-2.2969 10.688-5.9531 14.391l-1.125 0.98438c-3.5625 3.0938-8.25 4.9688-13.266 4.9688h-97.125c-5.5781 0-10.734-2.2969-14.391-5.9531-3.7031-3.7031-5.9531-8.7656-5.9531-14.391v-77.016c0-5.625 2.2969-10.688 5.9531-14.391 3.6562-3.6562 8.7656-6 14.391-6zm93.469 24h-89.812v69.703h89.812zm-282.56-24h97.125c5.5781 0 10.641 2.2969 14.344 6 3.7031 3.6562 6 8.7656 6 14.391v77.016c0 5.625-2.2969 10.688-5.9531 14.391l-1.125 0.98438c-3.5625 3.0938-8.25 4.9688-13.266 4.9688h-97.125c-5.5781 0-10.734-2.2969-14.391-5.9531-3.7031-3.7031-5.9531-8.7656-5.9531-14.391v-77.016c0-5.625 2.2969-10.688 5.9531-14.391 3.6562-3.6562 8.7656-6 14.391-6zm93.469 24h-89.812v69.703h89.812zm663-193.78h97.125c5.5781 0 10.688 2.2969 14.344 6 3.7031 3.6562 6 8.7656 6 14.344v77.016c0 5.625-2.2969 10.688-6.5156 14.859-4.0781 3.6094-8.7656 5.4844-13.828 5.4844h-97.125c-5.5781 0-10.734-2.2969-14.391-5.9531-3.7031-3.7031-5.9531-8.7656-5.9531-14.391v-77.016c0-5.625 2.3438-10.734 6-14.391 3.7031-3.7031 8.7656-5.9531 14.391-5.9531zm93.469 24h-89.812v69.703h89.812zm-282.56-24h97.125c5.5781 0 10.688 2.2969 14.344 6 3.7031 3.6562 6 8.7656 6 14.344v77.016c0 5.625-2.2969 10.688-6.5156 14.859-4.0781 3.6094-8.7656 5.4844-13.828 5.4844h-97.125c-5.5781 0-10.734-2.2969-14.391-5.9531-3.7031-3.7031-5.9531-8.7656-5.9531-14.391v-77.016c0-5.625 2.3438-10.734 6-14.391 3.7031-3.7031 8.7656-5.9531 14.391-5.9531zm93.469 24h-89.812v69.703h89.812zm-282.61-24h97.125c5.5781 0 10.688 2.2969 14.391 5.9531 3.7031 3.7031 5.9531 8.7656 5.9531 14.391v77.016c0 5.625-2.2969 10.688-6.5156 14.859-4.0781 3.6094-8.7656 5.4844-13.828 5.4844h-97.125c-5.625 0-10.688-2.2969-14.391-5.9531-3.7031-3.7031-5.9531-8.7656-5.9531-14.391v-77.016c0-5.625 2.2969-10.688 5.9531-14.391 3.7031-3.7031 8.7656-5.9531 14.391-5.9531zm93.469 24h-89.812v69.703h89.812zm-282.61-24h97.125c5.5781 0 10.641 2.2969 14.344 6 3.7031 3.6562 6 8.7656 6 14.344v77.016c0 5.625-2.2969 10.688-5.9531 14.391l-1.125 0.98438c-3.5625 3.0938-8.25 4.9688-13.266 4.9688h-97.125c-5.5781 0-10.734-2.2969-14.391-5.9531-3.7031-3.7031-5.9531-8.7656-5.9531-14.391v-77.016c0-5.625 2.3438-10.734 6-14.391 3.7031-3.7031 8.7656-5.9531 14.391-5.9531zm93.469 24h-89.812v69.703h89.812zm-282.56-24h97.125c5.5781 0 10.641 2.2969 14.344 6 3.7031 3.6562 6 8.7656 6 14.344v77.016c0 5.625-2.2969 10.688-5.9531 14.391l-1.125 0.98438c-3.5625 3.0938-8.25 4.9688-13.266 4.9688h-97.125c-5.5781 0-10.734-2.2969-14.391-5.9531-3.7031-3.7031-5.9531-8.7656-5.9531-14.391v-77.016c0-5.625 2.3438-10.734 6-14.391 3.7031-3.7031 8.7656-5.9531 14.391-5.9531zm93.469 24h-89.812v69.703h89.812zm663-193.78h97.125c5.5781 0 10.688 2.2969 14.344 6 3.7031 3.6562 6 8.7656 6 14.344v77.016c0 5.625-2.2969 10.688-6.5156 14.859-4.0781 3.6094-8.7656 5.4844-13.828 5.4844h-97.125c-5.5781 0-10.734-2.2969-14.391-5.9531-3.7031-3.7031-5.9531-8.7656-5.9531-14.391v-77.016c0-5.625 2.2969-10.688 5.9531-14.391 3.7031-3.7031 8.8125-5.9531 14.391-5.9531zm93.469 24h-89.812v69.703h89.812zm-282.56-24h97.125c5.5781 0 10.688 2.2969 14.344 6 3.7031 3.6562 6 8.7656 6 14.344v77.016c0 5.625-2.2969 10.688-6.5156 14.859-4.0781 3.6094-8.7656 5.4844-13.828 5.4844h-97.125c-5.5781 0-10.734-2.2969-14.391-5.9531-3.7031-3.7031-5.9531-8.7656-5.9531-14.391v-77.016c0-5.625 2.2969-10.688 5.9531-14.391 3.7031-3.7031 8.8125-5.9531 14.391-5.9531zm93.469 24h-89.812v69.703h89.812zm-282.61-24h97.125c5.5781 0 10.688 2.2969 14.344 6 3.7031 3.6562 6 8.7656 6 14.344v77.016c0 5.625-2.2969 10.688-6.5156 14.859-4.0781 3.6094-8.7656 5.4844-13.828 5.4844h-97.125c-5.625 0-10.688-2.2969-14.391-5.9531-3.7031-3.7031-5.9531-8.7656-5.9531-14.391v-77.016c0-5.625 2.2969-10.688 5.9531-14.391 3.7031-3.7031 8.7656-5.9531 14.391-5.9531zm93.469 24h-89.812v69.703h89.812zm-282.61-24h97.125c5.5781 0 10.641 2.2969 14.344 6 3.7031 3.6562 6 8.7656 6 14.344v77.016c0 5.625-2.2969 10.688-5.9531 14.391l-1.125 0.98438c-3.5625 3.0938-8.25 4.9688-13.266 4.9688h-97.125c-5.5781 0-10.734-2.2969-14.391-5.9531-3.7031-3.7031-5.9531-8.7656-5.9531-14.391v-77.016c0-5.625 2.2969-10.688 5.9531-14.391 3.7031-3.7031 8.8125-5.9531 14.391-5.9531zm93.469 24h-89.812v69.703h89.812zm-282.56-24h97.125c5.5781 0 10.641 2.2969 14.344 6 3.7031 3.6562 6 8.7656 6 14.344v77.016c0 5.625-2.2969 10.688-5.9531 14.391l-1.125 0.98438c-3.5625 3.0938-8.25 4.9688-13.266 4.9688h-97.125c-5.5781 0-10.734-2.2969-14.391-5.9531-3.7031-3.7031-5.9531-8.7656-5.9531-14.391v-77.016c0-5.625 2.2969-10.688 5.9531-14.391 3.7031-3.7031 8.8125-5.9531 14.391-5.9531zm93.469 24h-89.812v69.703h89.812zm663-193.78h97.125c5.5781 0 10.688 2.2969 14.344 6 3.7031 3.6562 6 8.7656 6 14.344v77.016c0 5.625-2.2969 10.688-6.5156 14.859-4.0781 3.6094-8.7656 5.4844-13.828 5.4844h-97.125c-5.625 0-10.688-2.2969-14.391-5.9531-3.6562-3.6562-6-8.7656-6-14.391v-77.016c0-5.625 2.2969-10.688 5.9531-14.391 3.7031-3.7031 8.8125-5.9531 14.391-5.9531zm93.469 24h-89.812v69.703h89.812zm-282.56-24h97.125c5.5781 0 10.688 2.2969 14.344 6 3.7031 3.6562 6 8.7656 6 14.344v77.016c0 5.625-2.2969 10.688-6.5156 14.859-4.0781 3.6094-8.7656 5.4844-13.828 5.4844h-97.125c-5.625 0-10.688-2.2969-14.391-5.9531-3.6562-3.6562-6-8.7656-6-14.391v-77.016c0-5.625 2.2969-10.688 5.9531-14.391 3.7031-3.7031 8.8125-5.9531 14.391-5.9531zm93.469 24h-89.812v69.703h89.812zm-282.61-24h97.125c5.5781 0 10.688 2.2969 14.344 6 3.7031 3.6562 6 8.7656 6 14.344v77.016c0 5.625-2.2969 10.688-5.9531 14.391-3.7031 3.7031-8.7656 5.9531-14.391 5.9531h-97.125c-5.625 0-10.688-2.2969-14.391-5.9531-3.7031-3.7031-5.9531-8.7656-5.9531-14.391v-77.016c0-5.625 2.2969-10.688 5.9531-14.391 3.7031-3.7031 8.7656-5.9531 14.391-5.9531zm93.469 24h-89.812v69.703h89.812zm157.36-284.29h-406.13v39.609c0 14.625-6 27.938-15.656 37.594-9.6562 9.7031-22.969 15.703-37.688 15.703-14.625 0-27.938-6-37.594-15.656-9.7031-9.7031-15.703-23.062-15.703-37.688v-39.609h-126.74c-33.141 0-63.281 13.406-85.5 35.391-22.359 22.359-36.047 52.781-36.047 86.156v724.18c0 33.094 13.406 63.234 35.391 85.547 22.359 22.359 52.734 36.047 86.156 36.047h872.9c33.422 0 63.797-13.688 85.828-35.719 22.031-21.984 35.719-52.406 35.719-85.828v-724.18c0-33.422-13.688-63.797-35.719-85.828s-52.406-35.719-85.828-35.719h-126.74v39.609c0 14.625-6 27.938-15.656 37.594-9.6562 9.7031-23.016 15.703-37.641 15.703-14.672 0-28.031-6-37.688-15.656s-15.656-23.016-15.656-37.688v-39.609zm-480.14-75c-5.2969 5.2969-8.625 12.656-8.625 20.672v93.938c0 8.0625 3.2812 15.422 8.5781 20.719s12.656 8.5781 20.719 8.5781 15.375-3.3281 20.672-8.625 8.625-12.609 8.625-20.672v-93.938c0-8.0156-3.3281-15.375-8.625-20.672s-12.656-8.625-20.672-8.625-15.375 3.3281-20.672 8.625zm554.16 135.32c5.2969-5.2969 8.625-12.656 8.625-20.719v-93.938c0-8.0156-3.3281-15.375-8.625-20.672-5.2969-5.2969-12.656-8.625-20.672-8.625-8.0625 0-15.375 3.3281-20.672 8.625-5.2969 5.2969-8.625 12.656-8.625 20.672v93.938c0 8.0156 3.3281 15.375 8.625 20.672 5.2969 5.2969 12.656 8.625 20.672 8.625s15.375-3.3281 20.672-8.625zm-744 116.25c-6.6094 0-12-5.3906-12-12 0-6.6094 5.3906-12 12-12h933.84c6.6094 0 12 5.3906 12 12 0 6.6094-5.3906 12-12 12z"/>
</svg>
