<?xml version="1.0" encoding="UTF-8"?>
<svg width="1200pt" height="1200pt" version="1.1" viewBox="0 0 1200 1200" xmlns="http://www.w3.org/2000/svg">
 <path d="m211.08 393.47c-9 19.312-10.547 36.609-4.7812 53.062 10.781 30.469 46.453 55.922 89.062 78.844 42.234-61.219 34.547-131.76-23.297-215.06z"/>
 <path d="m935.76 721.08c-90.844 22.312-182.53 47.859-215.76 153.61 80.062 39.141 171.14 67.312 278.39 85.547 24.938 4.2188 48.938-2.0625 65.859-17.297 10.453-9.4688 15.609-19.547 15.703-31.078 0.375-21.844-16.453-49.547-50.156-82.688-36.094-35.109-67.5-71.484-94.031-108.09z"/>
 <path d="m920.16 698.86c-0.46875-0.60938-0.84375-1.2188-1.3125-1.9219-14.062-21.234-27.703-42.609-40.547-63.469-9.4688-15.375-19.219-31.781-29.062-48.703l-59.859 23.156c-1.5469 0.60938-3 0.84375-4.5469 0.84375-5.0625 0-9.8438-3.1406-11.766-8.0625-2.5312-6.4688 0.70312-13.781 7.2188-16.312l56.297-21.844c-10.547-18.609-21-37.453-30.703-55.922-0.23438-0.60938-0.60938-1.0781-0.84375-1.5469l-51 19.781c-1.5469 0.60938-3 0.84375-4.5469 0.84375-5.0625 0-9.8438-3.1406-11.766-8.0625-2.5312-6.4688 0.70312-13.781 7.2188-16.312l48.469-18.844c-7.0781-13.781-13.922-27.469-20.156-40.547-2.8594-6-5.625-12-8.3906-17.859l-46.078 17.859c-1.5469 0.60938-3 0.84375-4.5469 0.84375-5.0625 0-9.8438-3-11.766-8.0625-2.5312-6.4688 0.70312-13.781 7.2188-16.312l44.625-17.391c-11.156-24.844-21.844-49.688-31.547-74.297-7.9219-19.922-30-30.375-51-23.391-28.219 7.4531-45.375 22.312-52.312 45.469-28.453 94.453 114.7 299.53 190.69 387.14 34.547-17.25 72.797-27.797 110.02-37.078z"/>
 <path d="m994.08 985.22c-114-19.453-210.61-49.781-295.22-92.531-97.547-49.219-176.29-113.62-240.71-196.69-36.375-44.531-78.234-85.922-124.55-123-69.469-33-133.22-67.078-151.22-117.94-5.8594-16.547-6.2344-33.938-1.5469-51.938-23.766 7.6875-44.625 28.688-54.703 57.469-12.469 35.531-8.8594 87.234 39.938 126.61 111.61 106.92 228.61 189 352.55 275.76 33.844 23.625 68.062 47.625 102.61 72.469 31.781 22.781 66.609 39.469 103.45 49.547 187.31 51.141 281.06 51.469 320.29-2.625-9.9375 3-20.391 4.6875-31.219 4.6875-6.6094-0.1875-13.078-0.75-19.688-1.8281z"/>
 <path d="m472.22 329.63c13.453-1.5469 27.844-3.7031 43.688-6.9375-36.234-14.391-62.531-40.453-78.609-77.859-5.3906-12.469-7.2188-25.453-8.625-36.703-1.9219-15.375-9.4688-32.766-51.703-30.938-7.5469 0.375-14.156 4.9219-16.453 11.391-9.1406 25.453-9.9375 48.844-2.5312 71.531 14.953 46.031 62.953 75.281 114.23 69.516z"/>
 <path d="m348.24 552.24c48.234 38.531 91.781 81.469 129.71 128.06 59.297 76.453 131.16 136.31 219.14 182.86 18.375-55.078 50.859-90.469 90.234-114.7-70.078-81.938-225.84-295.55-192.37-406.92 1.5469-5.3906 3.7031-10.312 6.1406-15l-24.609 8.0625h-0.375c-0.14062 0-0.23438 0.14062-0.46875 0.23438-40.312 10.453-72.375 16.781-100.78 19.922-5.2969 0.60938-10.453 0.84375-15.609 0.84375-57 0-108.38-35.062-125.39-87.703-3.6094-11.062-5.5312-22.453-6-33.938l-40.312 55.078c67.453 93.609 77.625 177 30.234 248.16 9.2344 4.5469 18.469 9.1406 27.844 13.547 1.0781 0.42188 1.9219 0.89062 2.625 1.5z"/>
</svg>
