<?xml version="1.0" encoding="UTF-8"?>
<svg width="1200pt" height="1200pt" version="1.1" viewBox="0 0 1200 1200" xmlns="http://www.w3.org/2000/svg">
 <path d="m600 60c-143.22 0-280.57 56.895-381.84 158.16-101.27 101.27-158.16 238.62-158.16 381.84s56.895 280.57 158.16 381.84c101.27 101.27 238.62 158.16 381.84 158.16s280.57-56.895 381.84-158.16c101.27-101.27 158.16-238.62 158.16-381.84s-56.895-280.57-158.16-381.84c-101.27-101.27-238.62-158.16-381.84-158.16zm162.6 702.6c-11.266 11.355-26.602 17.746-42.602 17.746s-31.336-6.3906-42.602-17.746l-120-120c-11.23-11.324-17.492-26.652-17.398-42.602v-240c0-21.438 11.438-41.242 30-51.961s41.438-10.719 60 0 30 30.523 30 51.961v215.4l102.6 102c11.355 11.266 17.746 26.602 17.746 42.602s-6.3906 31.336-17.746 42.602z"/>
</svg>
