<?xml version="1.0" encoding="UTF-8"?>
<svg width="1200pt" height="1200pt" version="1.1" viewBox="0 0 1200 1200" xmlns="http://www.w3.org/2000/svg">
 <path d="m842.11 147.05c-0.1875-0.23438-0.375-0.46875-0.51562-0.70312-6.0469-5.2969-45.375 7.7344-104.77 33.328-68.906 29.766-159.42 78.234-255.24 138.47-95.953 60.328-178.92 120.84-235.55 169.97-44.859 38.953-72.797 67.266-75.375 77.625l9 4.4062c15.469-1.7812 49.781-14.156 96.422-34.312 68.625-29.625 158.72-77.906 254.11-137.76 0.23438-0.1875 0.46875-0.32812 0.70312-0.46875l0.046875 0.046875 0.375-0.23438c95.953-60.328 178.92-120.84 235.55-169.97 43.125-37.406 70.594-65.062 74.953-76.312-0.09375-1.3594 0.046875-2.7188 0.28125-4.0781zm60.094 53.953 46.594-29.297c5.3438-3.375 11.766-4.2188 17.531-2.9062 5.8125 1.3125 11.25 4.875 14.625 10.219l65.719 104.58c4.0781 6.4219 10.359 10.641 17.25 12.234 6.9375 1.5938 14.484 0.5625 20.906-3.5156l5.8594-3.7031c6.4219-4.0781 10.641-10.359 12.234-17.25 1.5938-6.9375 0.5625-14.484-3.5156-20.906l-65.719-104.58c-12.516-19.922-32.062-32.906-53.391-37.781-21.422-4.875-44.672-1.6875-64.594 10.828l-40.359 25.359 26.859 56.672zm-500.02 430.92c-8.0625 5.0625-18.703 2.6719-23.766-5.3906s-2.6719-18.703 5.3906-23.766l81.469-51.234c8.0625-5.0625 18.703-2.6719 23.766 5.3906s2.6719 18.703-5.3906 23.766zm50.203 66.047c-8.0625 5.0625-18.703 2.6719-23.766-5.3906s-2.6719-18.703 5.3906-23.766l35.344-22.219c8.0625-5.0625 18.703-2.6719 23.766 5.3906s2.6719 18.703-5.3906 23.766zm50.156 66.141 81.469-51.234c8.0625-5.0625 10.453-15.703 5.3906-23.766s-15.703-10.453-23.766-5.3906l-81.469 51.234c-8.0625 5.0625-10.453 15.703-5.3906 23.766s15.703 10.453 23.766 5.3906zm49.828 66.281c-8.0625 5.0625-18.703 2.6719-23.766-5.3906s-2.6719-18.703 5.3906-23.766l35.344-22.219c8.0625-5.0625 18.703-2.6719 23.766 5.3906s2.6719 18.703-5.3906 23.766zm400.36-223.4c-4.0781-8.625-0.375-18.891 8.25-22.969s18.891-0.375 22.969 8.25l51.281 108.23c4.0781 8.625 0.375 18.891-8.25 22.969s-18.891 0.375-22.969-8.25zm-27.891-58.875c-4.0781-8.625-0.375-18.891 8.25-22.969s18.891-0.375 22.969 8.25l1.4531 3.0938c4.0781 8.625 0.375 18.891-8.25 22.969s-18.891 0.375-22.969-8.25zm-109.17-230.34c-4.0781-8.625-0.375-18.891 8.25-22.969 8.625-4.0781 18.891-0.375 22.969 8.25l82.734 174.56c4.0781 8.625 0.375 18.891-8.25 22.969-8.625 4.0781-18.891 0.375-22.969-8.25zm-613.31 579.32c14.672-14.672 23.766-34.969 23.766-57.375 0-32.438-42.656-90.094-73.547-131.86-2.625-3.5625-5.2031-7.0312-7.6406-10.312-2.4375 3.3281-4.9688 6.75-7.6406 10.312-30.891 41.719-73.547 99.422-73.547 131.86 0 22.406 9.0938 42.703 23.766 57.375s34.969 23.766 57.375 23.766 42.703-9.0938 57.375-23.766zm291.28-22.875-191.16-241.64c-1.6406-2.0625-3.6562-3.6562-5.9062-4.7812v-0.046875l-73.031-35.953c19.453-5.4844 41.719-13.641 66.188-24.188 69.891-30.188 161.63-79.312 258.79-140.29 0.51562-0.28125 1.0781-0.60938 1.5469-0.9375l-0.046874-0.046875c97.266-61.172 181.6-122.72 239.34-172.82 29.391-25.5 52.078-48.984 66.656-69.188l271.74 573.47c0.89063 1.9219 1.7344 3.8906 2.5312 5.8125-35.531-6.8438-66.609-7.9219-95.672-2.8125-36.656 6.4219-69.328 22.5-102.7 49.031-80.766 59.109-113.2 45.656-152.95 29.156-53.906-22.406-119.06-49.453-285.37 35.25zm642.56-74.062c-36.703-8.2969-67.594-10.219-95.578-5.2969-30.703 5.3906-58.547 19.219-87.328 42.141-0.32812 0.23438-0.60938 0.46875-0.9375 0.70312-96.422 70.547-136.87 53.766-186.52 33.141-46.594-19.359-102.8-42.703-250.26 30.984l126.66 160.13c12.891 16.266 30.047 26.719 47.953 30.516 17.438 3.7031 35.578 1.0781 50.953-8.625l363.14-228.24c15.328-9.6094 25.547-24.656 29.812-41.766 1.125-4.4062 1.8281-9 2.1562-13.641z" fill-rule="evenodd"/>
</svg>
