<?xml version="1.0" encoding="UTF-8"?>
<svg width="1200pt" height="1200pt" version="1.1" viewBox="0 0 1200 1200" xmlns="http://www.w3.org/2000/svg">
 <path d="m696 228c0 53.016-42.984 96-96 96s-96-42.984-96-96 60-168 96-168 96 114.98 96 168zm-60 21.609c0 21.188-16.125 38.391-36 38.391s-36-17.203-36-38.391c0-21.234 24-57.609 36-57.609s36 36.375 36 57.609z" fill-rule="evenodd"/>
 <path d="m874.03 649.08c-71.344 36.844-168.28 58.922-274.03 58.922-105.76 0-202.69-22.078-274.03-58.922-41.297-21.281-76.219-48.844-97.969-81.469v272.39c0 106.03 166.55 192 372 192s372-85.969 372-192v-272.39c-21.75 32.625-56.672 60.188-97.969 81.469z"/>
 <path d="m816 549.61c0 21.188-21.469 38.391-48 38.391s-48-17.203-48-38.391c0-21.234 21.469-57.609 48-57.609s48 36.375 48 57.609z"/>
 <path d="m600 624c26.531 0 48-17.203 48-38.391 0-21.234-21.469-57.609-48-57.609s-48 36.375-48 57.609c0 21.188 21.469 38.391 48 38.391z"/>
 <path d="m480 549.61c0 21.188-21.469 38.391-48 38.391s-48-17.203-48-38.391c0-21.234 21.469-57.609 48-57.609s48 36.375 48 57.609z"/>
 <path d="m432 360c30.516 0 60-20.203 60-50.391v-1.4062c10.266-1.5938 20.719-2.9531 31.359-4.125 8.2969 8.3906 17.953 15.375 28.641 20.719v83.203c0 26.531 21.469 48 48 48s48-21.469 48-48v-83.203c10.688-5.3438 20.344-12.328 28.641-20.719 10.641 1.1719 21.094 2.5312 31.359 4.125v1.4062c0 30.188 29.484 50.391 60 50.391 20.062 0 39.703-8.7188 50.766-23.297 18.703 7.0312 36.141 14.953 51.984 23.625-16.406 2.0625-29.625 13.594-38.344 25.406-9.75 13.125-16.406 30-16.406 43.875 0 30.188 29.484 50.391 60 50.391s60-20.203 60-50.391c0-8.3438-2.3906-17.719-6.4219-26.719 27.094 26.625 42.422 56.953 42.422 89.109 0 106.03-166.55 192-372 192s-372-85.969-372-192c0-32.156 15.328-62.484 42.422-89.109-4.0312 9-6.4219 18.375-6.4219 26.719 0 30.188 29.484 50.391 60 50.391s60-20.203 60-50.391c0-13.875-6.6562-30.75-16.406-43.875-8.7188-11.812-21.938-23.344-38.344-25.406 15.844-8.6719 33.281-16.594 51.984-23.625 11.062 14.578 30.703 23.297 50.766 23.297zm336 240c30.516 0 60-20.203 60-50.391 0-13.875-6.6562-30.75-16.406-43.875-9.6562-13.078-24.75-25.734-43.594-25.734s-33.938 12.656-43.594 25.734c-9.75 13.125-16.406 30-16.406 43.875 0 30.188 29.484 50.391 60 50.391zm-168 36c30.516 0 60-20.203 60-50.391 0-13.875-6.6562-30.75-16.406-43.875-9.6562-13.078-24.75-25.734-43.594-25.734s-33.938 12.656-43.594 25.734c-9.75 13.125-16.406 30-16.406 43.875 0 30.188 29.484 50.391 60 50.391zm-168-36c30.516 0 60-20.203 60-50.391 0-13.875-6.6562-30.75-16.406-43.875-9.6562-13.078-24.75-25.734-43.594-25.734s-33.938 12.656-43.594 25.734c-9.75 13.125-16.406 30-16.406 43.875 0 30.188 29.484 50.391 60 50.391z" fill-rule="evenodd"/>
 <path d="m876 468c26.531 0 48-17.203 48-38.391 0-21.234-21.469-57.609-48-57.609s-48 36.375-48 57.609c0 21.188 21.469 38.391 48 38.391z"/>
 <path d="m372 429.61c0 21.188-21.469 38.391-48 38.391s-48-17.203-48-38.391c0-21.234 21.469-57.609 48-57.609s48 36.375 48 57.609z"/>
 <path d="m432 348c26.531 0 48-17.203 48-38.391 0-21.234-21.469-57.609-48-57.609s-48 36.375-48 57.609c0 21.188 21.469 38.391 48 38.391z"/>
 <path d="m768 348c26.531 0 48-17.203 48-38.391 0-21.234-21.469-57.609-48-57.609s-48 36.375-48 57.609c0 21.188 21.469 38.391 48 38.391z"/>
 <path d="m564 336s12 7.5938 36 7.5938 36-7.5938 36-7.5938v72c0 19.875-16.125 36-36 36s-36-16.125-36-36z"/>
 <path d="m60 846c0-77.203 54.656-147.42 144-199.87v199.82c0 282.05 792 282.05 792 0v-199.82c89.344 52.453 144 122.68 144 199.87 0 162.37-241.78 294-540 294s-540-131.63-540-294z"/>
</svg>
