<?xml version="1.0" encoding="UTF-8"?>
<svg width="1200pt" height="1200pt" version="1.1" viewBox="0 0 1200 1200" xmlns="http://www.w3.org/2000/svg">
 <path d="m374.44 425.81c0 74.062-60.047 134.11-134.16 134.11-74.062 0-134.06-60.047-134.06-134.11-0.046875-74.062 60-134.11 134.06-134.11 74.109 0 134.16 60.047 134.16 134.11z"/>
 <path d="m1079.6 365.72c33.141 66.281 6.2812 146.81-59.953 179.95-66.234 33.141-146.81 6.2812-179.9-59.953-33.141-66.234-6.2812-146.81 59.953-179.95 66.234-33.141 146.81-6.2812 179.9 59.953z"/>
 <path d="m600 609c-155.34 1.0312-289.5 107.53-347.81 228.74-31.219 64.172 20.812 159.71 99 179.44 164.81 36.75 332.76 36.75 497.63 0 78.188-19.781 130.22-115.27 99-179.44-58.312-121.26-192.52-227.76-347.81-228.74z"/>
 <path d="m740.9 213.56c77.812 77.812 77.812 203.95 0 281.76-77.812 77.812-203.95 77.812-281.76 0s-77.812-203.95 0-281.76 203.95-77.812 281.76 0z"/>
 <path d="m357.61 632.11c0.89062-0.65625 1.8281-1.2188 2.7188-1.8281-35.812-20.344-76.688-32.812-120-33.094-104.53 0.65625-194.86 72.375-234.1 153.98-21.047 43.219 14.016 107.48 66.656 120.74 37.922 8.4375 76.031 14.016 114.23 16.688-1.4062-26.578 3.3281-52.406 14.438-75.328 33.891-70.406 89.297-134.72 156.1-181.22z"/>
 <path d="m1193.8 751.13c-39.281-81.609-129.56-153.28-234.1-153.98-43.312 0.28125-84.188 12.797-120 33.094 0.89062 0.60938 1.7812 1.2188 2.6719 1.875 66.75 46.406 122.16 110.81 156.1 181.22 11.109 22.922 15.891 48.75 14.438 75.328 38.203-2.6719 76.359-8.25 114.23-16.688 52.594-13.312 87.656-77.578 66.656-120.74z"/>
</svg>
