<?xml version="1.0" encoding="UTF-8"?>
<svg width="1200pt" height="1200pt" version="1.1" viewBox="0 0 1200 1200" xmlns="http://www.w3.org/2000/svg">
 <path d="m885.32 519.05c4.5 8.4844 1.2656 19.031-7.2188 23.531s-19.031 1.2656-23.531-7.2188l-0.79688-1.5469c-0.23438-0.42188-0.42188-0.84375-0.60938-1.2656l-0.14062-0.23438c-4.5-8.4375-1.3125-18.938 7.125-23.484 8.4375-4.5 18.938-1.3125 23.484 7.125l0.14062 0.23438c0.28125 0.42188 0.51562 0.84375 0.75 1.2656l0.79688 1.5469zm-166.36 36.516c-5.5312-5.5312-13.172-8.9531-21.656-8.9531-8.4375 0-16.125 3.4219-21.656 8.9531s-8.9531 13.172-8.9531 21.656c0 8.4375 3.4219 16.125 8.9531 21.656s13.172 8.9531 21.656 8.9531c8.4375 0 16.125-3.4219 21.656-8.9531s8.9531-13.172 8.9531-21.656c0-8.4375-3.4219-16.125-8.9531-21.656zm-21.656-43.781c18.094 0 34.406 7.3125 46.266 19.172s19.172 28.219 19.172 46.266c0 18.094-7.3125 34.406-19.172 46.266s-28.219 19.172-46.266 19.172c-18.094 0-34.406-7.3125-46.266-19.172-11.859-11.812-19.172-28.219-19.172-46.266 0-18.094 7.3125-34.406 19.172-46.266s28.219-19.172 46.266-19.172zm-250.74-144.32-83.953 131.58c5.3906 4.5 11.344 8.25 17.719 11.203 9.7969 4.4531 20.859 6.9844 32.578 6.9844 21.703 0 41.391-8.8125 55.594-23.016 14.25-14.25 23.016-33.891 23.016-55.594 0-17.812-5.8594-34.172-15.703-47.25-7.6406-10.125-17.672-18.375-29.25-23.859zm104.72-164.11-85.922 134.63c15.047 7.875 28.078 19.031 38.203 32.484 14.297 19.031 22.781 42.609 22.781 68.109 0 31.312-12.703 59.719-33.234 80.25s-48.891 33.234-80.25 33.234c-16.641 0-32.578-3.6562-47.016-10.219-7.9219-3.6094-15.328-8.0625-22.125-13.266l-234.24 367.03 135.56-17.719c8.5312-1.125 16.734-0.46875 24.562 1.9219 7.8281 2.3906 15 6.4219 21.469 12.047 6.5156 5.7188 11.484 12.328 14.812 19.734 3.375 7.4531 5.1094 15.516 5.1094 24.094v178.74c0 7.0312 2.9062 13.453 7.5469 18.141 4.6875 4.6875 11.109 7.5469 18.141 7.5469s13.453-2.9062 18.141-7.5469c4.6875-4.6875 7.5469-11.109 7.5469-18.141v-191.39c0-28.781 15.984-47.344 36.422-55.547 7.6875-3.0938 15.938-4.6406 24.094-4.6406s16.406 1.5469 24.094 4.6406c20.438 8.2031 36.422 26.766 36.422 55.547h-0.09375l0.375 52.547c0 0.42188 0.046876 0.79688 0 1.2188l0.23438 32.391c0.046874 7.0312 3 13.5 7.7344 18.234 4.6406 4.6406 11.016 7.5469 18.047 7.5469s13.453-2.9062 18.141-7.5469c4.6875-4.6875 7.5469-11.109 7.5469-18.141v-118.17c0-14.672 5.3906-28.125 14.484-38.484 9.0469-10.312 21.75-17.438 36.328-19.312l67.453-8.8125c10.359-1.3594 20.25 1.5938 27.891 7.4531 7.6875 5.9062 13.125 14.766 14.531 25.125 0.84375 6.3281 4.0312 12 8.6719 16.125 4.5 3.9844 10.406 6.375 16.875 6.375 7.0312 0 13.453-2.9062 18.141-7.5469 4.6875-4.6875 7.5469-11.109 7.5469-18.141v-8.4375c0-9.4688 3.5156-18.234 9.4219-24.938 5.8594-6.7031 14.109-11.297 23.578-12.562l162.56-21.281c-5.7656-30.609-13.219-60.938-22.266-90.891-10.922-36.188-24.047-71.344-39.188-105.28-3.8906-8.7656 0.046874-19.031 8.7656-22.922 8.7656-3.8906 19.031 0.046875 22.922 8.7656 15.938 35.766 29.625 72.328 40.828 109.36 6.75 22.312 12.656 44.906 17.672 67.875 5.3438-4.9219 11.25-9.2344 17.578-12.797 15.516-8.7656 33.562-13.219 51.562-13.312 17.953-0.09375 36.094 4.125 51.844 12.656l0.14063 0.09375c-10.266-49.547-24.188-98.203-41.484-145.55-26.25-71.766-60.234-140.44-101.11-204.66-40.875-64.223-88.688-124.08-142.64-178.26-53.203-53.438-112.17-101.2-176.16-142.03-14.109-9-30.516-11.391-45.656-8.0625s-28.969 12.469-37.969 26.578-11.391 30.516-8.0625 45.656 12.469 28.969 26.578 37.969c56.625 36.141 108.75 78.375 155.68 125.53 47.531 47.812 89.812 100.78 126.05 157.69 2.5781 4.0312 0.75 1.125 2.0156 3.1875 2.5312 3.9844 0.70312 1.0781 2.0156 3.1875 5.0625 8.1562 2.5781 18.891-5.5781 23.953s-18.891 2.5781-23.953-5.5781c-2.625-4.1719-0.65625-1.125-1.875-3.0469-2.5781-4.125-0.65625-1.0781-1.875-3.0469-34.828-54.703-75.562-105.7-121.4-151.82-44.203-44.438-93.047-84.234-145.92-118.36zm-275.11 780.32-172.26 24.047-9.6094-75.141 155.29-20.344c3.6094-0.46875 6.9375-0.23438 9.9844 0.70312 3.0469 0.9375 5.9062 2.5781 8.6719 4.9688 2.6719 2.3438 4.6875 4.9688 6 7.9219 1.3125 2.8594 1.9688 6.1406 1.9688 9.7969v48.094zm172.78-22.734-51.703 6.75v-44.766c0-12.281 6.375-20.016 14.531-23.297 3.4219-1.3594 7.2656-2.0625 11.156-2.0625 3.9375 0 7.7344 0.70312 11.156 2.0625 8.1562 3.2812 14.531 11.016 14.531 23.297h0.09375l0.28125 38.016zm515.11-142.22c7.5469-0.375 14.203-5.6719 16.078-13.359 3.7969-15.984 13.594-27.516 26.062-34.547 10.312-5.8125 22.406-8.7656 34.688-8.8594 12.328-0.09375 24.562 2.7188 35.109 8.4375 13.031 7.0781 23.391 18.797 27.562 35.203 0.23438 0.89062 0.51563 1.7344 0.84375 2.5781 0.28125 1.9219 0.51563 3.8438 0.79688 5.7656 2.1562 16.594-2.625 32.484-12.047 44.766-9.4688 12.328-23.625 21.047-40.219 23.203l-482.63 63.141v-54.141c0-6.0469 2.1562-11.484 5.7656-15.609s8.7656-6.9844 14.672-7.7812l67.453-8.8125c0.84375-0.09375 1.6406 0.14063 2.3438 0.65625 0.60938 0.46875 1.0781 1.1719 1.1719 1.9688 1.9688 15 9.3281 28.266 20.109 37.734 10.641 9.375 24.609 15.094 39.844 15.094 16.688 0 31.781-6.7969 42.75-17.766s17.766-26.109 17.766-42.75v-8.4375c0-0.84375 0.28125-1.5938 0.70312-2.1094 0.46875-0.51563 1.125-0.89063 1.9219-0.98438l179.26-23.438zm-483.84-135c6.7031 6.7031 10.875 15.984 10.875 26.203s-4.1719 19.5-10.875 26.203c-6.7031 6.7031-15.984 10.875-26.203 10.875s-19.5-4.1719-26.203-10.875c-6.7031-6.7031-10.875-15.984-10.875-26.203s4.1719-19.5 10.875-26.203c6.7031-6.7031 15.984-10.875 26.203-10.875s19.5 4.1719 26.203 10.875zm-26.25-45.703c19.875 0 37.828 8.0625 50.859 21.047 13.031 13.031 21.047 30.984 21.047 50.859 0 19.828-8.0625 37.828-21.047 50.859-13.031 13.031-30.984 21.047-50.859 21.047-19.828 0-37.828-8.0625-50.859-21.047-13.031-13.031-21.047-30.984-21.047-50.859 0-19.828 8.0625-37.828 21.047-50.859 13.031-13.031 30.984-21.047 50.859-21.047zm-173.39 168.89c-8.3438 4.6875-18.891 1.7344-23.625-6.6094-4.6875-8.3438-1.7344-18.891 6.6094-23.625l41.297-23.344c8.3438-4.6875 18.891-1.7344 23.625 6.6094 4.6875 8.3438 1.7344 18.891-6.6094 23.625zm311.21-106.92c-6.7969-6.7969-6.7969-17.812 0-24.656 6.7969-6.7969 17.812-6.7969 24.656 0l20.625 20.625c6.7969 6.7969 6.7969 17.812 0 24.656-6.7969 6.7969-17.812 6.7969-24.656 0zm226.87-59.391c2.2031-9.375 11.625-15.141 20.953-12.938 9.375 2.2031 15.141 11.625 12.938 20.953l-8.9531 37.688c-2.2031 9.375-11.625 15.141-20.953 12.938-9.375-2.2031-15.141-11.625-12.938-20.953zm-209.21-228.05c-9.6094 0-17.438-7.7812-17.438-17.438 0-9.6094 7.7812-17.438 17.438-17.438h17.953c9.6094 0 17.438 7.7812 17.438 17.438 0 9.6094-7.7812 17.438-17.438 17.438zm-44.625 86.953c6.7969-6.7969 17.812-6.7969 24.656 0 6.7969 6.7969 6.7969 17.812 0 24.656l-23.344 23.344c-6.7969 6.7969-17.812 6.7969-24.656 0-6.7969-6.7969-6.7969-17.812 0-24.656z" fill-rule="evenodd"/>
</svg>
