<?xml version="1.0" encoding="UTF-8"?>
<svg width="1200pt" height="1200pt" version="1.1" viewBox="0 0 1200 1200" xmlns="http://www.w3.org/2000/svg">
 <path d="m1102.5 454.89c-5.4922-3.4531-12.75-1.7656-16.203 3.7266-3.4531 5.4922-1.8047 12.789 3.7266 16.242 72.43 45.355 91.613 98.285 85.418 132.7-3.8867 21.578-17.344 37.234-35.156 40.922-22.68 4.668-47.594-10.594-68.27-41.824-29.426-44.492-64.348-69.996-103.78-75.805-44.453-6.5156-81.375 14.164-96.559 24.445-23.582-18.246-107.46-99.148-95.344-317.73 0.19531-3.2188-0.98047-6.3555-3.1797-8.7109-2.2344-2.3555-5.3359-3.6875-8.5547-3.6875h-51.871v-98.012c0-62.148-50.574-112.72-112.76-112.72-62.148 0-112.72 50.574-112.72 112.72v98.012h-51.871c-3.2578 0-6.3164 1.3359-8.5547 3.6875-2.2344 2.3164-3.375 5.4922-3.2148 8.7109 12.043 217.41-71.918 299.25-95.383 317.69-15.223-10.32-52.105-30.918-96.48-24.406-39.434 5.8086-74.352 31.309-103.78 75.805-20.676 31.23-45.59 46.496-68.309 41.824-17.773-3.6875-31.23-19.344-35.117-40.922-6.1992-34.41 12.988-87.34 85.418-132.7 5.4922-3.4531 7.1797-10.75 3.7266-16.242-3.4531-5.4922-10.711-7.1797-16.242-3.7266-103.66 64.934-99.738 136.46-96.09 156.86 5.6133 31.23 26.172 54.145 53.559 59.758 4.3555 0.90234 8.7109 1.3359 13.027 1.3359 28.445 0 56.891-18.793 79.648-53.203 25.543-38.605 54.93-60.617 87.34-65.445 37.469-5.6094 69.645 13.379 81.141 21.305l-27.504 597.76c-0.15625 3.2148 1.0195 6.3555 3.2148 8.6719 2.2383 2.3125 5.2969 3.6484 8.5156 3.6484h599.37c3.2148 0 6.3164-1.3359 8.5156-3.6484 2.2344-2.3164 3.4141-5.4531 3.2578-8.6719l-27.512-597.76c11.496-7.9258 43.672-26.914 81.102-21.305 32.449 4.8242 61.836 26.836 87.379 65.445 22.758 34.41 51.203 53.203 79.609 53.203 4.3555 0 8.7109-0.43359 13.027-1.3359 27.426-5.6094 47.945-28.523 53.555-59.758 3.6875-20.398 7.6094-91.926-96.09-156.86zm-591.71-327.74c0-49.203 40.02-89.184 89.184-89.184 49.203 0 89.223 39.98 89.223 89.184v98.012h-178.41zm376.55 1034.9h-574.73l26.992-585.75c24.406-17.5 117.36-99.383 108.13-327.58h304.51c-9.2227 228.2 83.73 310.08 108.13 327.58z"/>
 <path d="m810.73 644.75v247.58c0 6.5156-5.2578 11.77-11.77 11.77l-397.93 0.003906c-6.4727 0-11.77-5.2578-11.77-11.77l-0.003906-247.58c0-6.4727 5.2969-11.77 11.77-11.77h397.93c6.5117 0 11.77 5.2969 11.77 11.77z"/>
</svg>
