<?xml version="1.0" encoding="UTF-8"?>
<svg width="1200pt" height="1200pt" version="1.1" viewBox="0 0 1200 1200" xmlns="http://www.w3.org/2000/svg">
 <path d="m462 896.4c-153.6 0-308.4-6-460.8-18-1.1992 20.402-1.1992 37.203-1.1992 49.203s9.6016 20.398 21.602 20.398h1.1992c30 1.1992 58.801 3.6016 88.801 4.8008 234 10.801 470.4 10.801 704.4 0 30-1.1992 58.801-3.6016 88.801-4.8008h1.1992c12 0 20.398-9.6016 21.602-20.398 0-12 0-30-1.1992-50.398-156 13.195-309.6 19.195-464.4 19.195z"/>
 <path d="m922.8 855.6c-9.6016-134.4-50.398-382.8-217.2-602.4-3.6016-4.8008-7.1992-7.1992-12-10.801-6-3.6016-12-4.8008-19.199-4.8008h-423.6c-9.6016 0-18 3.6016-24 8.3984 0 0-1.1992 0-1.1992 1.1992-2.3984 1.1992-3.6016 3.6016-4.8008 6-19.199 24-36 49.199-51.602 74.398-7.1992 12-14.398 22.801-20.398 34.801h79.199c6 0 10.801 4.8008 10.801 10.801s-4.8008 10.801-10.801 10.801h-93.602c-15.602 27.602-28.801 56.398-40.801 84h94.801c6 0 10.801 4.8008 10.801 10.801s-4.8008 10.801-10.801 10.801h-103.2c-10.801 28.801-21.602 56.398-30 84h104.4c6 0 10.801 4.8008 10.801 10.801s-4.8008 10.801-10.801 10.801l-110.4-0.003906c-8.3984 28.801-15.602 56.398-21.602 84h99.602c6 0 10.801 4.8008 10.801 10.801s-4.8008 10.801-10.801 10.801h-104.4c-6 30-10.801 57.602-13.199 84h117.6c6 0 10.801 4.8008 10.801 10.801s-4.8008 10.801-10.801 10.801h-120c-1.1992 16.801-3.6016 32.398-3.6016 46.801 303.6 26.398 613.2 26.398 919.2 2.3984z"/>
 <path d="m133.2 976.8 12 16.801c4.8008 7.1992 13.199 12 21.602 13.199 196.8 26.398 394.8 26.398 591.6 0 8.3984-1.1992 15.602-6 21.602-13.199l12-16.801c-109.2 4.8008-219.6 7.1992-328.8 7.1992-110.4 1.1992-220.8-2.3984-330-7.1992z"/>
 <path d="m194.4 249.6c-44.398 2.3984-76.801 20.398-92.398 33.602l52.801 24c12-19.203 25.199-38.402 39.598-57.602z"/>
 <path d="m462 174c-63.602 0-169.2 9.6016-190.8 42h381.6c-21.602-33.602-126-42-190.8-42z"/>
 <path d="m1198.8 636c-22.801-114-58.801-212.4-97.199-270-30-44.398-68.398-92.398-122.4-106.8-112.8-31.199-202.8-31.199-256.8-20.398 0 0 0 1.1992 1.1992 1.1992 37.199 49.199 68.398 99.602 94.801 150 4.8008-46.801 22.801-79.199 55.199-93.602 1.1992-1.1992 3.6016-1.1992 4.8008-2.3984 57.602-24 123.6 2.3984 150 60 43.199 93.602 78 194.4 99.602 297.6 3.6016 16.801 18 28.801 36 28.801 10.801 0 21.602-4.8008 28.801-13.199 5.9961-8.4023 8.3945-20.402 5.9961-31.203z"/>
</svg>
