<?xml version="1.0" encoding="UTF-8"?>
<svg width="1200pt" height="1200pt" version="1.1" viewBox="0 0 1200 1200" xmlns="http://www.w3.org/2000/svg">
 <path d="m778.12 712.5h-32.438l1.6875-21.75c2.8125-27.938-21.188-53.812-49.312-53.25h-137.62c-0.9375-90.938 36.75-158.81 37.125-159.56 11.812-21.562-19.875-39.75-32.625-18.562-1.875 3.375-43.125 76.875-42 178.12h-102.94c28.312-133.69 114-189.75 114.94-190.31 8.8125-5.625 11.438-17.062 6-25.875s-17.062-11.438-25.875-6c-4.3125 2.8125-103.5 66.75-133.31 222.19h-179.81c-28.125-0.5625-52.125 25.312-49.312 53.25l1.875 21.75c-29.062-0.75-67.5-1.125-89.625 17.25-58.688 42.188-14.625 116.44 57 114h43.125l19.5 244.5c2.4375 31.125 28.875 55.5 60.188 55.5h410.62c31.312 0 57.75-24.375 60.188-55.5l19.688-244.5c30.938 0.1875 75.75 3.1875 100.12-17.25 58.5-42.188 14.438-116.44-57.188-114zm-656.25 93.75c-37.312 0.1875-62.25-27.375-35.25-45.938 15.75-13.5 50.625-9.9375 70.875-10.312l4.5 56.25zm556.31 279c-0.9375 11.812-11.062 21-22.875 21h-410.62c-11.812 0-21.75-9.1875-22.688-21l-2.8125-35.25h461.81c-1.125 14.25-2.0625 26.25-2.8125 35.25zm135.19-289.31c-16.312 14.25-54.375 9.75-75.188 10.312l4.5-56.25h35.438c37.312-0.1875 62.25 27.375 35.25 45.938z"/>
 <path d="m1151.8 300.94c0-0.1875-0.1875-0.1875-0.1875-0.1875-4.6875-7.6875-10.5-14.25-17.25-19.5l-276-217.12c-15.375-12.562-39.938-9.5625-51.75 6.1875l-210.56 267.56c-7.5 9.1875-9.75 21.75-6.375 33.188 0 0.375 0 0.5625 0.1875 0.9375 0.1875 1.125 0.9375 1.875 1.3125 2.8125 2.4375 5.8125 6.1875 11.25 10.875 14.812l276.38 217.5c13.312 10.312 29.25 15.375 45.188 15.375 22.312 0 44.625-9.9375 59.625-28.875l162.94-207.19c10.875-13.875 16.312-30.562 16.312-47.25 0-13.312-3.5625-26.625-10.688-38.25zm-316.69-207.38 257.81 202.69c-101.06 10.688-356.44 37.688-454.12 48z"/>
 <path d="m637.54 618.68c10.234 0 18.586-8.2852 18.75-18.539 0.14844-8.8242 3.2617-37.637 37.5-37.637 10.363 0 18.75-8.3945 18.75-18.75s-8.3867-18.75-18.75-18.75c-55.023 0-75 44.852-75 75-0.003906 10.352 8.4102 18.68 18.75 18.676z"/>
 <path d="m275.24 505.25c1.7773 0.61328 43.527 15.555 43.527 57.246 0 10.355 8.3867 18.75 18.75 18.75s18.75-8.3945 18.75-18.75c0-68.965-66.246-91.844-69.066-92.789-23.387-7.3477-35.02 27.18-11.961 35.543z"/>
</svg>
