<?xml version="1.0" encoding="UTF-8"?>
<svg width="1200pt" height="1200pt" version="1.1" viewBox="0 0 1200 1200" xmlns="http://www.w3.org/2000/svg">
 <path d="m825.72 655.45 215.88-204.24-298.68-42.121c-3.8398-0.60156-7.1992-3-9-6.4805l-133.92-263.4-133.92 263.4c-1.8008 3.4805-5.1602 5.8789-9 6.4805l-298.68 42.121 215.88 204.24c2.8789 2.7617 4.1992 6.8398 3.4805 10.801l-51 288.84 267.84-136.56c1.6797-0.83984 3.4805-1.3203 5.3984-1.3203s3.7188 0.48047 5.3984 1.3203l267.84 136.56-51-288.84c-0.71875-3.9609 0.60156-8.0391 3.4805-10.797zm-387.72-86.402v-0.23828c0-17.039 2.6406-33.719 7.8008-49.801 2.0391-6.2383 8.7617-9.7188 15.121-7.6797 6.2383 2.0391 9.7188 8.7617 7.6797 15.121-4.3203 13.559-6.6016 27.836-6.6016 42.359 0 6.6016-5.3984 12.121-12 12.121-6.6016-0.003906-12-5.1641-12-11.883zm64.559 114.48c-2.2812 2.2812-5.3984 3.4805-8.5195 3.4805-3 0-6.1211-1.1992-8.3984-3.4805-12.121-12-22.078-25.801-29.879-40.918-3-5.8789-0.71875-13.082 5.1602-16.199 5.8789-3 13.199-0.60156 16.199 5.2812 6.6016 12.84 15.121 24.602 25.441 34.801 4.6758 4.6758 4.6758 12.355-0.003906 17.035zm34.441-237.6c-12.84 6.7188-24.602 15.238-34.801 25.559-2.3984 2.2812-5.3984 3.4805-8.5195 3.4805-3.1211 0-6.1211-1.1992-8.5195-3.4805-4.6797-4.6797-4.6797-12.238 0-16.922 12-12.121 25.801-22.199 40.922-30 5.8789-3 13.078-0.60156 16.078 5.2812 3.1211 5.8828 0.71875 13.082-5.1602 16.082zm63.121 284.88h-0.12109c-17.039 0-33.84-2.6406-49.918-7.8008-6.2383-2.0391-9.7188-8.8789-7.6797-15.121 2.0391-6.3594 8.7617-9.8398 15.121-7.8008 13.676 4.4414 27.957 6.7227 42.477 6.7227 6.6016 0 12.121 5.3984 12.121 12 0 6.5977-5.4023 12-12 12zm45.719-292.92c-1.1992 0-2.3984-0.12109-3.6016-0.48047-13.559-4.4375-27.84-6.5977-42.238-6.5977-6.6016 0-12.238-5.3984-12.238-12s5.1602-12 11.762-12h0.47656c16.918 0 33.602 2.5195 49.559 7.6797 6.3594 2.0391 9.8398 8.7617 7.8008 15.121-1.6797 5.0391-6.3594 8.2773-11.52 8.2773zm68.762 245.4c-12 12-25.801 22.082-40.918 29.762-1.8008 0.96094-3.6016 1.3203-5.5195 1.3203-4.3203 0-8.5195-2.2812-10.68-6.4805-3-5.8789-0.60156-13.082 5.2812-16.199 12.84-6.6016 24.602-15.121 34.922-25.32 4.6797-4.8008 12.238-4.6797 16.918 0 4.6758 4.6797 4.6758 12.238-0.003907 16.918zm8.1602-177.6c-6.6016-12.84-15.238-24.602-25.559-34.801-4.6797-4.6797-4.6797-12.238 0-17.039 4.6797-4.6797 12.238-4.6797 16.922 0 12.121 12 22.199 25.68 30 40.801 3 5.8789 0.71875 13.199-5.1602 16.199-1.8008 0.83984-3.7188 1.3203-5.5195 1.3203-4.3242 0-8.5273-2.4023-10.684-6.4805zm39.238 62.762c0 17.398-2.6406 34.32-7.918 50.398-1.5586 5.0391-6.3594 8.2812-11.398 8.2812-1.1992 0-2.3984-0.23828-3.7188-0.60156-6.2383-2.0391-9.7188-8.7617-7.6797-15.121 4.4336-13.68 6.7148-28.078 6.7148-42.598 0-6.6016 5.3984-12.359 12-12.359s12 5.0391 12 11.762z"/>
 <path d="m345.4 331.16c2.3438 2.3438 5.4141 3.5156 8.4844 3.5156 3.0703 0 6.1406-1.1719 8.4844-3.5156 4.6875-4.6875 4.6875-12.281 0-16.969l-101.77-101.77c-4.6875-4.6875-12.281-4.6875-16.969 0s-4.6875 12.281 0 16.969z"/>
 <path d="m272.82 687.98-133.43 54c-6.1445 2.4844-9.1094 9.4805-6.6211 15.621 1.8867 4.6719 6.3828 7.5078 11.129 7.5078 1.4922 0 3.0234-0.28906 4.4922-0.88672l133.43-54c6.1445-2.4844 9.1094-9.4805 6.6211-15.621-2.4805-6.1406-9.4688-9.1211-15.621-6.6211z"/>
 <path d="m600 904.79c-6.6289 0-12 5.3711-12 12v132c0 6.6289 5.3711 12 12 12s12-5.3711 12-12v-132c0-6.6289-5.3711-12-12-12z"/>
 <path d="m1060.6 741.98-133.43-54c-6.1094-2.4805-13.137 0.47656-15.621 6.6211-2.4883 6.1406 0.47656 13.137 6.6211 15.621l133.43 54c1.4727 0.59766 2.9922 0.88672 4.4922 0.88672 4.7461 0 9.2383-2.8359 11.129-7.5078 2.4922-6.1406-0.47266-13.137-6.6211-15.621z"/>
 <path d="m846.12 334.67c3.0703 0 6.1406-1.1719 8.4844-3.5156l101.77-101.77c4.6875-4.6875 4.6875-12.281 0-16.969s-12.281-4.6875-16.969 0l-101.77 101.77c-4.6875 4.6875-4.6875 12.281 0 16.969 2.3438 2.3438 5.4141 3.5156 8.4844 3.5156z"/>
</svg>
