<?xml version="1.0" encoding="UTF-8"?>
<svg width="1200pt" height="1200pt" version="1.1" viewBox="0 0 1200 1200" xmlns="http://www.w3.org/2000/svg">
 <path d="m1149.2 553.69c-8.4375-11.062-19.875-18.75-33-22.5-6.5625-93.75-145.88-74.812-126.94 16.688l-71.062 60.938c-61.688-19.875-145.88 2.625-199.69 39-31.875-9.375-64.312-15.188-96.938-17.25 67.5-112.69 51.75-266.44-36.938-363.56l31.5-31.688c7.3125-7.3125 7.3125-19.125 0-26.438s-19.312-7.3125-26.625 0l-31.5 31.5c-52.875-46.688-118.5-73.875-188.62-78v-68.625h44.25c24.562-0.375 24.75-37.125 0-37.5h-126.19c-10.312 0-18.75 8.4375-18.75 18.75s8.4375 18.75 18.75 18.75h44.438v68.625c-345.19 26.25-403.5 499.5-76.688 610.12-32.812 38.812-82.125 91.125-41.812 140.25 14.062 16.5 22.125 40.125 22.125 64.688 0 15.375-3.1875 30.75-9.1875 44.062-12.562 27.75-2.625 60.562 23.062 75.938 78 48.75 215.81 46.5 343.88 46.312 94.125 0 203.06 1.6875 274.88-21.375 140.44-37.125 146.81-194.81 82.312-302.81 25.875-39.938 39.562-83.062 37.688-119.44l78.375-51.938c21.938 12.562 49.688 11.062 70.5-4.6875 16.5-12 25.312-31.688 25.312-51.375 0-13.688-4.125-27.375-13.125-38.438zm-1074.2-79.312c-0.375-243.56 298.31-367.31 470.25-195.19 0.1875 0.1875 0.1875 0.375 0.375 0.5625 92.812 90.375 107.06 244.69 32.438 349.88-106.31 4.6875-210.75 43.875-291.94 112.69-122.81-29.438-211.12-140.62-211.12-267.94zm1039.3 139.31c-10.5 7.875-24.938 7.125-34.5-1.875-6.375-6-15.938-6.9375-23.25-2.0625l-77.062 51c-6.1875-12.938-14.812-23.812-25.688-33.188l69.75-59.625c6.75-5.8125 8.625-15.562 4.3125-23.25-6-11.25-3-25.125 7.3125-33 12-9 29.062-6.75 38.062 5.0625 5.4375 7.125 6.9375 16.125 4.125 24.75-4.6875 12.188 6 26.062 18.938 24.75 25.688-2.625 39.188 32.438 18 47.438z"/>
 <path d="m435.41 585.78c17.406 17.262 43.781-9.1055 26.512-26.516l-92.613-92.613v-139.39c0-10.355-8.3945-18.75-18.75-18.75s-18.75 8.3945-18.75 18.75v147.15c0 4.9727 1.9766 9.7422 5.4922 13.258z"/>
</svg>
