<?xml version="1.0" encoding="UTF-8"?>
<svg width="1200pt" height="1200pt" version="1.1" viewBox="0 0 1200 1200" xmlns="http://www.w3.org/2000/svg">
 <path d="m437.68 232.31c-6.1875-19.312-8.0625-41.297-5.5781-62.859 2.1562-18.656 7.5938-37.125 16.406-53.391 9.0938-16.781 21.797-31.266 38.25-41.391 18.469-11.344 41.297-16.969 68.578-13.828 8.9531 1.0312 15.422 9.1406 14.391 18.094-0.23438 1.8281-0.70312 3.6094-1.4531 5.1562-2.4844 5.2031-4.4062 10.641-5.625 16.125-1.2188 5.3438-1.8281 11.062-1.8281 17.062 0 19.172 22.266 23.297 48.328 23.297 13.734 0 28.266-1.125 42-2.2031 13.078-1.0312 25.453-1.9688 35.953-1.9688 21.844 0 41.719 8.8594 56.109 23.109 14.484 14.344 23.484 34.078 23.484 55.781 0 6.4688-0.79688 12.797-2.2969 18.844 25.5 5.9062 42.562 21.656 51.234 40.312 4.1719 9 6.3281 18.75 6.4688 28.547s-1.7344 19.5-5.6719 28.359c-1.1719 2.7188-2.5781 5.2969-4.125 7.8281 19.125 3.0938 36.281 11.766 49.547 24.141 16.922 15.797 27.469 37.594 27.703 61.594 14.906 0.98438 28.406 7.125 38.531 16.594 11.344 10.594 18.422 25.312 18.422 41.531s-7.0312 30.891-18.422 41.531c-11.016 10.312-26.156 16.688-42.75 16.688h-0.70312l-247.82 575.16c-3.1406 7.3125-8.3438 13.219-14.859 17.344-6.3281 4.0312-13.875 6.2344-21.797 6.2344-7.9688 0-15.469-2.2031-21.797-6.2344-6.5625-4.125-11.719-10.078-14.859-17.344l-247.82-575.16h-0.70312c-16.594 0-31.734-6.375-42.75-16.688-11.344-10.594-18.422-25.312-18.422-41.531s7.0312-30.891 18.422-41.531c10.078-9.4219 23.625-15.562 38.531-16.594 0.23438-24.047 10.828-45.797 27.703-61.594 13.125-12.281 30.094-20.906 48.984-24.094-2.0156-3.1875-3.7969-6.5156-5.25-9.9375-3.8438-8.9531-5.7656-18.609-5.7656-28.219s1.9219-19.266 5.7656-28.219c8.8594-20.578 27.469-37.172 55.734-40.641zm-2.0156 403.22 14.203 32.906c3.5625 8.2969 13.172 12.141 21.469 8.5781s12.141-13.172 8.5781-21.469l-14.203-32.906c-3.5625-8.2969-13.172-12.141-21.469-8.5781s-12.141 13.172-8.5781 21.469zm37.5 87.047 1.3125 3c3.5625 8.2969 13.172 12.141 21.469 8.5781s12.141-13.172 8.5781-21.469l-1.3125-3c-3.5625-8.2969-13.172-12.141-21.469-8.5781s-12.141 13.172-8.5781 21.469zm24.656 57.188 74.906 173.86c3.5625 8.2969 13.172 12.141 21.469 8.5781s12.141-13.172 8.5781-21.469l-74.906-173.86c-3.5625-8.2969-13.172-12.141-21.469-8.5781s-12.141 13.172-8.5781 21.469zm251.06-515.02c-1.8281 2.2031-3.75 4.3594-5.7656 6.375-14.391 14.25-34.266 23.109-56.109 23.109-9.0469 0-16.359-7.3125-16.359-16.359s7.3125-16.359 16.359-16.359c12.938 0 24.703-5.2031 33.234-13.641 8.4375-8.3438 13.641-19.828 13.641-32.531s-5.25-24.188-13.641-32.531c-8.5312-8.3906-20.25-13.641-33.234-13.641-9.75 0-21.328 0.89062-33.562 1.8281-14.531 1.125-29.906 2.3438-44.391 2.3438-43.688 0-81.047-9.9844-81.047-56.062 0-8.1094 0.9375-16.125 2.6719-24-10.219 1.2656-19.172 4.5469-26.812 9.2344-11.25 6.8906-20.109 17.156-26.578 29.109-6.7969 12.562-11.016 26.906-12.703 41.484-2.4375 20.906 0.23438 41.953 7.7812 58.453h124.82c9.0469 0 16.359 7.3125 16.359 16.359s-7.3125 16.359-16.359 16.359h-148.22c-19.547 0-31.781 9.4219-36.984 21.516-2.0625 4.7812-3.0938 10.031-3.0938 15.281 0 5.2969 1.0312 10.5 3.0938 15.281 5.2031 12.094 17.484 21.516 36.984 21.516h28.734c9.0469 0 16.359 7.3125 16.359 16.359s-7.3125 16.359-16.359 16.359h-74.344c-16.781 0-31.969 6.375-42.938 16.594-10.406 9.7031-16.922 22.969-17.25 37.547h304.26c10.312 0 19.688 3.9844 26.578 10.406 7.2188 6.75 11.672 16.078 11.672 26.391v70.078c0 9.0938 3 17.156 7.875 22.828 4.2188 4.9688 9.9375 8.0625 16.031 8.0625v0.046875h0.1875c5.9531-0.046875 11.625-3.1406 15.891-8.1562 4.8281-5.625 7.8281-13.594 7.8281-22.453h0.046874l-0.046874-6.3281c0-0.28125-0.046876-0.60938-0.046876-0.89062v-0.65625s-0.42187-62.438-0.42187-62.438c-0.046876-5.1562 0.9375-9.9844 2.9062-14.484s4.8281-8.5312 8.5781-12.047c3.6562-3.4219 7.7812-6.0469 12.375-7.8281 4.5469-1.7812 9.3281-2.6719 14.297-2.6719h85.406c-0.28125-14.578-6.8438-27.844-17.25-37.547-10.969-10.219-26.156-16.594-42.938-16.594h-214.26c-9.0469 0-16.359-7.3125-16.359-16.359s7.3125-16.359 16.359-16.359h168.66c18.703 0 30.469-8.5781 35.438-19.734 2.0625-4.6406 3.0469-9.7031 2.9531-14.766-0.09375-5.1094-1.2656-10.312-3.5625-15.234-5.4375-11.766-17.672-21.375-36.984-23.391zm-434.11 243.79h338.26v-46.922c0-0.9375-0.46875-1.8281-1.1719-2.4844-1.0781-0.98438-2.5781-1.5938-4.3594-1.5938h-332.76c-8.0625 0-15.328 3.0469-20.531 7.875-4.875 4.5469-7.9219 10.781-7.9219 17.625 0 6.7969 3.0469 13.031 7.9219 17.625 5.2031 4.875 12.469 7.875 20.531 7.875zm450.98-46.828 0.32812 46.828h119.2c8.0625 0 15.328-3.0469 20.531-7.875 4.875-4.5469 7.9219-10.781 7.9219-17.625 0-6.7969-3.0469-13.031-7.9219-17.625-5.2031-4.875-12.469-7.875-20.531-7.875h-113.91c-1.0781 0-1.9219 0.14062-2.5781 0.375-0.60938 0.23438-1.1719 0.60938-1.7812 1.2188-0.51562 0.46875-0.84375 0.9375-1.0312 1.2656-0.14062 0.32812-0.23438 0.79688-0.23438 1.3125z" fill-rule="evenodd"/>
</svg>
