<?xml version="1.0" encoding="UTF-8"?>
<svg width="1200pt" height="1200pt" version="1.1" viewBox="0 0 1200 1200" xmlns="http://www.w3.org/2000/svg">
 <path d="m168 60c-6.6094 0-12 5.3906-12 12v120c0 39.75 32.25 72 72 72h744c39.75 0 72-32.25 72-72v-120c0-6.6094-5.3906-12-12-12z"/>
 <path d="m447.47 562.5c37.641-33.844 86.625-55.406 140.53-58.172v181.18c-20.719 5.3438-36 24.141-36 46.5 0 26.531 21.469 48 48 48s48-21.469 48-48c0-22.359-15.281-41.156-36-46.5v-181.18c53.906 2.7656 102.89 24.328 140.53 58.172l-53.016 53.016c-4.6875 4.6875-4.6875 12.281 0 16.969s12.281 4.6875 16.969 0l53.016-53.016c33.844 37.641 55.406 86.625 58.172 140.53h-83.672c-6.6094 0-12 5.3906-12 12s5.3906 12 12 12h83.672c-2.7656 53.906-24.328 102.89-58.172 140.53l-53.016-53.016c-4.6875-4.6875-12.281-4.6875-16.969 0s-4.6875 12.281 0 16.969l53.016 53.016c-37.641 33.844-86.625 55.406-140.53 58.172v-71.672c0-6.6094-5.3906-12-12-12s-12 5.3906-12 12v71.672c-53.906-2.7656-102.89-24.328-140.53-58.172l53.016-53.016c4.6875-4.6875 4.6875-12.281 0-16.969s-12.281-4.6875-16.969 0l-53.016 53.016c-33.844-37.641-55.406-86.625-58.172-140.53h83.672c6.6094 0 12-5.3906 12-12s-5.3906-12-12-12h-83.672c2.7656-53.906 24.328-102.89 58.172-140.53l53.016 53.016c4.6875 4.6875 12.281 4.6875 16.969 0s4.6875-12.281 0-16.969z"/>
 <path d="m552 288h96v62.859c196.08 23.719 348 190.69 348 393.14v348c0 26.531-21.469 48-48 48h-696c-26.531 0-48-21.469-48-48v-348c0-202.45 151.92-369.42 348-393.14zm312 444c0 145.78-118.22 264-264 264s-264-118.22-264-264 118.22-264 264-264 264 118.22 264 264z" fill-rule="evenodd"/>
</svg>
