<?xml version="1.0" encoding="UTF-8"?>
<svg width="1200pt" height="1200pt" version="1.1" viewBox="0 0 1200 1200" xmlns="http://www.w3.org/2000/svg">
 <path d="m600 528h6.1875c343.87-0.9375 499.08-40.219 533.81-60 0-67.219-57.938-84-86.906-84 6.2344-96-53.766-122.63-93.094-132-9.9375-86.391-95.156-110.02-136.55-108-34.781-57.609-99.328-54-130.36-42-21.656-31.406-57.469-39.984-86.906-41.672v-0.32812c-2.0156 0-4.0781 0.046875-6.1875 0.09375-2.1094-0.046875-4.1719-0.09375-6.1875-0.09375v0.32812c-29.438 1.6875-65.25 10.266-86.906 41.672-31.031-12-95.578-15.609-130.36 42-41.391-2.0156-126.61 21.609-136.55 108-39.328 9.375-99.328 36-93.094 132-28.969 0-86.906 16.781-86.906 84 34.734 19.781 189.94 59.062 533.81 60zm144-348c-6.6094 0-12 5.3906-12 12s5.3906 12 12 12c19.875 0 36 16.125 36 36s-16.125 36-36 36c-6.6094 0-12 5.3906-12 12s5.3906 12 12 12c33.141 0 60-26.859 60-60s-26.859-60-60-60zm-168 60c-6.6094 0-12 5.3906-12 12s5.3906 12 12 12c19.875 0 36 16.125 36 36s-16.125 36-36 36c-6.6094 0-12 5.3906-12 12s5.3906 12 12 12c33.141 0 60-26.859 60-60s-26.859-60-60-60zm276 96c0-6.6094 5.3906-12 12-12 33.141 0 60 26.859 60 60s-26.859 60-60 60c-6.6094 0-12-5.3906-12-12s5.3906-12 12-12c19.875 0 36-16.125 36-36s-16.125-36-36-36c-6.6094 0-12-5.3906-12-12zm-168 24c-6.6094 0-12 5.3906-12 12s5.3906 12 12 12c19.875 0 36 16.125 36 36s-16.125 36-36 36c-6.6094 0-12 5.3906-12 12s5.3906 12 12 12c33.141 0 60-26.859 60-60s-26.859-60-60-60z" fill-rule="evenodd"/>
 <path d="m1139.7 491.53c-55.453 42.422-212.72 72.469-539.72 72.469s-484.26-30.047-539.72-72.469c5.4375 227.26 91.453 418.13 323.72 488.02v88.453s24 72 216 72 216-72 216-72v-88.453c232.26-69.891 318.28-260.76 323.72-488.02z"/>
</svg>
