<?xml version="1.0" encoding="UTF-8"?>
<svg width="1200pt" height="1200pt" version="1.1" viewBox="0 0 1200 1200" xmlns="http://www.w3.org/2000/svg">
 <path d="m674.44 103.31c7.4531-25.641 30.938-43.312 57.656-43.312h215.9c6.6094 0 12 5.3906 12 12s-5.3906 12-12 12h-215.9c-16.031 0-30.141 10.594-34.594 25.969l-33.469 115.55 199.97 62.484-216 84-396-120 228-84 161.16 50.344z"/>
 <path d="m240 276 396 120v560.11l-396-113.16zm183.24 246.42c0.65625-2.25 1.4062-4.4531 2.25-6.6562 4.4062-11.156 11.578-20.953 21.703-31.922 4.5-4.875 12.094-5.1562 16.969-0.65625s5.1562 12.094 0.65625 16.969c-9.1875 9.9375-14.156 17.203-16.969 24.422-2.25 5.625-3.4219 11.812-3.75 20.109 16.266-7.2188 42.703-10.922 71.906 7.3125 48 30 50.062 96 16.031 144-3.375 4.7812-6.6094 9.5156-9.75 14.062-28.266 41.344-48.281 70.547-102.28 21.938-11.531 6-38.953 7.2188-56.297-36-21.703-54-53.25-150-7.5-168 1.875-0.75 3.75-1.3594 5.5781-1.9219-12.375-12.891-25.219-31.594-37.781-58.078 25.781 0 76.406 11.531 99.234 54.422z" fill-rule="evenodd"/>
 <path d="m240 867.89 396 113.16v158.95l-396-120z"/>
 <path d="m760.97 477.71-100.97-70.641v549.74l216-63.422v-581.39l-6.4688 2.5312-90.984 159.19c-2.0156 3.75-6 6.2812-10.547 6.2812-2.625 0-5.0625-0.84375-7.0312-2.2969z"/>
 <path d="m834 328.36-54 20.953v73.5z"/>
 <path d="m756 358.69-79.219 30.797 79.219 55.453z"/>
 <path d="m660 1140v-158.53l216-63.422v147.24z"/>
</svg>
