<?xml version="1.0" encoding="UTF-8"?>
<svg width="1200pt" height="1200pt" version="1.1" viewBox="0 0 1200 1200" xmlns="http://www.w3.org/2000/svg">
 <path d="m5.875 959.27c59.789 96.113 138.84 175.12 234.91 234.91 6.3555 3.9648 13.496 5.8477 20.598 5.8477 11.219 0 22.32-4.7461 29.934-13.77l218.51-257.66c15.418-18.203 19.773-43.348 11.379-65.672l-13.691-36.406c-12.945-34.367-3.2148-73.871 24.203-98.27l343.58-317.92 299.21-276.85c15.457-13.77 24.793-33.777 25.461-54.688 0.66797-21.066-7.1016-40.879-21.891-55.824l-0.98047-1.0195c-0.039062 0-0.039062 0-0.039062-0.039062-14.945-14.75-34.758-22.559-55.824-21.891-20.949 0.66797-40.914 10.043-54.844 25.656l-276.7 299.01-317.76 343.42c-24.598 27.578-64.102 37.309-98.469 24.402l-36.406-13.73c-22.324-8.3945-47.469-4-65.633 11.418l-257.7 218.47c-14.672 12.473-18.047 34.207-7.8477 50.605zm1107.6-884.13c0-3.0195 1.1758-5.8828 3.332-8.043 2.1953-2.1953 5.1016-3.2969 8.0039-3.2969 2.9414 0 5.8477 1.0977 8.043 3.2969 4.4336 4.4336 4.4336 11.652 0 16.082-2.1172 2.1562-4.9805 3.3359-8.0039 3.3359-3.0625 0-5.9258-1.1758-8.043-3.3359-2.1562-2.1562-3.332-5.0195-3.332-8.0391zm-1084.6 851.49 257.7-218.51c11.648-9.8867 27.812-12.672 42.133-7.2969l36.406 13.691c43.426 16.359 93.328 4.0391 124.16-30.559l309.29-334.28 51.707 51.664-334.44 309.45c-34.484 30.715-46.762 80.617-30.445 124.04l13.73 36.367c5.375 14.359 2.5898 30.48-7.2969 42.172l-218.51 257.66c-4.9805 5.8828-13.652 7.2188-20.164 3.1797-93.012-57.863-169.51-134.36-227.38-227.38-4.1562-6.668-2.8242-15.141 3.1016-20.203z"/>
 <path d="m165.1 996.64c-10.547 10.547-10.547 27.707 0 38.254 5.1094 5.1094 11.902 7.9219 19.129 7.9219 7.2266 0 14.02-2.8125 19.125-7.9219l163.82-163.82c5.1094-5.1094 7.9219-11.902 7.9219-19.125 0-7.2266-2.8125-14.02-7.9219-19.129-10.547-10.547-27.707-10.547-38.254 0zm16.648 16.645 163.82-163.82c0.68359-0.68359 1.5859-1.0273 2.4844-1.0273 0.89844 0 1.7969 0.34375 2.4844 1.0273 0.85156 0.85156 1.0273 1.8203 1.0273 2.4844 0 0.66406-0.17969 1.6328-1.0273 2.4805l-163.83 163.82c-0.85156 0.85156-1.8203 1.0273-2.4844 1.0273-0.66406 0-1.6328-0.17969-2.4844-1.0273-1.3672-1.3672-1.3672-3.5977 0.003906-4.9648z"/>
 <path d="m246.38 1074c-9.3711 11.602-7.5547 28.668 4.0508 38.039 4.8594 3.9219 10.785 6.0078 16.941 6.0078 0.96875 0 1.9375-0.050781 2.9141-0.15625 7.1836-0.76562 13.641-4.2812 18.18-9.9023l145.56-180.25c9.3711-11.602 7.5547-28.668-4.0508-38.039-5.6211-4.5391-12.676-6.6211-19.859-5.8516-7.1836 0.76562-13.641 4.2812-18.18 9.9023zm18.312 14.789 145.56-180.25c0.75781-0.9375 1.6992-1.2148 2.3594-1.2852 0.12109-0.011718 0.25-0.019531 0.39062-0.019531 0.625 0 1.4219 0.16016 2.1914 0.78125 0.93359 0.75391 1.2148 1.6992 1.2852 2.3594 0.070313 0.66016-0.003906 1.6406-0.75781 2.5781l-145.57 180.25c-0.75781 0.9375-1.6992 1.2148-2.3594 1.2852-0.66016 0.066407-1.6445-0.003906-2.5781-0.76172-1.5078-1.2148-1.7461-3.4297-0.52734-4.9375z"/>
 <path d="m82.074 929.72c-0.76562 7.1836 1.3125 14.238 5.8555 19.859 5.3359 6.6094 13.172 10.043 21.07 10.043 5.9688 0 11.977-1.9609 16.969-5.9922l180.25-145.56c5.6211-4.5391 9.1367-10.996 9.9023-18.18 0.76562-7.1836-1.3125-14.238-5.8555-19.859-9.3711-11.605-26.438-13.422-38.039-4.0508l-180.25 145.56c-5.6172 4.5391-9.1367 10.992-9.9023 18.18zm23.406 2.4922c0.070312-0.66016 0.35156-1.6055 1.2852-2.3594l180.25-145.56c0.76562-0.61719 1.5664-0.78125 2.1875-0.78125 0.14062 0 0.26953 0.007813 0.39062 0.019532 0.66016 0.070312 1.6055 0.35156 2.3594 1.2852 0.75391 0.9375 0.83203 1.918 0.76172 2.5781-0.070313 0.66016-0.35156 1.6055-1.2852 2.3594l-180.25 145.56c-1.5039 1.2188-3.7227 0.98047-4.9375-0.52344-0.75781-0.9375-0.83203-1.918-0.76172-2.5781z"/>
</svg>
