<?xml version="1.0" encoding="UTF-8"?>
<svg width="1200pt" height="1200pt" version="1.1" viewBox="0 0 1200 1200" xmlns="http://www.w3.org/2000/svg">
 <path d="m702.24 250.74c45.141-2.0625 82.547 1.0312 112.22 9.2344 42 11.625 69.188 33.422 81.656 65.438 3.2344 8.3906-0.9375 17.859-9.3281 21.094-3.2344 1.2656-6.6562 1.4062-9.7969 0.60938-14.859-3.6562-30.141-6.6094-45.516-8.2969 59.109 32.109 109.83 76.172 148.4 128.58 50.859 69.141 80.625 152.76 80.625 242.9 0 118.88-51.703 226.4-135.32 304.22-83.297 77.531-198.28 125.48-325.22 125.48-126.89 0-241.87-47.953-325.22-125.48-83.625-77.812-135.32-185.34-135.32-304.22 0-81 24.047-156.79 65.859-221.53 35.906-55.594 84.938-102.94 143.11-138.42-2.8594-0.5625-5.8125-1.0781-8.9531-1.6406-21.984-4.0312-49.359-9.0938-83.531-18.938-8.6719-2.4844-13.641-11.484-11.203-20.156 1.5938-5.5312 5.8125-9.5625 10.922-11.109 70.172-21.422 129.71-34.594 179.34-38.391 43.641-3.3281 80.062 0.51562 109.69 12.281 19.125-38.766 41.391-72.656 66.75-101.77 45.891-52.641 101.81-89.297 167.68-109.92v0.046875c2.9531-0.9375 6.1875-1.0312 9.375-0.09375 29.672 8.625 45.703 24.469 54.609 47.438 7.875 20.344 9.1875 45.281 9.7969 75.891 0.09375 1.2188 0.046875 2.4844-0.1875 3.75-1.4531 8.9062-9.8438 14.953-18.75 13.5-37.547-6.1875-75.188 5.0625-112.97 33.797-6.2344 4.7344-12.469 9.9844-18.75 15.656zm-102.23 782.26c-29.109 0-57.328-3.3281-84.141-9.5625-27.703-6.4219-54.094-15.984-78.75-28.219-8.1094-3.9844-17.859-0.65625-21.844 7.4062-3.9844 8.1094-0.65625 17.859 7.4062 21.844 26.859 13.359 55.641 23.766 85.875 30.797 29.344 6.7969 60 10.453 91.453 10.453 9.0469 0 16.359-7.3125 16.359-16.359s-7.3125-16.359-16.359-16.359zm-218.39-72.141-1.5-1.1719c-1.4531-1.125-0.84375-0.60938-1.4531-1.0781-7.125-5.5312-17.391-4.1719-22.875 2.9531-5.5312 7.125-4.1719 17.391 2.9531 22.875 1.5938 1.2656 1.0781 0.84375 1.5469 1.2188l1.5 1.1719c7.1719 5.4844 17.391 4.125 22.875-3.0938 5.4844-7.1719 4.125-17.391-3.0938-22.875zm-50.906-47.625c-24.188-27.938-43.453-59.719-56.531-94.219-12.562-33.141-19.406-68.859-19.406-106.12 0-9.0469-7.3125-16.359-16.359-16.359-9.0469 0-16.359 7.3125-16.359 16.359 0 41.203 7.5938 80.766 21.562 117.66 14.438 38.109 35.719 73.219 62.391 104.06 5.9062 6.7969 16.219 7.5469 23.016 1.6875 6.7969-5.9062 7.5469-16.219 1.6875-23.016zm428.63-571.55c-23.766 5.25-47.062 15.562-68.812 32.812 35.297 21 61.594 43.078 78.891 66.281 21.891 29.344 29.766 60.281 23.625 92.906-1.5469 8.25-9.0469 13.875-17.25 13.266-31.312-0.70312-63.703-6.4688-97.172-17.391-26.203-8.5312-53.109-20.203-80.719-35.016-1.2188 12.469-3.2812 25.359-6.1406 38.625-4.9688 23.016-12.328 47.297-22.078 72.797-3.2344 8.4375-12.656 12.656-21.094 9.4688-1.4062-0.5625-2.7188-1.2656-3.8906-2.1094-22.125-13.875-41.156-31.922-57.141-54.047-10.781-14.953-20.156-31.781-28.078-50.438-12.141 12.094-27 21.656-44.625 28.641-27 10.734-60.328 15.281-99.984 13.641-9-0.32812-16.031-7.9219-15.656-16.922 0.09375-1.6875 0.375-3.3281 0.9375-4.875 11.578-37.922 27.609-72.516 46.453-99.328 15.609-22.172 33.375-39.375 52.641-49.406-1.6875-7.0781-4.7344-12.234-9.375-16.172-64.688 33.891-118.92 83.016-157.13 142.08-38.484 59.578-60.609 129.32-60.609 203.86 0 109.41 47.719 208.55 124.87 280.31 77.438 72.094 184.55 116.67 302.95 116.67s225.52-44.578 302.95-116.67c77.156-71.766 124.87-170.9 124.87-280.31 0-82.922-27.375-159.94-74.25-223.6-47.531-64.594-115.03-115.5-194.26-144.98z" fill-rule="evenodd"/>
</svg>
