<?xml version="1.0" encoding="UTF-8"?>
<svg width="1200pt" height="1200pt" version="1.1" viewBox="0 0 1200 1200" xmlns="http://www.w3.org/2000/svg">
 <path d="m738.38 629.81 13.312-10.688c-6 1.3125-10.875 5.25-13.312 10.688zm0 0 13.312-10.688c-6 1.3125-10.875 5.25-13.312 10.688zm0 0 13.312-10.688c-6 1.3125-10.875 5.25-13.312 10.688z"/>
 <path d="m1158.6 315.38-72.188-93.375c-3.1875-3.9375-7.6875-6.5625-12.75-7.125-4.875-0.5625-9.9375 0.9375-13.875 3.9375l-188.62 152.25v-157.31c0-10.5-8.25-18.75-18.75-18.75h-78.188v-120c0-10.312-8.4375-18.75-18.75-18.75h-543.75c-96 0-174.19 79.5-174.19 177.19v812.25c0 4.6875 1.875 9 4.6875 12.188 14.062 50.25 59.062 85.875 111.19 85.875h699c10.5 0 18.75-8.4375 18.75-18.75v-554.25l284.44-229.31c7.875-6.375 9.1875-18 3-26.062zm-384.38-82.875h59.438v168.75l-59.438 48zm-422.81-15.938c30-41.438 98.438-41.438 128.25 0 13.688-9.75 30-15 47.062-15 78.188-0.75 111.75 104.44 50.062 151.69-3.5625 61.312-12 203.06-15.562 263.06-0.5625 9.9375-8.625 17.625-18.562 17.625h-254.25c-9.75 0-18-7.6875-18.562-17.625l-5.8125-98.625v-0.1875l-9.75-164.25c-81.938-67.688 6.5625-196.69 97.125-136.69zm180.56 540.94h-232.88c-10.5 0-18.75-8.4375-18.75-18.75 0-10.5 8.25-18.75 18.75-18.75h232.88c24.75 0.375 24.75 37.125 0 37.5zm0 79.125h-232.88c-10.5 0-18.75-8.4375-18.75-18.75s8.25-18.75 18.75-18.75h232.88c24.75 0.375 24.75 37.125 0 37.5zm301.69 269.62h-680.25c-69.188 0.75-104.44-88.5-55.5-137.25 15-15 34.688-23.438 55.5-23.438h602.06c10.312 0 18.75-8.25 18.75-18.75v-277.69l59.438-48zm-81.938-487.12-13.312 10.688-12.75 10.312-65.812 1.5 17.062-65.625 391.5-315.94 49.312 63.75z"/>
 <path d="m549 327c-5.4375 3-8.8125 8.625-9.1875 14.812l-9.1875 156h-230.25l-9.1875-156c-0.375-6.1875-3.75-11.625-9-14.812-14.25-8.625-22.688-23.812-22.688-40.875 0-26.062 20.062-47.062 44.812-47.062 14.25 0 27.75 7.125 36 19.125 8.0625 12.562 29.062 9.5625 33.375-4.6875 12.562-40.688 71.062-40.688 83.812 0 4.125 14.25 24.938 17.25 33.188 4.6875 47.438-58.5 117.94 28.312 58.312 68.812z"/>
</svg>
