<?xml version="1.0" encoding="UTF-8"?>
<svg width="1200pt" height="1200pt" version="1.1" viewBox="0 0 1200 1200" xmlns="http://www.w3.org/2000/svg">
 <path d="m769.6 324.66c-25.312 5.625-50.062 16.547-73.219 34.922 37.594 22.359 65.578 45.844 84 70.547 23.297 31.219 31.688 64.172 25.172 98.859-1.6406 8.7656-9.6562 14.766-18.328 14.156-33.328-0.75-67.781-6.8906-103.41-18.562-27.891-9.0938-56.531-21.516-85.922-37.266-1.3125 13.266-3.4688 27-6.5156 41.109-5.2969 24.516-13.125 50.344-23.531 77.484-3.4219 8.9531-13.453 13.5-22.453 10.078-1.5-0.5625-2.8594-1.3125-4.125-2.25-23.531-14.766-43.781-33.938-60.797-57.516-11.484-15.938-21.469-33.844-29.906-53.719-12.891 12.891-28.734 23.016-47.484 30.469-28.734 11.438-64.219 16.266-106.45 14.531-9.5625-0.375-17.062-8.4375-16.688-18.047 0.09375-1.8281 0.42188-3.5625 0.98438-5.1562 12.328-40.359 29.391-77.156 49.453-105.75 16.594-23.625 35.531-41.906 56.016-52.594-1.7812-7.5469-5.0625-13.031-9.9844-17.203-68.859 36.094-126.61 88.359-167.26 151.22-40.969 63.375-64.547 137.68-64.547 217.03 0 116.48 50.766 221.95 132.89 298.36 82.453 76.734 196.45 124.18 322.45 124.18 126.05 0 240.05-47.438 322.45-124.18 82.125-76.406 132.89-181.92 132.89-298.36 0-88.312-29.156-170.26-79.031-238.03-50.625-68.766-122.44-122.95-206.76-154.36zm-118.78-86.766c-26.672 30.609-53.109 68.297-79.266 113.16-4.8281 8.2969-2.0625 18.984 6.2812 23.812 8.2969 4.8281 18.984 2.0625 23.812-6.2812 23.859-40.828 47.672-75.281 71.438-103.31 61.641-5.9531 110.3-3.9844 145.97 5.9062 15.047 4.1719 27.609 9.7031 37.688 16.688-26.016-3.375-52.641-3.9844-78.984-0.046875-43.266 6.4688-85.547 24.984-123.32 62.766-6.75 6.7969-6.75 17.812 0.09375 24.562 1.4531 1.4531 3.0938 2.5781 4.8281 3.375 43.406 23.25 74.484 47.391 93.188 72.422 13.734 18.422 20.531 37.312 20.391 56.766-25.125-1.9219-51.234-7.3125-78.328-16.172-33.188-10.828-67.781-26.859-103.69-48.094-8.25-4.875-18.938-2.1562-23.812 6.1406-1.8281 3.0938-2.5781 6.5625-2.3906 9.8906-0.14063 19.031-2.5781 39.609-7.3125 61.734-3.5156 16.266-8.2969 33.328-14.344 51.188-12.75-10.266-24.234-22.453-34.312-36.469-14.859-20.578-26.906-45.281-36.141-74.109-2.9062-9.1406-12.703-14.156-21.844-11.25-4.2656 1.3594-7.6406 4.2188-9.7031 7.8281-11.109 19.172-27.984 33.281-50.625 42.281-18.938 7.5-41.906 11.625-69 12.281 10.312-28.312 23.062-53.859 37.594-74.438 16.078-22.828 33.891-39.141 52.172-45.516 7.4531-2.625 12-9.75 11.625-17.297-3.1406-61.172-30.188-66.141-93.656-77.812-6.7031-1.2188-13.875-2.5312-21.516-4.0312 45-11.484 84.75-18.703 119.53-21.375 40.359-3.0938 73.453 0.046875 99.609 10.031-10.172 23.766-19.359 49.078-27.562 75.844-2.8125 9.1875 2.3438 18.891 11.484 21.703 9.1875 2.8125 18.891-2.3438 21.703-11.484 9.5625-31.172 20.438-60.094 32.672-86.812 0.23437-0.42188 0.42187-0.89062 0.60937-1.3594 20.531-44.531 44.812-82.875 72.797-115.03 43.359-49.734 95.859-84.703 157.6-105.05 16.453 5.8594 25.5 15.234 30.516 28.125 4.9688 12.844 6.7969 29.766 7.5938 50.203-42.609-1.6875-84.609 13.219-126.14 44.766-18.75 14.25-37.406 31.969-55.922 53.062l-1.125 1.2656zm-337.5 695.16c6.2812 7.2656 5.4844 18.234-1.7812 24.469-7.2656 6.2812-18.234 5.4844-24.469-1.7812-28.406-32.812-51.047-70.172-66.422-110.77-14.859-39.234-22.922-81.375-22.922-125.26 0-9.6094 7.7812-17.438 17.438-17.438 9.6094 0 17.438 7.7812 17.438 17.438 0 39.656 7.2656 77.719 20.625 112.97 13.922 36.703 34.406 70.547 60.188 100.27zm54.234 50.672c7.6406 5.8125 9.0938 16.734 3.2812 24.375-5.8125 7.6406-16.734 9.0938-24.375 3.2812l-1.5938-1.2188c-0.51562-0.375 0.046875 0.046876-1.6875-1.3125-7.5938-5.8594-9-16.781-3.1406-24.375s16.781-9 24.375-3.1406c0.65625 0.51562-0.046875-0.046876 1.5469 1.1719zm232.45 76.781c9.6094 0 17.438 7.7812 17.438 17.438 0 9.6094-7.7812 17.438-17.438 17.438-33.469 0-66.094-3.8438-97.312-11.109-32.203-7.4531-62.859-18.562-91.406-32.766-8.625-4.2656-12.141-14.672-7.875-23.25 4.2656-8.625 14.672-12.141 23.25-7.875 26.203 13.031 54.328 23.203 83.812 30.047 28.594 6.6562 58.594 10.172 89.578 10.172z" fill-rule="evenodd"/>
</svg>
