<?xml version="1.0" encoding="UTF-8"?>
<svg width="1200pt" height="1200pt" version="1.1" viewBox="0 0 1200 1200" xmlns="http://www.w3.org/2000/svg">
 <path d="m165.61 1023.8c4.3594 7.9219 9.75 15.656 16.453 22.547 13.875 14.203 33.844 24.609 62.297 24.609h425.21c17.156 0 31.172-7.6406 41.203-19.125 12.141-13.922 18.797-33.281 18.797-52.031v-370.36h0.046876c0-5.8125 2.9062-11.484 8.25-14.766 25.734-15.844 46.781-36.422 61.219-60.141 13.594-22.359 21.234-47.578 21.234-74.297 0-25.641-18.891-54.844-46.266-81.891-4.5938-4.5469-9.4219-9.0469-14.438-13.406 4.3125 12.844 6.6094 26.531 6.6094 41.062 0 31.922-9.1406 62.109-25.406 88.828-14.953 24.609-36 46.219-61.453 63.422v378.61c0 18.938-7.7344 36.141-20.203 48.562-12.469 12.469-29.672 20.203-48.562 20.203l-429.79-0.14062c-5.2031 0-10.312-0.60938-15.188-1.6875zm486.61-704.63c48.281 26.062 79.125 61.688 79.125 106.73 0 25.406-7.2656 49.453-20.25 70.734-13.734 22.594-33.844 42.234-58.359 57.328-5.2969 3.2812-8.25 8.9531-8.25 14.766h-0.046876v387.98c0 9.3281-3.8438 17.812-9.9844 23.953-6.1406 6.1406-14.625 9.9844-23.953 9.9844h-429.71c-9.3281 0-17.812-3.8438-23.953-9.9844-6.1406-6.1406-9.9844-14.625-9.9844-23.953v-387.98c0-6.7969-3.8906-12.703-9.5625-15.562-23.953-15-43.594-34.359-57.094-56.578-12.938-21.281-20.25-45.328-20.25-70.734 0-74.953 85.359-123.84 194.68-146.02 44.203-8.9531 92.484-13.453 141.05-13.453 48.516 0 96.797 4.5 141.05 13.453 42.188 8.5781 80.766 21.094 112.31 37.594 0.98438 0.65625 2.0625 1.2656 3.2344 1.7344zm-429.28 114.7c-6.7969-6.7969-6.7969-17.812 0-24.656 6.7969-6.7969 17.812-6.7969 24.656 0l9.5156 9.5156c6.7969 6.7969 6.7969 17.812 0 24.656-6.7969 6.7969-17.812 6.7969-24.656 0zm206.44-78.891c0-9.6094 7.7812-17.438 17.438-17.438 9.6094 0 17.438 7.7812 17.438 17.438v16.641c0 9.6094-7.7812 17.438-17.438 17.438-9.6094 0-17.438-7.7812-17.438-17.438zm162 75.656c6.7969-6.7969 17.812-6.7969 24.656 0 6.7969 6.7969 6.7969 17.812 0 24.656l-17.812 17.812c-6.7969 6.7969-17.812 6.7969-24.656 0-6.7969-6.7969-6.7969-17.812 0-24.656zm-258.56 120.84c-8.7656-3.8906-12.703-14.109-8.8594-22.875 3.8906-8.7656 14.109-12.703 22.875-8.8594l42.797 19.031c8.7656 3.8906 12.703 14.109 8.8594 22.875-3.8906 8.7656-14.109 12.703-22.875 8.8594zm-117.38 55.453c0-9.6094 7.7812-17.438 17.438-17.438 9.6094 0 17.438 7.7812 17.438 17.438v19.031c0 9.6094-7.7812 17.438-17.438 17.438-9.6094 0-17.438-7.7812-17.438-17.438zm259.87 50.719c-9.6094 0-17.438-7.7812-17.438-17.438 0-9.6094 7.7812-17.438 17.438-17.438h14.25c9.6094 0 17.438 7.7812 17.438 17.438 0 9.6094-7.7812 17.438-17.438 17.438zm289.08 197.39v-216.28c26.672-17.953 48.703-40.5 64.359-66.234 16.922-27.797 26.438-59.203 26.438-92.391 0-35.906-23.156-73.547-56.625-106.64-37.219-36.844-88.172-68.953-133.13-86.344-34.781-18.281-76.547-32.062-121.92-41.25-38.156-7.7344-78.797-12.328-119.77-13.781 58.266-51.141 161.95-85.406 268.74-97.828 60.281-7.0312 121.31-6.9844 175.6 1.0312 53.109 7.8281 99.375 23.156 131.53 46.781 25.125 18.516 41.391 42.281 44.812 71.719 2.9531 25.266-1.5 50.016-11.906 72.703-11.016 24-28.688 45.797-51.281 63.656-4.875 3.8438-7.125 9.7969-6.4688 15.562h-0.046875l44.906 385.4c1.0781 9.3281-1.7344 18.234-7.125 25.031s-13.359 11.578-22.641 12.656l-225.47 26.297zm0 80.766v-45.797l229.45-26.766c18.797-2.2031 34.969-11.859 45.891-25.734 10.922-13.828 16.641-31.781 14.438-50.484l-43.828-376.08c23.297-20.062 41.719-43.922 53.766-70.172 13.031-28.359 18.609-59.391 14.906-91.078-1.6875-14.438-5.5781-27.844-11.391-40.172 5.5312 3.7969 10.875 7.6875 16.031 11.719 30.281 23.719 52.453 50.531 55.406 75.984 3.0938 26.578-1.5938 52.547-12.516 76.359-11.578 25.172-30.094 48.047-53.812 66.797-4.875 3.8438-7.125 9.7969-6.4688 15.562h-0.046876l42.797 367.08c0.046874 0.5625 0.09375 1.1719 0.1875 1.7344 1.8281 17.344-1.9688 35.719-11.016 50.344-8.625 13.969-22.219 24.375-40.406 26.484zm3.9844-706.97 1.9219 16.547c1.0781 9.5625 9.7031 16.406 19.266 15.328s16.406-9.7031 15.328-19.266l-1.9219-16.547c-1.0781-9.5625-9.7031-16.406-19.266-15.328s-16.406 9.7031-15.328 19.266zm137.58 45.891-15.656 19.781c-5.9531 7.5-4.6406 18.422 2.8594 24.375s18.422 4.6406 24.375-2.8594l15.656-19.781c5.9531-7.5 4.6406-18.422-2.8594-24.375s-18.422-4.6406-24.375 2.8594zm-276.94-66.281-7.1719 7.1719c-6.7969 6.7969-6.7969 17.812 0 24.656 6.7969 6.7969 17.812 6.7969 24.656 0l7.1719-7.1719c6.7969-6.7969 6.7969-17.812 0-24.656-6.7969-6.7969-17.812-6.7969-24.656 0zm249.28 343.87 6.2812 6.2812c6.7969 6.7969 17.812 6.7969 24.656 0 6.7969-6.7969 6.7969-17.812 0-24.656l-6.2812-6.2812c-6.7969-6.7969-17.812-6.7969-24.656 0-6.7969 6.7969-6.7969 17.812 0 24.656z" fill-rule="evenodd"/>
</svg>
