<?xml version="1.0" encoding="UTF-8"?>
<svg width="1200pt" height="1200pt" version="1.1" viewBox="0 0 1200 1200" xmlns="http://www.w3.org/2000/svg">
 <path d="m1145.8 62.438c-234.19-25.312-360 34.312-395.81 55.125-35.812-20.812-161.62-80.625-395.81-55.125-9.375 0.9375-16.688 9-16.688 18.562v88.688c-74.625 9.5625-117.56 74.25-110.62 148.12-9.75-0.75-19.125 5.25-21 15.188l-23.625 118.12c-10.875 54.938-45.375 101.81-94.688 128.62-5.4375 3-9.1875 8.625-9.5625 15l-40.312 497.62c-2.4375 26.812 20.438 52.125 47.625 51.375h533.44c27.188 0.5625 50.438-24.562 47.812-51.75l-34.688-425.44c45.938 14.25 81 34.312 104.44 59.812 7.5 7.875 19.875 7.875 27.562 0 83.438-90 287.62-89.812 378-82.312 10.688 1.3125 21-7.875 20.625-18.75v-544.31c0-9.5625-7.125-17.625-16.688-18.562zm-881.44 231.56c0-48.375 39.375-87.75 89.25-87.75 46.688 0 87.375 41.25 86.25 87.75v23.812h-175.5zm255.56 575.25c0 92.625-75.188 168-167.81 168s-168-75.375-168-168v-63.938c0-10.312 8.4375-18.75 18.75-18.75h298.31c10.312 0 18.75 8.4375 18.75 18.75zm211.31-196.69c-27.375-19.312-61.688-34.875-102.56-46.125-2.625-17.062 1.6875-39.938-12.188-46.688-49.312-26.812-83.625-73.875-94.5-128.62l-23.625-118.12c-1.875-9.9375-11.25-16.125-21-15.188 6.5625-69.75-30.938-132.94-102.38-146.81v-72.938c211.88-19.688 326.62 35.25 356.25 52.125z"/>
 <path d="m482.44 824.06v45.188c-6.5625 173.06-254.25 172.69-260.81 0v-45.188z"/>
</svg>
