<?xml version="1.0" encoding="UTF-8"?>
<svg width="1200pt" height="1200pt" version="1.1" viewBox="0 0 1200 1200" xmlns="http://www.w3.org/2000/svg">
 <path d="m778.03 546.94c-48.047 40.594-110.2 65.062-178.03 65.062s-129.98-24.469-178.03-65.062c-20.625 21.609-45.797 38.812-73.969 50.109-24.094 9.6562-50.438 14.953-78 14.953-115.97 0-210-94.031-210-210s94.031-210 210-210c30.047 0 58.688 6.3281 84.516 17.719 45.844-88.922 138.56-149.72 245.48-149.72s199.64 60.797 245.48 149.72c25.828-11.391 54.422-17.719 84.516-17.719 115.97 0 210 94.031 210 210s-94.031 210-210 210c-27.797 0-54.328-5.3906-78.609-15.188-27.938-11.297-52.922-28.453-73.359-49.875z"/>
 <path d="m600 648c65.203 0 125.81-20.016 175.87-54.281 22.453 18.094 48.188 32.297 76.125 41.672v415.5c0 118.83-504 118.83-504 0v-415.5c27.938-9.375 53.672-23.578 76.125-41.672 50.062 34.266 110.67 54.281 175.87 54.281zm12 84v336h-24v-336zm-180-36h-24v336h24zm336 0h24v336h-24z" fill-rule="evenodd"/>
</svg>
