<?xml version="1.0" encoding="UTF-8"?>
<svg width="1200pt" height="1200pt" version="1.1" viewBox="0 0 1200 1200" xmlns="http://www.w3.org/2000/svg">
 <path d="m600.02 206.03c-325.27 0-600.02 71.215-600.02 155.48v1.2109c0.039062 0.20312 0.039062 0.44531 0.039062 0.6875 0.042969 0.20312 0.042969 0.44531 0.042969 0.72656v0.039063c2.75 39.121 67.172 78.004 176.74 106.7 113.53 29.707 263.84 46.074 423.2 46.074 159.32 0 309.63-16.367 423.16-46.074 11.316-2.9492 22.148-6.0234 32.453-9.2148 3.7578-1.1328 7.4375-2.3047 11.074-3.4766l4.3633-1.4531c5.0938-1.6992 10.066-3.3945 14.914-5.1719 4-1.4531 7.9609-2.9102 11.762-4.4062 4.9336-1.8984 9.6992-3.8398 14.27-5.8203 0.039063 0 0.082031 0 0.12109-0.039063 4.9336-2.1016 9.6992-4.2422 14.227-6.4258 0.042968 0 0.082031-0.039062 0.12109-0.039062 3.3945-1.6562 6.7109-3.2734 9.8633-4.8906 1.0898-0.56641 2.1406-1.0898 3.1523-1.6562 9.375-5.0117 17.781-10.145 25.059-15.359 1.6172-1.1328 3.1914-2.3047 4.7266-3.4766 0.039063-0.039062 0.082032-0.082031 0.16016-0.12109 1.4531-1.1328 2.8281-2.2227 4.2031-3.3945 0.72656-0.60547 1.4922-1.2539 2.2227-1.8984 1.9805-1.7383 3.8398-3.4766 5.5781-5.2148 0.60547-0.64844 1.2539-1.2539 1.8594-1.8984 1.0898-1.1328 2.1445-2.3047 3.0742-3.4766 6.1836-7.2344 10.305-14.551 12.246-21.945 0.44531-1.6172 0.76953-3.2344 1.0117-4.8516 0.082031-0.80859 0.20312-1.6562 0.24219-2.4648v-0.16016l0.11328-2.6289c-0.24219-84.227-274.91-155.36-599.98-155.36z"/>
 <path d="m1194.2 402.49c-3.0312 3.4375-6.4688 6.7891-10.266 10.105-1.2109 1.0898-2.4648 2.1836-3.8008 3.2344-2.5469 2.0625-5.2148 4.1211-8.043 6.1445-0.88672 0.64453-1.7773 1.293-2.668 1.8984-3.6797 2.5859-7.6016 5.0938-11.719 7.5977-0.92969 0.56641-1.8594 1.1328-2.7891 1.6562-6.1836 3.6367-12.812 7.2344-19.926 10.711-1.2148 0.56641-2.3828 1.1719-3.5977 1.7383-13.254 6.3438-28.047 12.449-44.176 18.188-2.9492 1.0508-5.9023 2.1016-8.9336 3.1523-1.4922 0.52734-3.0312 1.0117-4.5664 1.5352-6.0195 2.0195-12.246 4-18.633 5.9023-1.6953 0.52734-3.3945 1.0117-5.1328 1.5352-3.2734 0.96875-6.5859 1.8984-9.9414 2.8711-3.3555 0.92969-6.7891 1.8984-10.227 2.7891-3.0312 0.80859-6.0625 1.6172-9.1328 2.4258-3.9609 1.0117-7.9609 2.0195-12.004 2.9922-10.348 2.5039-21.016 4.9297-32.008 7.2734-11.922 2.5078-24.168 4.9297-36.777 7.1953-4.043 0.72656-8.1211 1.457-12.207 2.1406-7.5977 1.293-15.316 2.5469-23.16 3.7578-1.2109 0.20312-2.4648 0.40625-3.7188 0.60547-16.086 2.4258-32.613 4.6875-49.59 6.75-4.7695 0.56641-9.5781 1.1328-14.469 1.6953-3.1523 0.36328-6.3828 0.6875-9.5781 1.0508-2.8711 0.32422-5.7383 0.60547-8.6094 0.89062-7.1523 0.72656-14.348 1.4531-21.621 2.1016-9.9844 0.92969-20.086 1.7383-30.312 2.5078-4.8086 0.36328-9.6602 0.72656-14.512 1.0508-3.8398 0.28125-7.6797 0.52344-11.559 0.76953-2.2227 0.16016-4.4844 0.28125-6.7891 0.40625-4.2812 0.28125-8.6094 0.52344-12.934 0.72656-39 2.1016-79.379 3.1914-120.8 3.1914s-81.805-1.0898-120.8-3.1914c-4.3633-0.20312-8.6875-0.44531-12.973-0.72656-2.1406-0.12109-4.3242-0.24219-6.4688-0.40625-4-0.24219-7.9219-0.48437-11.883-0.76953-4.8477-0.32422-9.6562-0.6875-14.469-1.0508-10.227-0.72656-20.293-1.5781-30.273-2.5078-7.1523-0.64453-14.27-1.332-21.258-2.0625-1.0508-0.082032-2.1055-0.20313-3.1523-0.32422-2.1406-0.20312-4.2422-0.44531-6.3438-0.64844-3.0742-0.36328-6.1055-0.6875-9.1367-1.0117-4.8477-0.56641-9.6562-1.0898-14.43-1.6953-6.5469-0.76953-13.098-1.6172-19.52-2.4648-6.4258-0.89062-12.812-1.7773-19.117-2.668-3.6797-0.52344-7.3555-1.0898-10.992-1.6172-1.375-0.20312-2.7461-0.44531-4.1211-0.64844-3.4766-0.56641-6.9102-1.0898-10.305-1.6562-4.1602-0.6875-8.3242-1.375-12.449-2.0625-4.082-0.6875-8.1641-1.4141-12.207-2.1406-16.168-2.9102-31.766-6.0625-46.762-9.375-7.4766-1.6172-14.832-3.3555-22.027-5.0938-4.2852-1.0508-8.5273-2.1016-12.648-3.1914-2.8711-0.72656-5.6992-1.457-8.4883-2.2227-3.4766-0.92969-6.8711-1.8594-10.223-2.7891-3.3555-0.92969-6.668-1.8984-9.9414-2.8711-3.2734-0.96875-6.5469-1.9414-9.7031-2.9492-4.8086-1.4531-9.457-2.9492-14.062-4.4844-1.5391-0.52734-3.0742-1.0508-4.5703-1.5352-3.0312-1.0508-5.9805-2.1016-8.9336-3.1523-16.125-5.7383-30.918-11.844-44.176-18.188-1.1719-0.56641-2.3828-1.1719-3.5547-1.7383-3.5547-1.7383-7.0312-3.5156-10.348-5.293-1.8984-1.0117-3.7188-2.0195-5.5352-3.0703-1.3711-0.77344-2.7422-1.543-4.0781-2.3516-0.92969-0.52734-1.8594-1.0898-2.7891-1.6562-4.1211-2.5039-8.043-5.0117-11.719-7.5977-0.89063-0.60547-1.7773-1.2539-2.668-1.8984-2.8281-2.0195-5.4961-4.082-8.043-6.1445-1.375-1.1328-2.707-2.2617-4.0039-3.3945-1.4961-1.332-2.9492-2.625-4.3242-3.9609-1.0117-0.96875-1.9805-1.9414-2.9492-2.9492-1.2148-1.2539-2.4258-2.5469-3.5547-3.8398-0.89062-1.0508-1.7812-2.1016-2.6289-3.1523 8.4883 94.09 46.926 339.66 218.17 436.74 41.871 23.723 84.914 43.973 127.96 60.18 147.04 55.371 249.93 46.844 250.95 46.723 0.36328-0.039063 0.72656-0.039063 1.0898 0 1.0508 0.12109 103.95 8.6484 250.95-46.723 42.961-16.168 86.004-36.414 127.92-60.18 171.29-97.078 209.68-342.65 218.21-436.74-0.72656 0.92969-1.4922 1.8594-2.3047 2.7461-0.35938 0.40625-0.72656 0.80859-1.0898 1.2148z"/>
 <path d="m827.85 916.75c-2.4258 0.84766-4.8516 1.6562-7.2344 2.4258-3.2344 1.0508-6.4688 2.1016-9.6602 3.0703-3.5977 1.1328-7.1523 2.2227-10.672 3.2734-1.7383 0.52734-3.4336 1.0508-5.1328 1.5352-3.1914 0.92969-6.3477 1.8203-9.5 2.707-0.40625 0.12109-0.76953 0.20313-1.1328 0.32422-6.6289 1.8594-13.176 3.5547-19.48 5.0938-7.5586 1.8984-14.914 3.5977-22.027 5.1719-2.5469 0.52344-5.0508 1.0508-7.5586 1.5742-2.668 0.56641-5.293 1.0898-7.8789 1.5781-2.5859 0.52344-5.1328 1.0117-7.6797 1.4531-2.5078 0.48438-5.0117 0.92969-7.4766 1.3359-2.4648 0.40234-4.8906 0.80859-7.2773 1.2109-2.3828 0.36328-4.7695 0.72656-7.0742 1.0898-2.3047 0.36328-4.6055 0.6875-6.8711 0.96875-2.2227 0.32422-4.4453 0.60547-6.6289 0.89062-3.1133 0.40234-6.1445 0.76953-9.0938 1.0898-1.5352 0.20313-3.0312 0.36328-4.5273 0.48438-1.8984 0.20312-3.7578 0.40625-5.5781 0.56641-1.375 0.12109-2.7461 0.24219-4.082 0.36328-2.668 0.24219-5.293 0.48438-7.8008 0.64844-1.2539 0.082032-2.5078 0.16016-3.7188 0.24219-1.4531 0.12109-2.8711 0.20312-4.2852 0.28125-1.5781 0.12109-3.1133 0.20312-4.6094 0.24219-3.0703 0.16016-6.0195 0.28125-8.8086 0.36328-1.8203 0.039062-3.5586 0.082031-5.2148 0.12109-1.293 0.039063-2.5469 0.039063-3.7578 0.039063-12.852 0.12109-20.773-0.40234-23.078-0.60547-0.52344 0.039063-1.3359 0.082032-2.4258 0.16016-0.52344 0.039063-1.1289 0.082032-1.8164 0.12109h-0.042969c-0.60547 0.039063-1.2539 0.039063-1.9805 0.082032-5.9023 0.28125-15.441 0.48437-28.293 0-1.293-0.039063-2.668-0.082032-4.082-0.16016-1.7773-0.082031-3.6367-0.16016-5.5781-0.28125-0.44531 0-0.84766-0.039062-1.293-0.082031-2.7891-0.16016-5.7422-0.32422-8.7734-0.56641-3.0312-0.24219-6.1836-0.48438-9.457-0.80859-1.6562-0.16016-3.3125-0.32422-5.0117-0.48438-2.4648-0.24219-4.9727-0.48438-7.5586-0.80859-7.9609-0.89062-16.488-2.0195-25.504-3.4375-2.4258-0.36328-4.9336-0.76953-7.4375-1.2109-1.9023-0.32422-3.8008-0.64453-5.7422-0.96875-5.7773-1.0117-11.719-2.1406-17.902-3.3945-5.457-1.0898-11.074-2.2617-16.812-3.5977-2.8711-0.64453-5.7383-1.293-8.6875-2.0195-2.0625-0.48438-4.1602-1.0117-6.2656-1.5352-1.4141-0.36328-2.8711-0.72656-4.3242-1.0898-2.9102-0.72656-5.8594-1.4961-8.8125-2.3047-5.6992-1.4961-11.477-3.1133-17.418-4.8516-1.6953-0.48438-3.3945-1.0117-5.1328-1.5352-3.5156-1.0508-7.0742-2.1406-10.672-3.2734-3.3555-1.0508-6.75-2.1406-10.184-3.2734-7.5156-2.4648-15.238-5.0938-23.078-7.9219 12.973 31.969 62.121 84.348 244.2 82.895 182.2 1.293 231.3-50.926 244.32-82.895-3.3555 1.2109-6.668 2.3828-9.9844 3.5156-2.1172 0.77344-4.2617 1.5039-6.4023 2.1875z"/>
</svg>
