<?xml version="1.0" encoding="UTF-8"?>
<svg width="1200pt" height="1200pt" version="1.1" viewBox="0 0 1200 1200" xmlns="http://www.w3.org/2000/svg">
 <path d="m803.86 126.7h-7.0234l11.574-78.492v-0.11719c0.039062-0.078125 0.039062-0.11719 0.039062-0.19531 0.19922-1.5703 0.039063-3.0977-0.35156-4.5508-0.039062-0.19531-0.11719-0.35156-0.19922-0.51172-0.19531-0.58984-0.39062-1.1367-0.66797-1.6484-0.11719-0.23438-0.23437-0.42969-0.35156-0.66797-0.3125-0.47266-0.62891-0.90234-0.94141-1.3359-0.11719-0.11719-0.15625-0.27344-0.27344-0.39062-0.039062-0.078125-0.15625-0.11719-0.23438-0.19531-0.39062-0.43359-0.82422-0.82422-1.2539-1.2148-0.15625-0.11719-0.3125-0.27344-0.47266-0.39062-0.625-0.43359-1.2539-0.82422-1.9609-1.1367-0.039062 0-0.039062-0.039063-0.078125-0.039063-0.66797-0.3125-1.4102-0.58984-2.1562-0.74609-141.18-33.855-222.77-35.031-226.19-35.07h-0.23438c-3.3711 0.039062-84.496 1.2148-224.81 34.715l-25.34 0.039062c-5.3359 0-10.121 2.707-12.867 7.2578s-2.9023 10.082-0.42969 14.75c4.9023 9.2578 15.18 26.676 28.871 39.422 4.9023 4.5508 8.1211 10.75 9.1406 17.457l73.195 496.7c1.2148 8.2383 4.3945 15.848 9.0234 22.32-9.5703 3.2969-16.516 12.355-16.516 23.027v51.348c0 1.7656 0.23438 3.4922 0.58984 5.1406-18.043 7.1406-32.168 22.477-37.188 42.168l-34.637 135.29c-2.8242 11.023-4.2383 22.359-4.2383 33.695v246.66c0 16.555 13.457 30.008 29.969 30.008h410.71c16.555 0 29.969-13.457 29.969-30.008v-246.66c0-11.336-1.4102-22.672-4.2383-33.695l-34.637-135.33c-5.0195-19.652-19.141-34.992-37.184-42.129 0.39062-1.6484 0.58984-3.375 0.58984-5.1406v-51.348c0-10.668-6.9062-19.73-16.477-23.027 4.5898-6.4727 7.7656-14.082 8.9844-22.32l7.5312-50.879 81.281-17.418c45.031-9.6914 77.746-50.133 77.746-96.227l-0.003906-230.85c0-48.68-39.582-88.262-88.262-88.262zm-56.996 633.44 34.637 135.34c2.3125 9.1016 3.4883 18.477 3.4883 27.852v246.66c0 3.5703-2.8633 6.4727-6.4336 6.4727h-410.71c-3.5703 0-6.4336-2.9023-6.4336-6.4727v-246.66c0-9.375 1.1797-18.75 3.4922-27.852l34.637-135.33c4.3555-16.945 19.613-28.793 37.109-28.793h273.1c17.531-0.003907 32.754 11.844 37.109 28.789zm-35.426-215.28-0.47266 3.0977-8.668 58.918c-2.0781 13.926-14.238 24.438-28.32 24.438h-201.55c-14.082 0-26.281-10.512-28.324-24.438l-73.195-496.69c-1.7656-11.965-7.5703-23.066-16.359-31.227-6.5898-6.1211-12.355-13.926-16.75-20.672h445.35l-13.496 91.516-3.6094 24.359zm120.86-114.27c0 21.652-15.492 40.129-36.836 43.895l-51.191 8.9844 43.582-295.85h14.316c16.633 0 30.129 13.531 30.129 30.125z"/>
 <path d="m646.73 923.43c16.82 40.609-2.4648 87.168-43.078 103.99-40.609 16.82-87.168-2.4648-103.99-43.074-16.82-40.613 2.4648-87.172 43.078-103.99 40.609-16.824 87.168 2.4609 103.99 43.074z"/>
</svg>
