<?xml version="1.0" encoding="UTF-8"?>
<svg width="1200pt" height="1200pt" version="1.1" viewBox="0 0 1200 1200" xmlns="http://www.w3.org/2000/svg">
 <path d="m3.1641 1182.1c2.2773 2.4336 5.375 3.7266 8.5898 3.7266 1.2148 0 2.3906-0.15625 3.5703-0.55078 314.8-99.871 729.28-552.75 775.49-604.06 7.4922-8.3164 7.1797-21.027-0.74609-28.949l-19.062-19.066c15.691-23.852 24.832-34.797 50.996-52.605 32.715-22.316 46.797-38.559 78.613-79.355 11.805-15.145 23.262-20.828 39.148-28.676 22.711-11.258 50.957-25.262 90.613-72.414 42.953-51.113 101.64-71.707 132.79-79.473 22.008-5.4531 37.148-25.066 36.836-47.738-1.2148-89.32-29.5-130.82-52.996-149.93-12.277-9.9609-29.262-11.648-43.309-4.2734-206.93 108.78-409.57 365.29-444.09 410.16h-0.3125c-4.5508 0-9.1406 1.6484-12.672 5.0977-573.27 561.9-643.1 728.93-645.8 735.75-1.6484 4.2383-0.74609 9.0234 2.3516 12.355zm33.461-29.145c39.109-64.688 177.98-262.2 622.54-698.29l38.953 38.914 73.629 73.668c-51.309 56.805-433.42 471.98-735.12 585.71z"/>
</svg>
