<?xml version="1.0" encoding="UTF-8"?>
<svg width="1200pt" height="1200pt" version="1.1" viewBox="0 0 1200 1200" xmlns="http://www.w3.org/2000/svg">
 <path d="m234.63 1178.8c33.113 14.164 68.027 21.188 102.47 21.188 46.488 0 92.195-12.75 131.74-37.859 65.203-41.469 104.32-108.87 107.61-185.14l328.92-839.25c0.54688-1.3359 53.395-133.15 145-111.69 6.1602 3.0195 36.133 20.91 14.789 72.891-2.4727 6.0039 0.39453 12.906 6.3945 15.379 6 2.4727 12.906-0.43359 15.379-6.4336 31.816-77.406-27.461-103.61-28.051-103.85-0.58984-0.27344-1.1758-0.46875-1.8047-0.58984-112.28-27.699-171.17 119.42-173.64 125.7l-317.62 810.57c-30.953-41.859-121.62-75.012-210.75-88.152-113.54-16.711-238.8-3.0977-247.87 55.043 0 0.039062 0 0.11719-0.039062 0.15625-1.4102 8.2773-33.387 203.26 127.46 272.03zm317.07-201.26c-2.9805 6.2383-9.8086 12.242-19.969 17.457-0.70703 0.35156-1.3711 0.70703-2.0781 1.0586-0.3125 0.15625-0.66797 0.27344-0.98047 0.42969-0.47266 0.23438-0.94141 0.43359-1.4141 0.62891-29.227-29.738-94.824-55.555-171.6-66.852-86.23-12.707-161.56-4.1172-193.92 21.266-18.598-12.477-29.582-25.148-31.27-35.938v-0.3125c-0.11719-0.70703-0.19531-1.4492-0.19531-2.1562 0-0.90234 0.039062-1.8047 0.15625-2.668v-0.078125c3.4922-23.656 58.457-41.898 136.92-41.898 25.891 0 54.297 1.9609 84.309 6.3945 117.81 17.34 201.73 63.832 201.73 95.332 0 0.82422-0.078125 1.6484-0.19531 2.4727-0.11719 0.86328-0.3125 1.6875-0.58984 2.5117-0.078125 0.27344-0.19531 0.58984-0.3125 0.90234-0.15625 0.46875-0.39062 0.94141-0.58594 1.4492zm-424.57-23.578c9.5742 9.4531 22.164 18.359 36.957 26.598 0.78516 0.47266 1.6094 0.90234 2.4336 1.3359 1.2969 0.70703 2.5508 1.4141 3.8828 2.0781 4.3555 2.2773 8.8672 4.5508 13.574 6.707 6.8672 3.2188 14.121 6.2773 21.656 9.2578 12.043 4.668 24.793 9.0625 38.211 13.062 15.062 4.4336 30.875 8.3945 47.195 11.809 2.1953 0.47266 4.4727 0.90234 6.668 1.3359l0.70703 0.11719c2.3555 0.46875 4.7461 0.94141 7.1406 1.3711 2.9414 0.55078 5.8867 1.0586 8.8672 1.5703 1.0977 0.19531 2.1953 0.39062 3.3359 0.55078 3.6094 0.58984 7.1797 1.1758 10.789 1.7266 7.0234 1.0195 14.086 1.9219 21.188 2.7461 0.58984 0.039062 1.1758 0.15625 1.7266 0.19531 0.58984 0.078125 1.0977 0.11719 1.6875 0.15625 5.5703 0.62891 11.18 1.1367 16.793 1.5703 3.5312 0.3125 6.9844 0.55078 10.434 0.74609 2.5117 0.15625 4.9844 0.3125 7.4531 0.43359 10.082 0.54688 20.047 0.90234 29.66 0.90234 28.051 0 54.023-2.2383 76.504-6.6289 0.39062-0.078126 0.82422-0.15625 1.2148-0.23438 1.4102-0.27344 2.8633-0.58984 4.2383-0.86328 19.145-4.1172 35.781-9.8867 48.688-17.496-11.887 53.004-44.137 98.863-91.922 129.23-63.203 40.172-140.57 45.625-212.32 14.945-101.77-43.508-117.04-144.88-116.76-203.22z"/>
</svg>
