<?xml version="1.0" encoding="UTF-8"?>
<svg width="1200pt" height="1200pt" version="1.1" viewBox="0 0 1200 1200" xmlns="http://www.w3.org/2000/svg">
 <path d="m1087.5 656.25v-18.75c-0.015625-14.914-5.9492-29.211-16.492-39.758-10.547-10.543-24.844-16.477-39.758-16.492h-107.15c13.953-15.418 23.332-34.422 27.082-54.875l58.207-320.12h21.863c20.098 0 38.664-10.723 48.715-28.125 10.047-17.402 10.047-38.848 0-56.25-10.051-17.402-28.617-28.125-48.715-28.125v-18.75c-0.015625-14.914-5.9492-29.211-16.492-39.758-10.547-10.543-24.844-16.477-39.758-16.492h-37.5c-6.6992 0-12.887 3.5742-16.238 9.375-3.3477 5.8008-3.3477 12.949 0 18.75 3.3516 5.8008 9.5391 9.375 16.238 9.375h37.5c4.9727 0.003906 9.7383 1.9805 13.254 5.4961s5.4922 8.2812 5.4961 13.254v18.75h-787.5v-18.75c0.003906-4.9727 1.9805-9.7383 5.4961-13.254s8.2812-5.4922 13.254-5.4961h637.46c6.6992 0 12.891-3.5742 16.238-9.375 3.3516-5.8008 3.3516-12.949 0-18.75-3.3477-5.8008-9.5391-9.375-16.238-9.375h-637.46c-14.914 0.015625-29.211 5.9492-39.758 16.492-10.543 10.547-16.477 24.844-16.492 39.758v18.75c-20.098 0-38.664 10.723-48.715 28.125-10.047 17.402-10.047 38.848 0 56.25 10.051 17.402 28.617 28.125 48.715 28.125h21.859l58.191 320.12h0.003907c3.7539 20.453 13.137 39.457 27.094 54.875h-107.15c-14.914 0.015625-29.211 5.9492-39.758 16.492-10.543 10.547-16.477 24.844-16.492 39.758v18.75c-20.098 0-38.664 10.723-48.715 28.125-10.047 17.402-10.047 38.848 0 56.25 10.051 17.402 28.617 28.125 48.715 28.125h21.859l58.195 320.12c4.6992 25.926 18.355 49.379 38.586 66.262 20.234 16.887 45.75 26.125 72.102 26.113h593.52c26.348 0.015625 51.867-9.2266 72.094-26.109 20.23-16.887 33.883-40.34 38.578-66.266l58.207-320.12h21.863c20.098 0 38.664-10.723 48.715-28.125 10.047-17.402 10.047-38.848 0-56.25-10.051-17.402-28.617-28.125-48.715-28.125zm-37.5-506.25c-0.003906 4.9727-1.9805 9.7383-5.4961 13.254s-8.2812 5.4922-13.254 5.4961h-318.75v-37.5h318.75c4.9727 0.003906 9.7383 1.9805 13.254 5.4961s5.4922 8.2812 5.4961 13.254zm-525 56.25v-75h150v75zm107.24 37.5-9.375 37.5h-45.703l-9.375-37.5zm-482.24-93.75c0.003906-4.9727 1.9805-9.7383 5.4961-13.254s8.2812-5.4922 13.254-5.4961h318.75v37.5h-318.75c-4.9727-0.003906-9.7383-1.9805-13.254-5.4961s-5.4922-8.2812-5.4961-13.254zm78.707 56.25h258.79v18.75c0 4.9727 1.9766 9.7422 5.4922 13.258 3.5156 3.5156 8.2852 5.4922 13.258 5.4922h22.871l15.195 60.793c1.0117 4.0547 3.3516 7.6562 6.6484 10.23 3.293 2.5742 7.3555 3.9766 11.535 3.9766h75c4.1797 0 8.2422-1.4023 11.535-3.9766 3.2969-2.5742 5.6367-6.1758 6.6484-10.23l15.195-60.793h22.871c4.9727 0 9.7422-1.9766 13.258-5.4922 3.5156-3.5156 5.4922-8.2852 5.4922-13.258v-18.75h258.79l-54.566 300h-633.46zm65.871 337.5h610.84c-6.5703 11.402-16.031 20.871-27.426 27.453s-24.32 10.047-37.48 10.047h-481.02c-13.16 0-26.09-3.4648-37.484-10.047-11.395-6.582-20.855-16.051-27.43-27.453zm-144.58 93.75c0.003906-4.9727 1.9805-9.7383 5.4961-13.254s8.2812-5.4922 13.254-5.4961h862.5c4.9727 0.003906 9.7383 1.9805 13.254 5.4961s5.4922 8.2812 5.4961 13.254v18.75h-900zm525 131.25h-150v-75h150zm-42.762 37.5-9.375 37.5h-45.703l-9.375-37.5zm340.73 262.5h-35.473c-6.6992 0-12.887 3.5742-16.238 9.375-3.3477 5.8008-3.3477 12.949 0 18.75 3.3516 5.8008 9.5391 9.375 16.238 9.375h24.164c-6.5703 11.402-16.031 20.871-27.426 27.453s-24.32 10.047-37.48 10.047h-593.52c-26.297 0.003906-50.668-13.777-64.219-36.312l623.48-0.125c6.6992 0 12.887-3.5742 16.238-9.375 3.3477-5.8008 3.3477-12.949 0-18.75-3.3516-5.8008-9.5391-9.375-16.238-9.375l-635.28 0.125-54.766-301.19h33.793c6.6992 0 12.887-3.5742 16.238-9.375 3.3477-5.8008 3.3477-12.949 0-18.75-3.3516-5.8008-9.5391-9.375-16.238-9.375h-93.75c-6.6992 0-12.887-3.5742-16.238-9.375-3.3477-5.8008-3.3477-12.949 0-18.75 3.3516-5.8008 9.5391-9.375 16.238-9.375h375v37.5h-206.25c-6.6992 0-12.887 3.5742-16.238 9.375-3.3477 5.8008-3.3477 12.949 0 18.75 3.3516 5.8008 9.5391 9.375 16.238 9.375h206.25v18.75c0 4.9727 1.9766 9.7422 5.4922 13.258 3.5156 3.5156 8.2852 5.4922 13.258 5.4922h22.871l15.195 60.793c1.0117 4.0547 3.3516 7.6562 6.6484 10.23 3.293 2.5742 7.3555 3.9766 11.535 3.9766h75c4.1797 0 8.2422-1.4023 11.535-3.9766 3.2969-2.5742 5.6367-6.1758 6.6484-10.23l15.195-60.793h22.871c4.9727 0 9.7422-1.9766 13.258-5.4922 3.5156-3.5156 5.4922-8.2852 5.4922-13.258v-18.75h315.04zm114.53-337.5h-375v-37.5h375c6.6992 0 12.887 3.5742 16.238 9.375 3.3477 5.8008 3.3477 12.949 0 18.75-3.3516 5.8008-9.5391 9.375-16.238 9.375z"/>
</svg>
