<?xml version="1.0" encoding="UTF-8"?>
<svg width="1200pt" height="1200pt" version="1.1" viewBox="0 0 1200 1200" xmlns="http://www.w3.org/2000/svg">
 <path d="m544.31 207.71c-2.25-14.531 9-27.703 23.719-27.703h63.938c14.719 0 25.969 13.172 23.719 27.703l-9.1406 58.453c249.89 23.484 445.45 233.81 445.45 489.84v72h-984v-72c0-256.03 195.56-466.36 445.45-489.84z"/>
 <path d="m60 894c0-23.203 18.797-42 42-42h996c23.203 0 42 18.797 42 42s-18.797 42-42 42h-996c-23.203 0-42-18.797-42-42z"/>
 <path d="m108 960h984v48c0 13.266-10.734 24-24 24h-936c-13.266 0-24-10.734-24-24z"/>
</svg>
