<?xml version="1.0" encoding="UTF-8"?>
<svg width="1200pt" height="1200pt" version="1.1" viewBox="0 0 1200 1200" xmlns="http://www.w3.org/2000/svg">
 <path d="m1143.4 1140.2-30.375-155.81c64.875-73.688 20.25-196.31-74.438-212.81v-509.06c0-10.312-8.4375-18.75-18.75-18.75h-493.31c99-91.312-24-243.56-132.56-162-37.312-58.125-131.81-58.125-169.12 0-114.38-84.188-235.88 81.188-125.44 168l13.125 218.62 7.6875 129.94c0.5625 9.9375 8.8125 17.625 18.75 17.625h254.81v434.06c0 10.312 8.4375 18.75 18.75 18.75h483l-13.875 71.438c-3.5625 15.75 15.562 28.5 28.688 19.125l102.19-68.062 102.19 68.062c13.125 9.375 32.25-3.375 28.688-19.125zm-986.81-561.75-5.4375-92.438h316.5l-5.4375 92.438zm755.44 405.94-0.375 1.6875-8.8125 45.188h-471.56v-415.31h48.562c9.9375 0 18.188-7.6875 18.75-17.625l18.938-317.06h71.062v75c0 10.312 8.4375 18.75 18.75 18.75h217.69c10.312 0 18.75-8.4375 18.75-18.75v-75h157.31v488.06c-104.44 8.4375-157.31 135.56-89.062 215.06zm110.81 68.812c-6.1875-4.3125-14.438-4.3125-20.625 0l-75.188 50.062c4.5-22.875 13.5-68.25 17.812-90.75 22.5 13.312 50.062 20.438 76.125 18.375 20.812-1.5 41.25-7.6875 59.25-18.562l17.812 90.938z"/>
 <path d="m600 506.25h93.75c24.621-0.40625 24.668-37.086 0-37.5h-93.75c-24.621 0.40625-24.668 37.086 0 37.5z"/>
 <path d="m806.25 562.5h-206.25c-24.586 0.39453-24.695 37.082 0 37.5h206.25c24.586-0.39453 24.695-37.082 0-37.5z"/>
 <path d="m787.5 712.5h-225c-10.363 0-18.75 8.3945-18.75 18.75s8.3867 18.75 18.75 18.75h225c24.578-0.39453 24.699-37.082 0-37.5z"/>
 <path d="m787.5 806.25h-225c-10.363 0-18.75 8.3945-18.75 18.75s8.3867 18.75 18.75 18.75h225c24.578-0.39453 24.699-37.082 0-37.5z"/>
</svg>
