<?xml version="1.0" encoding="UTF-8"?>
<svg width="1200pt" height="1200pt" version="1.1" viewBox="0 0 1200 1200" xmlns="http://www.w3.org/2000/svg">
 <path d="m1187.7 748.43-570.88-570.84c-22.914-22.918-55.41-32.133-86.934-24.695l-157.79 37.387c-61.23 14.469-125.41-15.883-152.61-72.223-18.469-38.316-38.961-68.91-60.949-90.855-17.539-17.539-40.859-27.199-65.676-27.199-24.812 0-48.133 9.6602-65.637 27.199-17.539 17.496-27.199 40.816-27.199 65.633 0 24.816 9.6602 48.137 27.199 65.676 21.945 21.945 52.461 42.438 90.695 60.867 57.352 27.727 87.219 90.09 72.586 151.72l-37.586 158.75c-7.4375 31.523 1.7773 64.02 24.695 86.934l570.84 570.84c7.9609 7.9609 18.551 12.367 29.785 12.367 5.6602 0 11.074-1.0898 16.129-3.1914 5.0508-2.1016 9.6602-5.1719 13.66-9.1758l379.67-379.63c7.918-7.9648 12.324-18.512 12.324-29.789 0-11.234-4.4062-21.824-12.328-29.785zm-1063.5-624.27c-4.3242 4.3242-9.2969 7.5586-14.629 9.7422-5.3359 2.1406-11.035 3.2344-16.695 3.2344-11.355 0-22.672-4.3242-31.324-12.973-17.254-17.258-17.254-45.387 0-62.645 17.301-17.258 45.391-17.297 62.645 0 17.305 17.254 17.305 45.383 0.003906 62.641z"/>
</svg>
