<?xml version="1.0" encoding="UTF-8"?>
<svg width="1200pt" height="1200pt" version="1.1" viewBox="0 0 1200 1200" xmlns="http://www.w3.org/2000/svg">
 <path d="m984.64 703.14-455.14-649.91c-24.039-34.348-62.816-53.234-102.36-53.234-19.527 0-39.262 4.5898-57.5 14.176-154.54 81.34-274.14 200.93-355.44 355.48-29.074 55.207-12.281 123.94 39.016 159.86l649.91 455.14z"/>
 <path d="m1071.5 752.94c6.4805-6.9688 6.3203-17.84-0.40625-24.605l-32.453-32.414c-3.4609-3.4648-7.9727-5.1953-12.484-5.1953-4.5508 0-9.0625 1.7344-12.523 5.1953l-317.79 317.79c-6.8867 6.8867-6.8867 18.121 0 25.008l32.457 32.457c6.8867 6.8867 18.078 6.8867 25.004 0z"/>
 <path d="m1157.9 780.31c-0.36328-2.1758-1.7695-3.9883-3.7852-4.9531l-47.719-22.105c-6.9258-3.2227-14.977-2.7773-21.543 1.168-0.078125 0.039062-0.16016 0.082031-0.28125 0.16016-1.4922 0.92578-2.8984 2.0117-4.1484 3.3047l-322.62 322.62c-1.5312 1.4883-2.8203 3.2227-3.8281 5.0352-3.582 6.4414-3.8672 14.254-0.80469 20.938l22.148 47.676c0.92578 2.0547 2.7383 3.4219 4.9531 3.8281 2.1758 0.40234 4.3516-0.28125 5.9609-1.8906l369.97-369.98c1.4531-1.5703 2.0977-3.6641 1.6914-5.7969z"/>
 <path d="m1181.7 796.6c-1.1289-1.6094-2.8984-2.6172-4.8711-2.7773h-0.5625c-1.8125 0-3.543 0.68359-4.832 1.9727l-375.66 375.65c-1.4102 1.4102-2.1367 3.3828-1.9727 5.3945 0.19922 1.9727 1.168 3.7461 2.7773 4.875 17.355 12.402 39.422 18.281 64.426 18.281 66.48 0 153.38-41.758 225.3-113.68 98.898-98.934 140.82-226.18 95.395-289.72z"/>
</svg>
