<?xml version="1.0" encoding="UTF-8"?>
<svg width="1200pt" height="1200pt" version="1.1" viewBox="0 0 1200 1200" xmlns="http://www.w3.org/2000/svg">
 <path d="m206.68 931.92c18.891-16.219 43.969-26.109 71.344-26.109h715.31v-804c0-7.1719-2.9531-13.734-7.6875-18.469s-11.25-7.6875-18.469-7.6875l-706.92 0.046875c-20.719 0-34.453 3.75-42.328 11.625-7.8281 7.8281-11.25 21.141-11.25 40.219zm214.26 91.359v101.02l28.641-35.062c0.75-0.9375 1.6406-1.875 2.625-2.6719 7.4531-6.0938 18.422-4.9688 24.469 2.4375l28.828 35.297v-101.02h-84.609zm119.48 0v47.812h452.9v-47.812zm-17.812-34.828h-196.97c-9.6094 0-17.438 7.7812-17.438 17.438 0 9.6094 7.7812 17.438 17.438 17.438h60.469v47.812h-108.09c-19.875 0-37.875-7.5-50.859-19.594-12.656-11.766-20.484-27.938-20.484-45.656s7.8281-33.891 20.484-45.656c12.984-12.094 30.938-19.594 50.859-19.594h715.31v47.812zm207-520.6h-259.22v-19.5c0-7.5469-4.8281-13.969-11.531-16.406-13.781-6.375-25.266-15.656-33.234-26.812-7.5938-10.594-11.906-22.875-11.906-35.906 0-18.234 8.5312-35.016 22.453-47.719 14.859-13.594 35.766-22.594 59.344-24.281 8.2031-0.5625 14.672-6.7969 15.938-14.578 3.6562-16.5 14.391-31.172 29.578-41.812 15.797-11.109 36.375-17.812 58.969-17.812s43.172 6.7031 58.969 17.812c15.422 10.828 26.25 25.781 29.719 42.609 1.6406 7.7812 8.2031 13.266 15.797 13.781 23.578 1.6875 44.484 10.734 59.344 24.281 13.969 12.703 22.453 29.484 22.453 47.719 0 13.078-4.3594 25.359-11.906 35.906-8.25 11.484-20.156 20.953-34.453 27.375-6.4688 2.8594-10.266 9.2344-10.266 15.844h-0.046875zm0 77.906h-259.22v-43.031h259.22zm34.828-86.719v104.16c0 9.6094-7.7812 17.438-17.438 17.438h-294.05c-9.6094 0-17.438-7.7812-17.438-17.438v-104.16c-15.516-8.6719-28.594-20.156-38.25-33.609-11.719-16.359-18.469-35.578-18.469-56.203 0-28.5 12.844-54.281 33.891-73.453 17.719-16.172 41.391-27.609 67.969-31.828 7.2656-20.531 21.469-38.344 40.266-51.562 21.469-15.094 49.078-24.188 79.031-24.188s57.516 9.0938 79.031 24.188c18.797 13.219 33 31.031 40.266 51.562 26.578 4.2188 50.25 15.656 67.969 31.828 21.047 19.219 33.891 44.953 33.891 73.453 0 20.625-6.75 39.844-18.469 56.203-9.6562 13.453-22.781 24.984-38.25 33.609zm-379.22 238.45c-9.6094 0-17.438-7.7812-17.438-17.438 0-9.6094 7.7812-17.438 17.438-17.438h451.55c9.6094 0 17.438 7.7812 17.438 17.438 0 9.6094-7.7812 17.438-17.438 17.438zm0 93.562c-9.6094 0-17.438-7.7812-17.438-17.438 0-9.6094 7.7812-17.438 17.438-17.438h451.55c9.6094 0 17.438 7.7812 17.438 17.438 0 9.6094-7.7812 17.438-17.438 17.438z" fill-rule="evenodd"/>
</svg>
