<?xml version="1.0" encoding="UTF-8"?>
<svg width="1200pt" height="1200pt" version="1.1" viewBox="0 0 1200 1200" xmlns="http://www.w3.org/2000/svg">
 <path d="m792.74 401.29c0.70312 9.1875 9.8906 16.594 18.797 14.438 43.594-10.359 115.08-8.5312 164.63 55.219 4.4062 5.6719 12.656 6.8906 18.984 3.5625 26.203-13.781 75.375-21.328 120.37 16.969 8.7656 7.5 23.625 1.875 21.938-9.5156-6.8438-46.453-30.609-105.23-105.47-150.14 32.016-72 84-240 0-264s-138 12-138 42c36-6 100.78-10.781 96 42-4.7812 52.828-51.984 124.03-78 150-41.062-6.8438-129.47-9-181.26 26.531-9.0938 6.2344-2.3906 19.125 8.5312 20.531 24.75 3.1406 50.672 16.5 53.484 52.406z"/>
 <path d="m654 499.82c18.516-60.141 42.094-100.41 67.266-127.55 10.641-0.75 23.109 0.65625 32.391 5.5312 5.3438 2.8594 9.3281 6.6562 11.859 11.953 2.5781 5.4375 4.6406 14.391 2.6719 28.922-1.125 8.4375 2.3438 16.875 9.0938 22.078 6.7031 5.25 15.703 6.5156 23.625 3.375 34.828-13.922 114.52-21.844 163.13 51 3.7969 5.6719 9.7969 9.4688 16.547 10.453 6.7031 0.98438 13.547-0.9375 18.797-5.2969 7.0312-5.9062 25.5-14.297 48.469-12.797 19.875 1.3125 44.156 10.172 67.266 37.594-14.203 211.82-201.05 604.74-587.11 604.74-378 0-468-228-468-300 0-120 47.812-143.44 72-102 42 72 120 156 252 150 159.47-7.2188 214.5-192.1 258.1-338.44 4.0312-13.594 7.9688-26.812 11.906-39.562zm377.58 141.1c1.7344-6.375-2.0625-12.984-8.4844-14.672-6.4219-1.7344-12.984 2.1094-14.672 8.4844-11.672 43.734-38.156 107.16-75.891 168.56-37.781 61.5-86.109 119.77-140.95 154.4-5.5781 3.5156-7.2656 10.922-3.7031 16.547 3.5156 5.625 10.922 7.2656 16.547 3.75 59.156-37.406 109.83-99.141 148.55-162.14 38.766-63.094 66.281-128.68 78.609-174.94zm-277.6 356.26c3.6562 5.5312 2.2031 12.984-3.3281 16.641-36.562 24.375-66.656 38.391-87.75 43.688-6.4219 1.5938-12.938-2.2969-14.531-8.7656-1.6406-6.4219 2.2969-12.938 8.7188-14.531 17.344-4.3125 44.812-16.734 80.25-40.359 5.5312-3.6562 12.984-2.1562 16.641 3.3281z" fill-rule="evenodd"/>
</svg>
