<?xml version="1.0" encoding="UTF-8"?>
<svg width="1200pt" height="1200pt" version="1.1" viewBox="0 0 1200 1200" xmlns="http://www.w3.org/2000/svg">
 <path d="m3.4453 720.09 438.16 438.16c2.3164 2.3164 5.3398 3.457 8.3242 3.457 3.0234 0 6.0469-1.1406 8.3242-3.457l41.145-41.105c11.938-10.324 388.81-336.43 526.3-481.74 88.457-93.441 140.05-171.85 162.39-246.8 29.562-99.176 4.043-189.2-75.855-267.61-73.301-71.926-161.52-89.754-255.08-51.551-33.098 13.508-84.219 41.305-140.05 97.172l-0.62891 0.66797c-95.602 95.562-116.37 91.949-118.41 91.242-16.098-5.6914-8.8711-30.664-8.5977-31.723 0.15625-0.46875 0.27344-1.0195 0.35547-1.5312 16.254-100.63-26.699-166-73.496-184.14-12.367-4.7891-27.445-3.4922-43.582 3.7695-57.438 25.836-120.69 119.32-169.26 250.1-70.707 190.34-256.45 364.97-258.3 366.74-0.078126 0.039062-0.078126 0.078124-0.15625 0.11719-0.039063 0.078125-0.078126 0.11719-0.15625 0.15625l-41.422 41.422c-4.5938 4.5938-4.5938 12.055 0 16.648zm24.969-8.3242 24.773-24.773 421.51 421.51-24.773 24.773z"/>
</svg>
