<?xml version="1.0" encoding="UTF-8"?>
<svg width="1200pt" height="1200pt" version="1.1" viewBox="0 0 1200 1200" xmlns="http://www.w3.org/2000/svg">
 <path d="m1103.1 463.94c-4.6055-2.875-10.707-1.457-13.582 3.1484-2.875 4.6055-1.4961 10.668 3.1094 13.543 92.504 57.945 89.672 118.13 86.602 135.18-4.0547 22.438-18.145 38.773-36.805 42.633-23.617 4.8398-49.32-10.746-70.539-42.828-29.207-44.125-63.77-69.438-102.78-75.145-49.246-7.2422-89.16 19.328-99.906 27.359l-7.4219 9.3477c-27.348-20.738-113.59-104.45-102.88-327.64h-47.789v-116.04c0-61.289-49.875-111.12-111.16-111.12s-111.12 49.836-111.12 111.12v116.04h-47.785c10.191 213.11-67.957 299.07-98.848 324.46l-11.488-6.207c-10.707-7.9922-50.66-34.562-99.906-27.316-38.969 5.707-73.57 31.02-102.78 75.145-21.219 32.082-46.922 47.672-70.539 42.828-18.66-3.8594-32.754-20.195-36.805-42.633-3.0781-17.047-5.9102-77.234 86.594-135.18 4.6055-2.875 6.0234-8.9375 3.1484-13.543-2.9102-4.6055-8.9727-6.0234-13.578-3.1484-102.98 64.516-99.156 135.21-95.535 155.37 5.5117 30.508 25.508 52.906 52.195 58.375 4.2148 0.86719 8.4609 1.3008 12.676 1.3008 27.871 0 55.777-18.539 78.254-52.512 25.941-39.207 55.898-61.605 89.043-66.523 47.668-7.0859 86.875 24.719 87.426 25.152l0.039062 0.039063 11.344 9.8164-26.812 582.69h588.96l-26.762-581.61 11.293-10.898 0.039062-0.039063c0.39453-0.3125 39.68-32.238 87.469-25.152 33.105 4.9219 63.062 27.316 89 66.523 22.477 33.973 50.426 52.512 78.297 52.512 4.2109 0 8.4258-0.43359 12.637-1.3008 26.688-5.4727 46.727-27.871 52.195-58.375 3.6172-20.152 7.4766-90.848-95.5-155.37zm-594.59-330.46c0-50.426 41.02-91.441 91.445-91.441 50.422 0 91.48 41.016 91.48 91.441v116.04h-182.93zm296.96 767.67c0 3.2656-2.6367 5.9062-5.9062 5.9062h-399.23c-3.2656 0-5.9062-2.6367-5.9062-5.9062l0.003907-248.39c0-3.2266 2.6367-5.9062 5.9062-5.9062h399.23c3.2656 0 5.9062 2.6758 5.9062 5.9062z"/>
 <path d="m406.29 658.67h387.42v236.58h-387.42z"/>
</svg>
