<?xml version="1.0" encoding="UTF-8"?>
<svg width="1200pt" height="1200pt" version="1.1" viewBox="0 0 1200 1200" xmlns="http://www.w3.org/2000/svg">
 <path d="m1174.8 1053.2c-8.082-8.1211-23.539-17.262-47.23-27.969-32.715-20.711-61.277-42.445-82.617-62.922-48.723-46.723-37.621-123.77-37.504-124.55v-0.11719c0.11719-0.66797 0.15625-1.2969 0.15625-1.9609-0.039062-0.15625-0.039062-0.3125-0.078125-0.47266 0-0.46875-0.078125-0.98047-0.15625-1.4922-0.039062-0.23438-0.11719-0.47266-0.19531-0.70703-0.078125-0.39453-0.19531-0.78516-0.35156-1.1367-0.078125-0.27344-0.19531-0.51172-0.27344-0.74609-0.15625-0.35156-0.35156-0.70703-0.54688-1.0195-0.11719-0.23438-0.27344-0.47266-0.43359-0.66797-0.19531-0.35156-0.42969-0.62891-0.66797-0.94141-0.19531-0.23438-0.35156-0.42969-0.54688-0.62891-0.078125-0.078125-0.11719-0.15625-0.19531-0.23438l-631.79-631.74c-0.078126-0.11719-0.19531-0.19531-0.27344-0.27344-0.15625-0.11719-0.27344-0.23438-0.42969-0.35156-0.35156-0.3125-0.74609-0.62891-1.1367-0.86328-0.15625-0.11719-0.3125-0.19531-0.47266-0.3125-0.42969-0.23438-0.86328-0.46875-1.293-0.62891-0.15625-0.078125-0.3125-0.15625-0.51172-0.23438-0.42969-0.15625-0.90234-0.3125-1.3711-0.42969-0.15625-0.039063-0.35156-0.078126-0.55078-0.11719-0.54688-0.11719-1.1367-0.19531-1.6875-0.19531-0.078125-0.039063-0.15625-0.039063-0.23438-0.039063-0.70703-0.039063-1.3711 0.039063-2.0391 0.11719h-0.078126c-0.78516 0.11719-77.867 11.258-124.55-37.465-20.477-21.379-42.25-49.938-62.961-82.656-10.711-23.652-19.852-39.109-27.93-47.23-16.285-16.246-37.863-25.191-60.852-25.191-11.492 0-22.637 2.2344-32.953 6.5117-10.316 4.2344-19.77 10.551-27.891 18.672-16.238 16.242-25.184 37.855-25.184 60.844 0 22.988 8.9453 44.562 25.184 60.844 8.082 8.082 23.539 17.223 47.23 27.93 32.758 20.715 61.312 42.445 82.656 62.922 48.645 46.645 37.621 123.57 37.465 124.55v0.11719c-0.078125 0.66797-0.15625 1.332-0.11719 2 0 0.15625 0.039062 0.27344 0.039062 0.42969 0.039063 0.51172 0.078125 1.0195 0.19531 1.4922 0.039062 0.23438 0.11719 0.46875 0.15625 0.70703 0.11719 0.39453 0.23438 0.78516 0.35156 1.1758 0.078125 0.23438 0.19531 0.46875 0.3125 0.70703 0.15625 0.35156 0.3125 0.70703 0.55078 1.0586 0.11719 0.23438 0.23437 0.42969 0.39453 0.66797 0.19531 0.3125 0.46875 0.62891 0.70703 0.94141 0.15625 0.19531 0.35156 0.39453 0.51172 0.58984 0.078125 0.078125 0.15625 0.19531 0.23438 0.23438l631.74 631.78c0.078125 0.078125 0.19531 0.11719 0.27344 0.19531 0.27344 0.27344 0.54688 0.51172 0.86328 0.70703 0.27344 0.23438 0.54688 0.47266 0.86328 0.66797 0.3125 0.19531 0.62891 0.35156 0.94141 0.50781 0.54687 0.27344 1.0977 0.51172 1.6875 0.70703 0.43359 0.15625 0.86328 0.3125 1.2969 0.39453 0.3125 0.078126 0.62891 0.078126 0.94141 0.11719 0.43359 0.039062 0.82422 0.11719 1.2539 0.11719 0.078125 0 0.15625 0.039062 0.19531 0.039062 0.19531 0 0.39453-0.078125 0.62891-0.078125 0.39453 0 0.78516 0 1.1758-0.078125 0.78516-0.11719 77.828-11.219 124.55 37.504 20.477 21.34 42.211 49.898 62.922 82.613 10.711 23.695 19.891 39.148 27.969 47.23 16.75 16.789 38.797 25.184 60.844 25.184 22.008 0 44.055-8.3945 60.844-25.184 33.543-33.535 33.504-88.105-0.039062-121.64zm-958.71-734.99c-3.293-29.855-14.043-68.023-44.758-97.445-22.949-22.008-52.211-44.289-87.047-66.258-0.46875-0.3125-0.94141-0.55078-1.4492-0.78516-26.363-11.887-36.875-19.34-41.035-23.5-11.77-11.805-18.281-27.496-18.281-44.168 0-16.711 6.5117-32.402 18.281-44.211 12.199-12.16 28.207-18.281 44.211-18.281s32.012 6.1211 44.172 18.281c4.1602 4.1562 11.613 14.672 23.496 41.031 0.23438 0.50781 0.51172 0.98047 0.78516 1.4492 21.969 34.797 44.289 64.102 66.258 87.051 29.422 30.676 67.59 41.465 97.445 44.758-0.74609 0.46875-1.4922 1.0195-2.2344 1.4883-3.8438 2.5117-7.6523 5.0625-11.336 7.6914-1.5703 1.0977-3.0586 2.2344-4.5898 3.375-3.0586 2.2344-6.043 4.5117-9.0234 6.8242-1.5703 1.2148-3.0977 2.4727-4.6289 3.7266-3.0195 2.4336-5.9609 4.9414-8.8281 7.4922-1.3359 1.1367-2.668 2.2734-3.9219 3.4141-8.2383 7.4531-16.047 15.258-23.496 23.457-1.1367 1.293-2.2773 2.6289-3.4141 3.9609-2.5508 2.8633-5.0586 5.8047-7.4922 8.7891-1.2539 1.5703-2.5117 3.0977-3.7266 4.668-2.3164 2.9805-4.5898 5.9609-6.8242 9.0234-1.1367 1.5312-2.2773 3.0195-3.375 4.5898-2.6289 3.6875-5.1797 7.4922-7.6484 11.297-0.51563 0.79297-1.0664 1.4961-1.5391 2.2812zm942.08 840.01c-24.359 24.359-64.023 24.359-88.383 0-4.1602-4.1562-11.574-14.633-23.457-41.031-0.23437-0.46875-0.50781-0.98047-0.78516-1.4492-21.969-34.797-44.289-64.102-66.297-87.051-29.422-30.676-67.59-41.465-97.406-44.719 0.74609-0.51172 1.4492-1.0195 2.2383-1.5312 3.8438-2.5117 7.6094-5.0625 11.336-7.6914 1.5312-1.0977 3.0586-2.2383 4.5898-3.332 3.0195-2.2344 6.043-4.5117 8.9844-6.8633 1.5703-1.2148 3.1367-2.4727 4.668-3.7266 2.9805-2.4297 5.9219-4.9414 8.8281-7.4531 1.293-1.1758 2.6289-2.2773 3.9219-3.4531 8.1992-7.4141 16.047-15.262 23.457-23.457 1.1758-1.293 2.2773-2.6289 3.4141-3.9219 2.5508-2.9023 5.0625-5.8477 7.5312-8.8281 1.2539-1.5312 2.4727-3.0977 3.6875-4.6289 2.3516-2.9805 4.6289-6.0039 6.8633-9.0625 1.1367-1.5312 2.2344-3.0195 3.332-4.5508 2.668-3.7266 5.2188-7.5703 7.7656-11.453 0.46875-0.70703 0.98047-1.4141 1.4492-2.1172 3.2578 29.812 14.043 67.984 44.762 97.406 22.91 22.008 52.215 44.289 87.047 66.258 0.47266 0.3125 0.94141 0.58984 1.4531 0.78516 26.324 11.887 36.836 19.34 40.992 23.496 24.367 24.352 24.367 64.012 0.007812 88.375z"/>
</svg>
