<?xml version="1.0" encoding="UTF-8"?>
<svg width="1200pt" height="1200pt" version="1.1" viewBox="0 0 1200 1200" xmlns="http://www.w3.org/2000/svg">
 <path d="m547.08 155.06 58.922-56.344c62.016-7.9688 205.22-6 354 114s180 234 180 270l-792 101.2c-0.79688-16.172-24.656-29.203-54-29.203-29.812 0-54 13.453-54 30 0 4.4531 1.7344 8.625 4.7812 12.422l-184.78 23.578 412.36-394.22c9.5625 2.7188 20.297 4.2188 31.641 4.2188 39.75 0 72-18.797 72-42 0-13.734-11.391-25.969-28.922-33.656zm310.92 303.66c16.547 0 30-8.0625 30-18s-13.453-18-30-18-30 8.0625-30 18 13.453 18 30 18zm54-138c0 9.9375-13.453 18-30 18s-30-8.0625-30-18 13.453-18 30-18 30 8.0625 30 18zm-288 138c33.141 0 60-16.078 60-36 0-19.875-26.859-36-60-36s-60 16.125-60 36c0 19.922 26.859 36 60 36zm-204-30c0 9.9375-13.453 18-30 18s-30-8.0625-30-18 13.453-18 30-18 30 8.0625 30 18z" fill-rule="evenodd"/>
 <path d="m900 566.72c0 39.797-32.25 72-72 72s-72-32.203-72-72c0-1.6406 0.046875-3.2812 0.1875-4.9219l-696.19 88.922v60.891c3.9375-0.5625 7.9219-0.89062 12-0.89062 46.406 0 84 37.641 84 84 0 46.406-37.594 84-84 84-4.0781 0-8.0625-0.28125-12-0.84375v228.84l637.69-84.984c-1.0781-3.4688-1.6875-7.1719-1.6875-11.016 0-19.875 16.125-36 36-36s36 16.125 36 36c0 0.5625 0 1.0781-0.046875 1.6406l309.56-41.297c35.766-4.7812 62.484-35.297 62.484-71.344v-387l-243.71 31.172c2.3906 7.1719 3.7031 14.859 3.7031 22.828zm-360 408c33.141 0 60-26.859 60-60s-26.859-60-60-60-60 26.859-60 60 26.859 60 60 60zm-84-252c0 19.922-16.125 36-36 36s-36-16.078-36-36c0-19.875 16.125-36 36-36s36 16.125 36 36zm-192 264c19.875 0 36-16.078 36-36 0-19.875-16.125-36-36-36s-36 16.125-36 36c0 19.922 16.125 36 36 36zm492-156c19.875 0 36-16.078 36-36 0-19.875-16.125-36-36-36s-36 16.125-36 36c0 19.922 16.125 36 36 36zm336-30c0 56.344-45.656 102-102 102s-102-45.656-102-102c0-56.297 45.656-102 102-102s102 45.703 102 102z" fill-rule="evenodd"/>
</svg>
