<?xml version="1.0" encoding="UTF-8"?>
<svg width="1200pt" height="1200pt" version="1.1" viewBox="0 0 1200 1200" xmlns="http://www.w3.org/2000/svg">
 <path d="m948 60c6.6094 0 12 5.3906 12 12 0 52.5-30.188 77.062-53.203 95.812-3.6094 2.9531-7.0312 5.7188-10.125 8.4375-11.812 10.406-18.844 19.312-20.297 31.312-1.5 12.562 2.8125 31.406 21.844 62.109 3.4688 5.625 1.7344 13.031-3.8906 16.547-5.625 3.4688-13.031 1.7344-16.547-3.8906-19.969-32.297-27.656-56.953-25.219-77.578 2.4844-21.188 15.328-35.156 28.266-46.5 3.8906-3.4219 7.7812-6.6562 11.672-9.8438 22.594-18.703 43.5-36 43.5-76.406 0-6.6094 5.3906-12 12-12z"/>
 <path d="m504 240c0-6.6094 5.3906-12 12-12h168c6.6094 0 12 5.3906 12 12v36c0 6.6094-5.3906 12-12 12h-36v36h144c139.18 0 252 112.83 252 252h-888c0-139.18 112.83-252 252-252h144v-36h-36c-6.6094 0-12-5.3906-12-12z"/>
 <path d="m840 660v-60h-648v24h-96c-19.875 0-36 16.125-36 36v60c0 19.875 16.125 36 36 36h96v276c0 59.625 48.375 108 108 108h600c59.625 0 108-48.375 108-108v-276h96c19.875 0 36-16.125 36-36v-60c0-19.875-16.125-36-36-36h-96v-24h-144v60c0 6.6094-5.3906 12-12 12s-12-5.3906-12-12zm-648 72v-84h-96c-6.6094 0-12 5.3906-12 12v60c0 6.6094 5.3906 12 12 12zm912 0h-96v-84h96c6.6094 0 12 5.3906 12 12v60c0 6.6094-5.3906 12-12 12zm-264-12c0-6.6094 5.3906-12 12-12s12 5.3906 12 12v144c0 6.6094-5.3906 12-12 12s-12-5.3906-12-12z" fill-rule="evenodd"/>
 <path d="m347.9 96c0-6.6094-5.3906-12-12-12-6.6562 0-12 5.3906-12 12 0 40.406-20.906 57.703-43.547 76.406-3.8438 3.1875-7.7812 6.4219-11.625 9.8438-12.938 11.344-25.781 25.312-28.312 46.5-2.4375 20.625 5.2969 45.281 25.266 77.578 3.4688 5.625 10.875 7.3594 16.5 3.8906 5.6719-3.5156 7.4062-10.922 3.8906-16.547-18.984-30.703-23.297-49.547-21.797-62.109 1.4062-12 8.4375-20.906 20.297-31.312 3.0938-2.7188 6.5156-5.4844 10.078-8.3906 23.016-18.797 53.25-43.359 53.25-95.859z"/>
</svg>
