<?xml version="1.0" encoding="UTF-8"?>
<svg width="1200pt" height="1200pt" version="1.1" viewBox="0 0 1200 1200" xmlns="http://www.w3.org/2000/svg">
 <path d="m805.5 60.094c-6.6094-0.84375-12.562 3.8438-13.406 10.406s3.7969 12.562 10.359 13.406l0.1875 0.046875c0.23438 0 0.60938 0.09375 1.125 0.1875 0.98438 0.1875 2.5312 0.51562 4.3594 1.0781 3.7969 1.0781 8.6719 2.9531 13.5 5.9531 9.2344 5.7656 18.375 15.75 18.375 34.828 0 16.734-11.625 25.266-30.938 38.953-17.625 12.516-41.062 29.25-41.062 63.047 0 26.625 14.906 44.719 28.5 55.594 6.8438 5.4375 13.594 9.3281 18.656 11.859 2.5312 1.2656 4.6406 2.2031 6.1875 2.8125 0.75 0.32812 1.4062 0.5625 1.875 0.75 0.1875 0.09375 0.375 0.14062 0.51562 0.1875l0.1875 0.09375h0.046875l0.046875 0.046875c6.2812 2.1562 13.125-1.125 15.328-7.3594 2.1562-6.2812-1.125-13.125-7.3594-15.328l-0.28125-0.09375c-0.23438-0.09375-0.60938-0.23438-1.1719-0.46875-1.0781-0.42188-2.7188-1.125-4.6875-2.1094-3.9375-2.0156-9.1875-5.0156-14.344-9.1406-10.406-8.3438-19.5-20.25-19.5-36.844 0-20.203 12.562-30.422 30.938-43.453 0.84375-0.60938 1.7344-1.2188 2.5781-1.8281 16.5-11.578 38.484-27.047 38.484-56.719 0-28.922-14.859-45.938-29.625-55.172-7.1719-4.5-14.297-7.125-19.5-8.6719-2.6719-0.75-4.875-1.2656-6.5156-1.5938-0.79688-0.14062-1.4531-0.23438-1.9219-0.32812-0.28125-0.046875-0.46875-0.09375-0.60938-0.09375l-0.23438-0.046875z"/>
 <path d="m60 612c0-132.56 107.44-240 240-240h600c132.56 0 240 107.44 240 240v432c0 19.875-16.125 36-36 36h-48v48c0 6.6094-5.3906 12-12 12h-60c-6.6094 0-12-5.3906-12-12v-48h-744v48c0 6.6094-5.3906 12-12 12h-60c-6.6094 0-12-5.3906-12-12v-48h-48c-19.875 0-36-16.125-36-36zm240 0c-6.6094 0-12 5.3906-12 12v168h24v-168c0-6.6094-5.3906-12-12-12zm216 324c-6.6094 0-12 5.3906-12 12s5.3906 12 12 12h600v-24zm-204 12v-36h-24v36c0 6.6094 5.3906 12 12 12s12-5.3906 12-12zm-72-132c-19.875 0-36 16.125-36 36s16.125 36 36 36h120c19.875 0 36-16.125 36-36s-16.125-36-36-36z" fill-rule="evenodd"/>
 <path d="m588.1 70.5c0.84375-6.5625 6.7969-11.25 13.406-10.406h0.09375l0.23438 0.046875c0.14062 0 0.32812 0.046875 0.60938 0.09375 0.46875 0.09375 1.125 0.1875 1.9219 0.32812 1.6406 0.32812 3.8438 0.84375 6.5156 1.5938 5.2031 1.5469 12.328 4.1719 19.5 8.6719 14.766 9.2344 29.625 26.25 29.625 55.172 0 29.672-21.984 45.141-38.484 56.719-0.84375 0.60938-1.7344 1.2188-2.5781 1.8281-18.375 13.031-30.938 23.25-30.938 43.453 0 16.594 9.0938 28.5 19.5 36.844 5.1562 4.125 10.406 7.125 14.344 9.1406 1.9688 0.98438 3.6094 1.6875 4.6875 2.1094 0.5625 0.23438 0.9375 0.375 1.1719 0.46875l0.28125 0.09375c6.2344 2.2031 9.5156 9.0469 7.3594 15.328-2.2031 6.2344-9.0469 9.5156-15.328 7.3594l-0.046875-0.046875h-0.046875l-0.1875-0.09375c-0.14062-0.046875-0.32812-0.09375-0.51562-0.1875-0.46875-0.1875-1.125-0.42188-1.875-0.75-1.5469-0.60938-3.6562-1.5469-6.1875-2.8125-5.0625-2.5312-11.812-6.4219-18.656-11.859-13.594-10.875-28.5-28.969-28.5-55.594 0-33.797 23.438-50.531 41.062-63.047 19.312-13.688 30.938-22.219 30.938-38.953 0-19.078-9.1406-29.062-18.375-34.828-4.8281-3-9.7031-4.875-13.5-5.9531-1.8281-0.5625-3.375-0.89062-4.3594-1.0781-0.51562-0.09375-0.89062-0.1875-1.125-0.1875l-0.1875-0.046875c-6.5625-0.84375-11.203-6.8438-10.359-13.406z"/>
 <path d="m397.5 60.094c-6.6094-0.84375-12.562 3.8438-13.406 10.406s3.7969 12.562 10.359 13.406l0.1875 0.046875c0.23438 0 0.60938 0.09375 1.125 0.1875 0.98438 0.1875 2.5312 0.51562 4.3594 1.0781 3.7969 1.0781 8.6719 2.9531 13.5 5.9531 9.2344 5.7656 18.375 15.75 18.375 34.828 0 16.734-11.625 25.266-30.938 38.953-17.625 12.516-41.062 29.25-41.062 63.047 0 26.625 14.906 44.719 28.5 55.594 6.8438 5.4375 13.594 9.3281 18.656 11.859 2.5312 1.2656 4.6406 2.2031 6.1875 2.8125 0.75 0.32812 1.4062 0.5625 1.875 0.75 0.1875 0.09375 0.375 0.14062 0.51562 0.1875l0.1875 0.09375h0.046875l0.046875 0.046875c6.2812 2.1562 13.125-1.125 15.328-7.3594 2.1562-6.2812-1.125-13.125-7.3594-15.328l-0.28125-0.09375c-0.23438-0.09375-0.60938-0.23438-1.1719-0.46875-1.0781-0.42188-2.7188-1.125-4.6875-2.1094-3.9375-2.0156-9.1875-5.0156-14.344-9.1406-10.406-8.3438-19.5-20.25-19.5-36.844 0-20.203 12.562-30.422 30.938-43.453 0.84375-0.60938 1.7344-1.2188 2.5781-1.8281 16.5-11.578 38.484-27.047 38.484-56.719 0-28.922-14.859-45.938-29.625-55.172-7.1719-4.5-14.297-7.125-19.5-8.6719-2.6719-0.75-4.875-1.2656-6.5156-1.5938-0.79688-0.14062-1.4531-0.23438-1.9219-0.32812-0.28125-0.046875-0.46875-0.09375-0.60938-0.09375l-0.23438-0.046875z"/>
</svg>
