<?xml version="1.0" encoding="UTF-8"?>
<svg width="1200pt" height="1200pt" version="1.1" viewBox="0 0 1200 1200" xmlns="http://www.w3.org/2000/svg">
 <path d="m660.52 505.69c0-104.2-84.75-188.95-188.95-188.95s-188.95 84.75-188.95 188.95 84.75 188.95 188.95 188.95 188.95-84.75 188.95-188.95zm-352.45 0c0-90.141 73.359-163.5 163.5-163.5s163.5 73.359 163.5 163.5-73.359 163.5-163.5 163.5-163.5-73.359-163.5-163.5zm163.5 125.21c-7.0312 0-12.75-5.7188-12.75-12.75v-8.0156c-27.891-5.6719-48.891-29.484-48.891-57.938 0-7.0312 5.7188-12.75 12.75-12.75s12.75 5.7188 12.75 12.75c0 18.609 16.219 33.75 36.141 33.75s36.141-15.141 36.141-33.75c0-24.094-12.656-28.078-39-34.078-24.797-5.6719-58.781-13.453-58.781-58.922 0-28.453 21-52.312 48.891-57.938v-8.0156c0-7.0312 5.7188-12.75 12.75-12.75s12.75 5.7188 12.75 12.75v8.0156c27.891 5.6719 48.891 29.484 48.891 57.938 0 7.0312-5.7188 12.75-12.75 12.75s-12.75-5.7188-12.75-12.75c0-18.609-16.219-33.75-36.141-33.75s-36.141 15.141-36.141 33.75c0 24.094 12.656 28.078 39 34.078 24.797 5.6719 58.781 13.453 58.781 58.922 0 28.453-21 52.312-48.891 57.938v8.0156c0 7.0312-5.7188 12.75-12.75 12.75zm567.05-154.92h-15.094c-3.75-13.172-8.9531-25.875-15.609-37.875l10.641-10.641c4.9688-4.9688 4.9688-13.031 0-18l-51.938-51.938c-4.9688-4.9688-13.031-4.9688-18 0l-10.5 10.5c-12.047-6.75-24.75-12-38.016-15.797v-14.812c0-7.0312-5.7188-12.75-12.75-12.75h-73.453c-7.0312 0-12.75 5.7188-12.75 12.75v14.812c-13.219 3.7969-25.969 9.0469-38.016 15.797l-10.5-10.5c-2.3906-2.3906-5.625-3.75-9-3.75s-6.6094 1.3594-9 3.75l-9.9844 9.9844c-1.3125-2.4375-2.5312-4.875-3.8906-7.2656l21.984-21.984c4.9688-4.9688 4.9688-13.031 0-18l-85.688-85.688c-4.9688-4.9688-13.031-4.9688-18 0l-21.797 21.797c-22.688-13.312-46.922-23.391-72.328-30.047v-30.75c0-7.0312-5.7188-12.75-12.75-12.75h-121.18c-7.0312 0-12.75 5.7188-12.75 12.75v30.75c-25.406 6.6562-49.641 16.734-72.328 30.047l-21.797-21.797c-4.9688-4.9688-13.031-4.9688-18 0l-85.688 85.688c-2.3906 2.3906-3.75 5.625-3.75 9s1.3594 6.6094 3.75 9l21.984 21.984c-13.219 22.641-23.156 46.828-29.719 72.141h-31.266c-7.0312 0-12.75 5.7188-12.75 12.75v121.18c0 7.0312 5.7188 12.75 12.75 12.75h31.641c6.6562 25.125 16.688 49.125 29.859 71.625l-22.547 22.547c-2.3906 2.3906-3.75 5.625-3.75 9s1.3594 6.6094 3.75 9l85.688 85.688c4.9688 4.9688 13.031 4.9688 18 0l22.734-22.734c22.406 13.078 46.359 22.969 71.391 29.531v32.203c0 7.0312 5.7188 12.75 12.75 12.75h106.12c4.9219 16.922 11.719 33.234 20.531 48.562l-15.703 15.703c-4.9688 4.9688-4.9688 13.031 0 18l65.766 65.766c4.9688 4.9688 13.031 4.9688 18 0l15.844-15.844c16.219 9.2344 33.422 16.359 51.375 21.234v22.453c0 7.0312 5.7188 12.75 12.75 12.75h93.047c7.0312 0 12.75-5.7188 12.75-12.75v-22.453c17.953-4.9219 35.156-12.047 51.375-21.234l15.844 15.844c4.7812 4.7812 13.219 4.7812 18 0l65.766-65.766c4.9688-4.9688 4.9688-13.031 0-18l-15.703-15.703c9.3281-16.266 16.547-33.516 21.516-51.516h22.031c7.0312 0 12.75-5.7188 12.75-12.75v-93.047c0-7.0312-5.7188-12.75-12.75-12.75h-21.703c-1.875-6.9375-4.1719-13.688-6.7031-20.391l6.6562 6.6562c2.4844 2.4844 5.7656 3.75 9 3.75 3.2812 0 6.5156-1.2656 9-3.75l51.938-51.938c4.9688-4.9688 4.9688-13.031 0-18l-10.969-10.969c6.6562-11.906 11.906-24.469 15.656-37.547h15.375c7.0312 0 12.75-5.7188 12.75-12.75v-73.453c0-7.0312-5.7188-12.75-12.75-12.75zm-624.84 285.24c-29.109-6.5625-56.766-17.953-82.078-33.938-5.0156-3.1875-11.578-2.4375-15.797 1.7812l-20.766 20.766-67.641-67.641 20.625-20.625c4.2188-4.2188 4.9219-10.828 1.7344-15.844-16.125-25.359-27.703-53.016-34.312-82.266-1.3125-5.8125-6.4688-9.8906-12.422-9.8906h-28.875v-95.672h28.547c5.9531 0 11.156-4.1719 12.422-9.9844 6.5156-29.391 18-57.234 34.078-82.781 3.1875-5.0156 2.4375-11.578-1.7812-15.797l-20.062-20.062 67.641-67.641 19.875 19.875c4.2188 4.2188 10.828 4.9688 15.844 1.7344 25.594-16.266 53.484-27.844 82.922-34.5 5.8125-1.3125 9.9375-6.4688 9.9375-12.422v-27.984h95.672v27.984c0 5.9531 4.125 11.109 9.9375 12.422 29.438 6.6094 57.375 18.234 82.922 34.5 5.0625 3.1875 11.625 2.4844 15.844-1.7344l19.875-19.875 67.641 67.641-20.062 20.062c-4.2188 4.2188-4.9219 10.781-1.7812 15.797 16.125 25.547 27.562 53.391 34.078 82.781 1.3125 5.8125 6.4688 9.9844 12.422 9.9844h28.547v95.672h-28.875c-5.9531 0-11.109 4.125-12.422 9.9375-4.9688 21.891-12.703 42.891-23.062 62.719-0.046875 0.09375-0.14062 0.23438-0.1875 0.32812-3.4219 6.5156-7.125 12.938-11.109 19.172-3.1875 5.0156-2.4844 11.625 1.7344 15.844l20.625 20.625-67.641 67.641-20.766-20.766c-3.8438-3.8438-9.6094-4.6406-14.438-2.3438-0.46875 0.23438-0.9375 0.28125-1.3594 0.5625-6.2812 3.9844-12.703 7.6406-19.266 11.016-0.046875 0-0.09375 0.046875-0.09375 0.046875h-0.046875c-19.828 10.266-40.828 17.906-62.719 22.828-5.8125 1.3125-9.9375 6.4688-9.9375 12.422v29.438h-95.672v-29.438c0-5.9531-4.125-11.109-9.9375-12.422zm501.05-167.02-38.109-38.109c-2.3906-2.3906-5.625-3.75-9-3.75s-6.6094 1.3594-9 3.75l-15.141 15.141c-15.516-8.9062-31.969-15.75-49.125-20.672v-100.55c16.172-12.047 35.812-18.656 56.156-18.656 51.891 0 94.078 42.234 94.078 94.078 0 26.062-11.016 51.047-29.859 68.719zm-190.92 49.875c2.7656-0.1875 5.5781-0.28125 8.2969-0.28125 67.594 0 122.58 54.984 122.58 122.58s-54.984 122.58-122.58 122.58c-67.598 0-122.58-54.984-122.58-122.58 0-2.8594 0.09375-5.7656 0.28125-8.625 2.0625-1.125 4.125-2.2969 6.1406-3.4688 0.046875-0.046875 0.14062-0.046875 0.1875-0.09375l22.734 22.734c4.9688 4.9688 13.031 4.9688 18 0l85.688-85.688c4.9688-4.9688 4.9688-13.031 0-18l-22.547-22.547c1.2656-2.1562 2.5312-4.3594 3.75-6.5625zm233.68 88.5v67.547h-19.219c-5.9531 0-11.109 4.125-12.422 9.9375-5.0156 22.078-13.734 43.031-25.969 62.203-3.1875 5.0156-2.4844 11.625 1.7344 15.844l13.734 13.734-47.766 47.766-13.875-13.875c-4.2188-4.2188-10.781-4.9688-15.797-1.7812-19.172 12.094-40.031 20.719-62.109 25.688-5.8125 1.3125-9.9375 6.4688-9.9375 12.422v19.641h-67.547v-19.641c0-5.9531-4.125-11.109-9.9375-12.422-22.031-4.9219-42.938-13.594-62.109-25.688-5.0156-3.1875-11.578-2.4375-15.797 1.7812l-13.875 13.875-47.766-47.766 13.734-13.734c4.2188-4.2188 4.9219-10.828 1.7344-15.844-9.6562-15.141-17.109-31.406-22.312-48.469 0.046876-0.09375 0.09375-0.1875 0.14063-0.28125 0.75-0.98438 1.3125-2.0156 1.7344-3.1406 0.09375-0.1875 0.14063-0.42188 0.1875-0.60938 0.375-1.2188 0.65625-2.5312 0.65625-3.8906v-32.156c10.641-2.7656 21-6.2812 31.172-10.266 1.8281-0.70312 3.7031-1.3125 5.4844-2.0625 0.9375-0.375 1.875-0.84375 2.8125-1.2656 2.0156 79.922 67.453 144.32 147.84 144.32 81.609 0 148.03-66.422 148.03-148.03 0-80.25-64.219-145.64-143.9-147.84 5.4844-12.797 10.125-25.969 13.734-39.516h31.641c1.5469 0 3.0469-0.32812 4.4062-0.84375 0.09375-0.046875 0.23438-0.046875 0.32813-0.09375 1.3125-0.51562 2.4844-1.2656 3.5156-2.2031 0.09375-0.09375 0.1875-0.09375 0.28125-0.1875 17.062 5.2031 33.281 12.656 48.422 22.312 5.0156 3.1875 11.625 2.4844 15.844-1.7344l13.172-13.172 47.766 47.766-13.312 13.312c-4.2188 4.2188-4.9219 10.781-1.7812 15.797 12.188 19.312 20.859 40.406 25.781 62.625 1.3125 5.8125 6.4688 9.9844 12.422 9.9844h18.984zm68.297-183.14h-12.516c-5.9531 0-11.109 4.125-12.422 9.9375-3.8906 17.156-10.688 33.375-20.156 48.281-3.1875 5.0156-2.4844 11.625 1.7344 15.844l8.9531 8.9531-33.938 33.938-9.0469-9.0469c-4.2188-4.2188-10.781-4.9219-15.797-1.7812-1.3125 0.84375-2.7188 1.5938-4.0781 2.3906-0.51562-0.9375-0.9375-1.875-1.4531-2.7656l15.281-15.281c4.9688-4.9688 4.9688-13.031 0-18l-9.6562-9.6562c23.578-22.453 37.359-53.906 37.359-86.719 0-65.953-53.625-119.58-119.58-119.58-27.328 0-53.672 9.4219-74.859 26.484h-25.266c-3.6094-13.922-8.3438-27.469-14.016-40.641l7.1719-7.1719 8.5312 8.5312c4.2188 4.2188 10.828 4.9688 15.844 1.7344 15-9.5625 31.406-16.359 48.703-20.25 5.8125-1.3125 9.9375-6.4688 9.9375-12.422v-11.953h48v11.953c0 5.9531 4.125 11.109 9.9375 12.422 17.297 3.8906 33.656 10.688 48.703 20.25 5.0625 3.2344 11.625 2.4844 15.844-1.7344l8.5312-8.5312 33.938 33.938-8.625 8.625c-4.2188 4.2188-4.9219 10.781-1.7812 15.797 9.4688 15 16.172 31.359 20.016 48.609 1.3125 5.8125 6.4688 9.9844 12.422 9.9844h12.281v47.953z"/>
</svg>
