<?xml version="1.0" encoding="UTF-8"?>
<svg width="1200pt" height="1200pt" version="1.1" viewBox="0 0 1200 1200" xmlns="http://www.w3.org/2000/svg">
 <path d="m768.75 501.94v71.438c0 128.44-104.44 232.88-232.88 232.88-128.25 0.75-233.44-105.19-233.06-232.88v-71.438c0-10.312 8.4375-18.75 18.75-18.75h282c8.25-55.688 16.875-111 16.875-111 1.3125-9.1875 9.1875-15.938 18.562-15.938h63.375c24.75 0.375 24.562 37.125 0 37.5h-47.438c-2.8125 19.312-8.25 54-13.5 89.438h108.56c10.312 0 18.75 8.4375 18.75 18.75z"/>
 <path d="m1157.8 368.44c-21.938-62.625-113.44-66.188-140.25-5.625l-90 194.81c-4.3125 9 0 20.812 9.1875 24.938l34.875 16.125-27.188 59.062c-58.312-7.125-143.81 77.438-192 143.44-79.312 107.25 21.375 211.69 128.81 210.19v76.125h-712.5v-93.75h28.125c35.25 0.75 66.375-30.375 65.625-65.625 0-36.188-29.438-65.625-65.625-65.625h-28.125v-93.75h28.125c35.25 0.75 66.375-30.375 65.625-65.625 0-36.188-29.438-65.625-65.625-65.625h-28.125v-93.75h28.125c35.25 0.75 66.375-30.375 65.625-65.625 0-36.188-29.438-65.625-65.625-65.625h-28.125v-93.75h28.125c35.25 0.75 66.375-30.375 65.625-65.625 0-36.188-29.438-65.625-65.625-65.625h-28.125v-75h712.5v356.25c0 10.312 8.4375 18.75 18.75 18.75s18.75-8.4375 18.75-18.75v-375c0-10.312-8.4375-18.75-18.75-18.75h-750c-10.312 0-18.75 8.4375-18.75 18.75v93.75h-28.125c-35.438-0.75-66.188 30.375-65.625 65.625 0 36.188 29.438 65.625 65.625 65.625h28.125v93.75h-28.125c-35.438-0.75-66.188 30.375-65.625 65.625 0 36.188 29.438 65.625 65.625 65.625h28.125v93.75h-28.125c-35.438-0.75-66.188 30.375-65.625 65.625 0 36.188 29.438 65.625 65.625 65.625h28.125v93.75h-28.125c-35.438-0.75-66.188 30.375-65.625 65.625 0 36.188 29.438 65.625 65.625 65.625h28.125v112.5c0 10.312 8.4375 18.75 18.75 18.75h750c10.312 0 18.75-8.4375 18.75-18.75v-102.38c30.188-12 57.75-32.625 74.812-90.75 19.5-73.125 25.688-191.25-16.125-237.38l28.312-61.312 34.875 16.125c9.1875 4.3125 20.625 0.375 24.938-9.1875l90-194.81c8.4375-18.188 9.1875-38.812 2.25-58.125zm-200.62 534.94c-30.75 146.06-266.44 36.562-174.38-80.062 49.688-68.25 110.81-117.75 143.81-127.12l-79.125 171.19c-4.3125 9.375-0.1875 20.438 9.1875 24.75 9.1875 4.3125 20.625 0.375 24.938-9.1875l77.438-167.62c16.5 37.875 16.875 118.31-1.875 188.06z"/>
</svg>
