<?xml version="1.0" encoding="UTF-8"?>
<svg width="1200pt" height="1200pt" version="1.1" viewBox="0 0 1200 1200" xmlns="http://www.w3.org/2000/svg">
 <path d="m600 1008c298.22 0 540-182.68 540-408 0-4.1719-0.09375-8.2969-0.23438-12.422-9.5625 2.3438-18.562 7.0781-26.812 13.594-15.938 12.609-28.078 31.453-33.422 50.109-7.8281 27.469-17.391 52.5-34.922 70.5-18.094 18.609-43.125 28.219-78.609 28.219-45.609 0-68.25 11.25-84.516 24.938-7.5469 6.3281-13.875 13.266-20.859 20.953-0.98438 1.125-2.0156 2.25-3.0469 3.375-8.0625 8.8125-17.016 18.234-28.594 26.484-13.547 9.7031-25.922 14.391-38.062 15.094-12.047 0.65625-22.453-2.7656-31.734-6.75-4.125-1.7812-8.0156-3.6094-11.859-5.4375-13.875-6.5625-26.719-12.656-45.328-12.656-23.344 0-37.406 7.3594-54.188 16.125l-1.0312 0.51562c-17.719 9.2344-37.828 19.359-70.781 19.359-18.141 0-31.734-3-42.797-8.2031-11.016-5.25-18.609-12.281-24.938-18.797-1.3125-1.3594-2.5312-2.6719-3.7969-3.9375-10.359-10.922-18.609-19.641-38.625-23.25-29.203-5.2969-47.719-0.51562-67.078 4.5469l-2.0156 0.51562c-20.953 5.4375-43.031 10.547-76.219 0.60938-16.031-4.7812-27.562-10.641-36.516-17.578s-14.672-14.531-19.5-21.75c-1.2656-1.875-2.4375-3.75-3.6562-5.5781-7.5938-11.859-14.719-22.828-33.234-34.406-21.656-13.547-35.906-16.875-49.359-20.062-1.2188-0.28125-2.4375-0.5625-3.6562-0.84375-7.5469-1.8281-15.516-3.9844-24.094-8.3438-8.5781-4.4062-17.297-10.734-27-20.438-23.062-23.062-37.266-55.312-47.25-87.422-4.3594-14.203-8.0156-28.734-11.25-42.844-3.3281 18.234-5.0156 36.844-5.0156 55.781 0 225.32 241.78 408 540 408z"/>
 <path d="m1098 582.32c11.531-9.1406 25.031-15.984 39.797-18.891-24.469-208.22-255.94-371.44-537.84-371.44-249.42 0-459.37 127.78-521.39 301.45 1.1719 5.3906 2.3438 10.922 3.5625 16.594 4.6875 22.359 9.7969 46.453 17.062 69.891 9.5156 30.891 22.312 58.641 41.25 77.578 8.2969 8.2969 15 12.984 20.906 16.031 6 3 11.766 4.6406 18.844 6.375 1.1719 0.28125 2.3906 0.5625 3.6094 0.84375 14.062 3.3281 31.453 7.4062 56.531 23.062 23.25 14.531 32.953 29.672 40.781 41.906 1.125 1.7812 2.25 3.4688 3.3281 5.1094 4.1719 6.2812 8.2031 11.438 14.25 16.125 6.0469 4.6875 14.766 9.375 28.734 13.547 26.812 8.0625 43.734 4.1719 63.281-0.89062l2.25-0.5625c19.875-5.2031 42.703-11.109 77.156-4.875 27.938 5.1094 41.062 19.031 51.797 30.375 1.2188 1.2656 2.3906 2.5312 3.5625 3.7031 5.5781 5.8125 10.781 10.453 17.953 13.828 7.1719 3.375 17.109 5.9062 32.531 5.9062 27.047 0 42.938-7.875 59.719-16.641l1.5938-0.84375c16.875-8.8125 35.438-18.516 64.688-18.516 24.562 0 43.266 8.9531 57.516 15.797 3.2812 1.5938 6.3281 3.0469 9.1406 4.2656 7.9219 3.375 14.344 5.1562 20.953 4.7812 6.4688-0.32812 14.531-2.8594 25.406-10.594 9.4219-6.75 16.969-14.531 24.844-23.203 0.98437-1.0312 1.9688-2.1094 2.9531-3.2344 6.8906-7.5469 14.344-15.797 23.203-23.25 21.234-17.812 49.594-30.562 99.984-30.562 30.797 0 48.984-8.1562 61.406-20.953 13.078-13.406 21.328-33.375 29.062-60.328 6.6562-23.344 21.516-46.5 41.578-62.391zm-504.05 29.672c109.36 0 198-42.984 198-96s-88.641-96-198-96-198 42.984-198 96 88.641 96 198 96zm6-312c-6.6094 0-12 5.3906-12 12s5.3906 12 12 12c61.5 0 143.76 14.719 210.24 45.375 67.078 30.984 113.77 75.984 113.77 134.63 0 6.6094 5.3906 12 12 12s12-5.3906 12-12c0-73.359-58.312-124.36-127.74-156.37-70.031-32.344-155.76-47.625-220.26-47.625z" fill-rule="evenodd"/>
</svg>
