<?xml version="1.0" encoding="UTF-8"?>
<svg width="1200pt" height="1200pt" version="1.1" viewBox="0 0 1200 1200" xmlns="http://www.w3.org/2000/svg">
 <path d="m1008 60h-816c-73.199 0-132 55.199-132 123.6v620.4c0 68.398 58.801 123.6 132 123.6h86.398v183.6c0 10.801 7.1992 21.602 18 26.398 4.8008 2.3984 8.3984 2.3984 13.199 2.3984 7.1992 0 14.398-2.3984 20.398-6l272.4-206.4h405.61c73.199 0 132-55.199 132-123.6v-620.4c0-68.402-58.801-123.6-132-123.6zm70.801 742.8c0 36-31.199 64.801-69.602 64.801h-418.8c-7.1992 0-14.398 2.3984-20.398 6l-229.2 174v-151.2c0-15.602-14.398-28.801-31.199-28.801h-117.6c-38.398 0-69.602-28.801-69.602-64.801v-616.8c0-36 31.199-64.801 69.602-64.801h818.4c38.398 0 69.602 28.801 69.602 64.801v616.8z"/>
 <path d="m312 666h72v-146.4h156v-61.203h-156v-80.398h177.6v-62.398h-249.6z"/>
 <path d="m883.2 637.2c-1.1992-6-2.3984-16.801-2.3984-32.398v-24c0-24-3.6016-43.199-9.6016-55.199-7.1992-12-18-21.602-34.801-27.602 19.199-7.1992 33.602-18 42-33.602 8.3984-15.602 12-32.398 12-49.199 0-13.199-2.3984-26.398-6-37.199-3.6016-10.801-10.801-20.398-18-30-8.3984-10.801-20.398-19.199-32.398-24-13.199-6-31.199-8.3984-55.199-9.6016h-168v350.4h72v-136.8h72c20.398 0 34.801 3.6016 42 10.801s10.801 22.801 12 44.398v32.398c0 10.801 1.1992 20.398 3.6016 30 1.1992 4.8008 2.3984 10.801 4.8008 19.199h80.398v-8.3984c-8.4023-3.5977-13.203-10.797-14.402-19.199zm-86.398-172.8c-8.3984 3.6016-19.199 6-34.801 6h-79.199v-93.602h80.398c15.602 0 26.398 2.3984 33.602 6 13.199 7.1992 20.398 21.602 20.398 43.199 0 19.203-7.1992 32.402-20.398 38.402z"/>
</svg>
