<?xml version="1.0" encoding="UTF-8"?>
<svg width="1200pt" height="1200pt" version="1.1" viewBox="0 0 1200 1200" xmlns="http://www.w3.org/2000/svg">
 <path d="m1123.1 774.05c0.09375 0.65625 0.14062 1.2656 0.14062 1.9219 0.89062 11.672-0.09375 23.25-2.8594 34.172-6.0469 24.141-20.625 45.422-42.516 59.203l-343.5 215.9c-22.078 13.875-47.812 17.719-72.375 12.516-24.094-5.1094-47.062-18.984-64.172-40.594l-131.44-166.18c-0.46875-0.51563-0.9375-1.125-1.3594-1.6875l-186.19-235.36-112.92-55.641c-6.6562-1.7344-11.719-4.7812-15.047-9.1875l-0.23438-0.32812v-0.046875l-0.046875-0.046875c-0.46875-0.65625-0.89062-1.3125-1.2656-2.0156-0.046875-0.09375-0.09375-0.14062-0.09375-0.1875l-0.046875-0.14062c-11.859-22.453 18.656-65.344 78.141-116.91 54.703-47.438 134.58-105.8 226.74-163.69 92.297-58.031 179.53-104.77 245.9-133.4 55.922-24.141 99.656-34.922 123.52-29.109l41.203-25.922c26.438-16.641 57.281-20.953 85.641-14.484 28.406 6.4688 54.328 23.719 70.969 50.156l62.156 98.906c8.625 13.734 10.875 29.672 7.5469 44.344-3.375 14.719-12.281 28.125-26.016 36.75l-5.5781 3.4688c-13.734 8.625-29.672 10.875-44.344 7.5469-14.719-3.375-28.125-12.281-36.75-26.016l-56.531-89.953-38.438 24.141 228.89 483.05c6 12.656 9.5156 25.781 10.734 38.766zm-640.18 85.312c157.31-80.109 219-54.516 269.95-33.328 37.594 15.609 68.25 28.359 144.66-27.562 31.547-25.078 62.484-40.266 97.125-46.359 27.516-4.8281 56.906-3.8438 90.516 2.625-0.70312-1.8281-1.5469-3.7031-2.3906-5.5312l-257.06-542.44c-13.781 19.125-35.25 41.344-63.047 65.438-54.609 47.391-134.39 105.61-226.4 163.45l0.046874 0.046875c-0.46875 0.32812-0.98437 0.60938-1.4531 0.89062-91.922 57.703-178.69 104.2-244.78 132.74-23.109 9.9844-44.156 17.672-62.578 22.875l69.094 34.031v0.046874c2.1094 1.0312 4.0312 2.5312 5.5781 4.5l180.79 228.56zm-275.53 21.656c13.875-13.875 22.5-33.094 22.5-54.281 0-30.656-40.359-85.219-69.562-124.74-2.4844-3.375-4.9219-6.6562-7.2188-9.75-2.2969 3.1406-4.7344 6.4219-7.2188 9.75-29.203 39.469-69.562 94.031-69.562 124.74 0 21.188 8.5781 40.406 22.5 54.281 13.875 13.875 33.094 22.5 54.281 22.5s40.406-8.5781 54.281-22.5zm580.18-548.02 78.234 165.14c3.8438 8.1562 13.594 11.672 21.75 7.7812 8.1562-3.8438 11.672-13.594 7.7812-21.75l-78.234-165.14c-3.8438-8.1562-13.594-11.672-21.75-7.7812-8.1562 3.8438-11.672 13.594-7.7812 21.75zm103.27 217.92 1.3594 2.9062c3.8438 8.1562 13.594 11.672 21.75 7.7812 8.1562-3.8438 11.672-13.594 7.7812-21.75l-1.3594-2.9062c-3.8438-8.1562-13.594-11.672-21.75-7.7812-8.1562 3.8438-11.672 13.594-7.7812 21.75zm26.391 55.688 48.516 102.38c3.8438 8.1562 13.594 11.672 21.75 7.7812 8.1562-3.8438 11.672-13.594 7.7812-21.75l-48.516-102.38c-3.8438-8.1562-13.594-11.672-21.75-7.7812-8.1562 3.8438-11.672 13.594-7.7812 21.75zm-378.71 211.31 33.422-21c7.6406-4.7812 9.8906-14.859 5.1094-22.5s-14.859-9.8906-22.5-5.1094l-33.422 21c-7.6406 4.7812-9.8906 14.859-5.1094 22.5s14.859 9.8906 22.5 5.1094zm-47.156-62.719 77.062-48.422c7.6406-4.7812 9.8906-14.859 5.1094-22.5s-14.859-9.8906-22.5-5.1094l-77.062 48.422c-7.6406 4.7812-9.8906 14.859-5.1094 22.5s14.859 9.8906 22.5 5.1094zm-47.438-62.531 33.422-21c7.6406-4.7812 9.8906-14.859 5.1094-22.5s-14.859-9.8906-22.5-5.1094l-33.422 21c-7.6406 4.7812-9.8906 14.859-5.1094 22.5s14.859 9.8906 22.5 5.1094zm-47.484-62.484 77.062-48.422c7.6406-4.7812 9.8906-14.859 5.1094-22.5s-14.859-9.8906-22.5-5.1094l-77.062 48.422c-7.6406 4.7812-9.8906 14.859-5.1094 22.5s14.859 9.8906 22.5 5.1094zm472.97-407.63 44.109-27.703c5.0625-3.1875 11.156-3.9844 16.547-2.7656 5.4844 1.2656 10.641 4.5938 13.828 9.6562l62.156 98.906c3.8438 6.0938 9.7969 10.078 16.312 11.578 6.5625 1.5 13.688 0.51563 19.781-3.3281l5.5781-3.4688c6.0938-3.8438 10.078-9.7969 11.578-16.312 1.5-6.5625 0.51562-13.688-3.3281-19.781l-62.156-98.906c-11.859-18.844-30.281-31.125-50.531-35.719-20.25-4.6406-42.281-1.5938-61.078 10.266l-38.156 24 25.406 53.625zm-56.859-51.047c-0.1875-0.23437-0.32812-0.42187-0.51562-0.65625-5.7188-5.0156-42.938 7.3125-99.094 31.547-65.156 28.125-150.79 74.016-241.4 130.97-90.75 57.047-169.26 114.33-222.79 160.78-42.422 36.844-68.859 63.609-71.297 73.406l8.4844 4.1719c14.625-1.6875 47.109-13.359 91.219-32.438 64.922-28.031 150.14-73.688 240.37-130.31 0.23438-0.14062 0.42188-0.32812 0.65625-0.46875l0.046875 0.046876 0.375-0.23438c90.75-57.047 169.26-114.33 222.79-160.78 40.781-35.391 66.797-61.547 70.875-72.188-0.046875-1.3125 0.046875-2.5781 0.28125-3.8438z" fill-rule="evenodd"/>
</svg>
