<?xml version="1.0" encoding="UTF-8"?>
<svg width="1200pt" height="1200pt" version="1.1" viewBox="0 0 1200 1200" xmlns="http://www.w3.org/2000/svg">
 <path d="m1143.8 571.88h-262.5v-168.75c0-10.312-8.4375-18.75-18.75-18.75h-398.06l5.4375-94.312c101.62-81.75-8.0625-243.75-117.19-163.88-35.25-54.938-122.62-54.938-157.88 0-109.12-79.875-218.81 82.125-117.19 163.69 3.5625 63.375 13.312 241.88 19.312 302.25 0.75 9.75 9 17.25 18.75 17.25h71.812v225c0 3.9375 1.125 7.6875 3.5625 10.875l93.75 131.25c9.75 14.812 34.5 6.75 33.938-10.875v-112.5h187.5v112.5c0 10.312 8.4375 18.75 18.75 18.75h281.25v112.5c-0.5625 18 24.75 25.688 34.312 10.312l82.125-122.81h221.06c10.312 0 18.75-8.4375 18.75-18.75v-375c0-10.312-8.4375-18.75-18.75-18.75zm-1010.8 0-4.3125-53.25h290.25l-4.3125 53.25zm710.81 243.75h-543.75c-10.312 0-18.75 8.4375-18.75 18.75v72.75l-56.25-78.75v-219h206.81c9.75 0 18-7.5 18.75-17.25l7.3125-90.75v-0.375l4.5-79.125h381.38zm225-18.75h-131.25c-24.75-0.375-24.562-37.125 0-37.5h131.25c24.75 0.375 24.562 37.125 0 37.5z"/>
 <path d="m618.75 628.12h150c24.602-0.39844 24.68-37.086 0-37.5h-150c-24.602 0.39844-24.68 37.086 0 37.5z"/>
 <path d="m787.5 703.12c0-10.363-8.3945-18.75-18.75-18.75h-262.5c-10.355 0-18.75 8.3867-18.75 18.75s8.3945 18.75 18.75 18.75h262.5c10.355 0 18.75-8.3867 18.75-18.75z"/>
</svg>
