<?xml version="1.0" encoding="UTF-8"?>
<svg width="1200pt" height="1200pt" version="1.1" viewBox="0 0 1200 1200" xmlns="http://www.w3.org/2000/svg">
 <path d="m672 119.72c0-33.422 11.812-59.719 47.203-59.719 47.203 0 49.172 25.875 47.203 41.812 28.312 19.125 27.516 46.219 23.578 57.422-9.4219-6.6562-35.391 2.7656-47.203 8.25-14.156-19.078-37.359-15.891-47.203-11.906-7.8281 1.9688-23.578-2.3906-23.578-35.859z"/>
 <path d="m516 179.48c0-33.562-36-45.984-54-48 67.219-105.56 111.98-60 126-24 14.391-24 50.016-18 66-12-12 18-8.0156 46.031 6 60-14.391 0-30 24-36 36-33.609-19.172-66 0-78 12-14.391-14.391-26.016-21.984-30-24z"/>
 <path d="m456 281.48c4.7812-67.172-38.016-96-60-102-2.0156-12 4.7812-34.781 48-30 43.219 4.8281 54 30 54 42 48 19.219 56.016 56.016 54 72-28.781 0-51.984 16.031-60 24-9.6094-9.5625-27.984-7.9688-36-6z"/>
 <path d="m276 359.48c-14.391-38.391-57.984-55.969-78-60 4.7812-38.391 54-36 78-30-14.016-24-21.609-73.172 60-78 81.609-4.7812 98.016 70.031 96 108-57.609 9.6094-60 48-60 96-33.609-38.391-60-54-96-36z"/>
 <path d="m276 983.48-144-642c26.016-21.984 96-36 144 60l89.203 618.32 90.188 36.797-77.391-631.13c24-25.969 96-48 150 30l23.719 640.36 48.281 19.641 48.281-19.641 23.719-640.36c54-78 126-55.969 150-30l-77.391 631.13 90.188-36.797 89.203-618.32c48-96 117.98-81.984 144-60l-144 642-6 24-318 132-318-132z"/>
 <path d="m396 383.48c-2.0156-27.984 16.781-81.609 108-72 15.984-21.984 57.609-50.391 96 12 28.547 46.453-0.23438 52.5-29.531 58.641-19.922 4.1719-40.031 8.3906-42.469 25.359-21.984-13.969-79.219-38.391-132-24z"/>
 <path d="m558 215.48c8.0156 8.0156 21.609 30 12 54 6 2.0156 20.391 8.4375 30 18 2.0156-9.9844 14.391-28.781 48-24-9.9844-27.984-42-76.781-90-48z"/>
 <path d="m612 299.48c14.016 17.859 36 60.188 12 86.812 14.016 5.0625 43.219 18.797 48 33.188 8.0156-13.875 33.609-42.234 72-44.812 6.5625-23.062 4.9219-69.188-54-69.188-15.984-18-54-44.391-78-6z"/>
 <path d="m739.97 278.29c1.0312-14.484 2.3438-31.969 16.031-38.812 24-12-30-84-78-72-38.391 9.6094-36 36-30 48 9.9844 10.031 28.781 36 24 60l30 18h36c1.125-3.9844 1.5469-9.3281 1.9688-15.188z"/>
 <path d="m750 179.48c14.016-7.9688 72-24 90 6 3.75 6.2812 10.453 12.141 17.297 18.141 15.094 13.266 31.078 27.234 18.703 47.859-15.984-1.9688-33.609 7.2188-48 36-9.9844-3.9844-43.219-9.5625-72 24 0.32812-3.1406 0.51562-6.7969 0.75-10.781 1.2656-21.234 3-51.141 23.25-55.219 3.9844-19.969-6-61.172-30-66z"/>
 <path d="m792 305.48c-38.391 9.6094-32.016 56.016-24 78 19.219-14.391 56.906-6 66 0 31.453-33.562 60.234-30 78-24 18-30 18-66-12-90-24-19.172-50.016 20.016-60 42 0-6-9.6094-15.562-48-6z"/>
 <path d="m894 251.48c24 6 56.391 42 42 90 14.016-9.9844 52.781-36 72-36-2.0156-13.969-12-40.781-36-36-8.0156-24-42-66-78-18z"/>
</svg>
