<?xml version="1.0" encoding="UTF-8"?>
<svg width="1200pt" height="1200pt" version="1.1" viewBox="0 0 1200 1200" xmlns="http://www.w3.org/2000/svg">
 <path d="m102.66 275.9c-8.8594-9.0469-8.8594-23.719-0.09375-32.719 8.8125-9.0469 23.156-9 32.016 0.046875l165.66 169.64c11.812 12.047 30.891 12.094 42.609 0.09375 11.766-12.047 11.719-31.594-0.09375-43.688l-165.66-169.6c-8.8594-9.0469-8.8594-23.719-0.046875-32.719 8.8125-9.0469 23.109-9 31.969 0.046875l165.66 169.64c11.812 12.047 30.891 12.094 42.656 0.09375 11.719-12.047 11.672-31.594-0.14062-43.688l-165.66-169.6c-8.8125-9.0469-8.8594-23.719-0.046875-32.719 8.8125-9.0469 23.109-9 31.969 0.09375l240.47 246.19c35.391 36.234 35.531 94.875 0.32812 130.97l70.594 72.281 472.18-451.6c7.0312-6.7031 18.375-6.4688 22.078 2.2969 12.938 51.656-13.031 157.22-167.11 362.44-18.656 23.297-33.047 42.375-44.766 57.891-36.516 48.469-46.594 61.828-78.188 59.391-8.25-0.65625-15.656-7.7344-23.766-15.516-12.656-12.141-27.047-25.922-48.984-19.688-18.516 5.25-46.547 26.766-79.547 57.938l165.79 169.74c91.5 93.656 154.97 132.37 201.42 160.74 26.859 16.359 48 29.297 65.625 47.297 32.438 33.234 32.578 87 0.28125 120.1-32.297 33.047-84.797 32.906-117.28-0.32813-17.578-18-30.188-39.656-46.219-67.125-27.703-47.578-65.531-112.59-156.98-206.26l-166.18-170.11c-92.672 98.578-202.55 236.81-258.79 309.84-40.125 52.172-73.594 95.672-93.188 114.42-63.469 60.703-101.44 48.656-126.71 24.516-25.266-24.188-31.5-66.516 25.641-121.18l399.71-382.22-68.812-70.453c-35.25 36.094-92.531 35.953-127.92-0.32812z"/>
</svg>
