<?xml version="1.0" encoding="UTF-8"?>
<svg width="1200pt" height="1200pt" version="1.1" viewBox="0 0 1200 1200" xmlns="http://www.w3.org/2000/svg">
 <path d="m660.11 489.89v-8.4141c-1.0391-15.637-7.8008-29.707-18.219-40.125-11.34-11.34-27.023-18.355-44.328-18.355-17.312 0-32.988 7.0156-44.328 18.355-11.34 11.34-18.355 27.012-18.355 44.328 0 17.312 7.0156 32.988 18.355 44.328 11.34 11.34 27.012 18.355 44.328 18.355 17.312 0 32.988-7.0156 44.328-18.355 10.418-10.41 17.191-24.48 18.219-40.117zm45.82-281.77-105.96-90.098-105.07 90.098zm265.7 326.49 57.051-48.918-57.051-48.918zm-748.12-93.773-52.309 44.852 52.309 44.852zm247.09 345.48-308.23 264.29v-528.59zm233.08 21.953-92.902 79.664c-6.3672 5.4492-15.688 5.2539-21.809-0.12109l-92.766-79.543-319.2 273.7h845.88zm333.96-286.36v528.8l-308.35-264.39zm-99.43-118.63v159.98l-338.27 290.06-343.02-294.12v-303.33c0-3.918 1.6172-7.5078 4.2109-10.102 2.6094-2.6094 6.1836-4.2109 10.102-4.2109l652.64-0.003906c3.918 0 7.5078 1.6172 10.102 4.2109 2.6094 2.6094 4.2109 6.1836 4.2109 10.102v141.22c-0.37891 2.0469-0.36719 4.1562 0.011719 6.1992zm-340.64-13.715c23.879 0 45.734 8.7188 62.547 23.145v-6.2461c0-9.2344 7.4805-16.715 16.715-16.715s16.715 7.4805 16.715 16.715v74.008c0.085938 1.7266 0.14844 3.4648 0.14844 5.2031 0 1.75-0.050781 3.4883-0.14844 5.2031v47.523c1.125 12.77 6.8438 21.133 14.301 24.602 3.5742 1.6523 7.6406 2.2891 11.828 1.8359 4.543-0.48828 9.3047-2.2656 13.898-5.3867 15.062-10.262 27.504-33.93 27.504-73.789 0-45.16-18.305-86.031-47.891-115.63-29.582-29.582-70.469-47.891-115.63-47.891-45.16 0-86.031 18.305-115.63 47.891-29.582 29.582-47.891 70.469-47.891 115.63 0 45.16 18.305 86.031 47.891 115.63 29.582 29.582 70.469 47.891 115.63 47.891 14.621 0 28.715-1.8867 42.012-5.3984 13.738-3.6367 26.828-9.0742 39-16.027 8.0078-4.5781 18.207-1.8008 22.777 6.1953 4.5781 8.0078 1.8008 18.207-6.1953 22.777-14.559 8.3281-30.367 14.852-47.094 19.285-16.211 4.2969-33.148 6.5742-50.496 6.5742-54.379 0-103.62-22.039-139.25-57.688-35.633-35.645-57.688-84.871-57.688-139.25s22.039-103.62 57.688-139.25c35.645-35.633 84.871-57.688 139.25-57.688 54.379 0 103.62 22.039 139.25 57.688 35.633 35.645 57.688 84.883 57.688 139.25 0 52.578-19.066 85.617-42.133 101.33-9.2812 6.3203-19.285 9.9414-29.18 11.008-10.223 1.1016-20.301-0.52734-29.328-4.7148-14.203-6.6016-25.652-19.262-30.871-37.238-17.156 15.969-40.164 25.727-65.438 25.727-26.535 0-50.57-10.762-67.961-28.152-17.398-17.387-28.152-41.426-28.152-67.961s10.762-50.57 28.152-67.961c17.41-17.355 41.445-28.121 67.98-28.121z" fill-rule="evenodd"/>
</svg>
