<?xml version="1.0" encoding="UTF-8"?>
<svg width="1200pt" height="1200pt" version="1.1" viewBox="0 0 1200 1200" xmlns="http://www.w3.org/2000/svg">
 <path d="m252.62 273.36c-9.3125 88.5 16.824 147.57 31.344 183.57-27.926 46.801-43.465 102.35-43.859 164.66-73.043-36.613-101.4-86.543-122.53-144.48 25.176-81.383 71.961-150.48 135.05-203.76z"/>
 <path d="m143.2 834.27c-35.172-72.086-50.711-150.39-45.816-239.48 45.504 60.07 95.16 86.16 151.95 109.45 15.301 65.578 49.598 120.65 99.012 161.8-103.57 30.418-169.14-11.668-205.14-31.766z"/>
 <path d="m1054.2 408.38c40.715 80.629 58.848 176.64 44.941 283.14-49.055-67.789-105.83-93.371-141.83-110.06-10.008-86.09-50.508-157.01-113.9-206.17 75.719-25.227 144.96-3.7227 210.79 33.094z"/>
 <path d="m947.53 974.51c8.9531-73.848-6.8516-128.12-30.023-185.77 21.719-37.188 35.664-79.812 40.488-126.93 64.609 34.453 93.73 79.332 114.85 135.38-26.496 69.941-69.289 129.95-125.32 177.32z"/>
 <path d="m604.55 947.82c-51.035 91.246-119.71 112.67-155.72 125.8-92.891-23.508-171.41-69.133-230.81-131.57 85.176 16.824 143.1-1.2852 206.96-28.609 56.855 25.176 117.79 34.906 179.57 34.379z"/>
 <path d="m573.19 1090.9c59.398-44.988 89.594-93.59 114.76-151.05 71.051-13.223 131.16-42.562 176.63-85.02 28.066 89.09 5.7734 143.61-7.8359 179.61-89.137 44.781-185.01 60.441-283.55 56.469z"/>
 <path d="m975.6 299.36c-60.121-60.562-139.18-103.97-231.6-126.25v-17.109c0-19.883-16.105-36-36-36h-216c-19.895 0-36 16.117-36 36v16.934c-41.074 9.9375-79.645 23.844-114.95 41.809-20.723 55.871-26.016 111.37-4.2109 177 32.711-30.121 72.949-53.473 119.16-69.156v13.414c0 19.883 16.105 36 36 36h216c19.895 0 36-16.117 36-36v-12.77c6.9375 2.375 14.074 4.5 20.746 7.2109 37.25-17.168 103.21-53.902 210.86-31.078zm-303.6 0.63672h-144v-108h144z"/>
</svg>
