<?xml version="1.0" encoding="UTF-8"?>
<svg width="1200pt" height="1200pt" version="1.1" viewBox="0 0 1200 1200" xmlns="http://www.w3.org/2000/svg">
 <path d="m601.03 288c33.141 0 60-26.859 60-60s-26.859-60-60-60-60 26.859-60 60 26.859 60 60 60z"/>
 <path d="m601.03 468c61.5 0 118.73-8.625 161.58-25.547 31.219-12.375 60.469-31.734 72.562-59.812 44.25 37.547 78.094 85.828 96.984 140.58 13.078-7.6875 22.172-24.984 28.875-55.219 12-54 54-144 108-144 72 0 72 6 72 30 0 8.25-4.9688 15.844-11.766 26.109-12.891 19.547-32.297 48.984-36.234 111.89-9 144-44.953 276.94-185.81 287.34-58.078 100.5-170.72 168.66-300.19 168.66-117.47 0-221.16-56.109-282.71-141.61-198-57.141-253.13-164.44-263.29-266.39-6-60 12-186 114-192 71.531-4.2188 129.84 46.594 157.97 82.125 11.344-14.344 23.906-27.797 37.5-40.172 13.734 24.188 40.547 41.25 68.953 52.5 42.844 16.922 100.08 25.547 161.58 25.547zm-317.26 49.875c-12.141 33.234-18.75 68.953-18.75 106.12 0 18.703 1.6875 37.031 4.875 54.844-93.422-27.891-119.53-79.875-124.4-129.24-2.8594-29.203 5.7656-90.562 54.562-93.469 30.609-1.875 65.203 36.938 83.719 61.734z" fill-rule="evenodd"/>
 <path d="m682.31 249.24c-9.375 36.094-42.234 62.766-81.281 62.766s-71.906-26.672-81.281-62.766c-79.031 18.469-134.72 62.016-134.72 104.77 0 56.344 96.703 90 216 90 119.3 0 216-33.656 216-90 0-42.75-55.688-86.297-134.72-104.77z"/>
 <path d="m421.03 984v-49.922c54 24.234 115.17 37.922 180 37.922s126-13.688 180-37.922v49.922s0 54-180 54-180-54-180-54z"/>
</svg>
