<?xml version="1.0" encoding="UTF-8"?>
<svg width="1200pt" height="1200pt" version="1.1" viewBox="0 0 1200 1200" xmlns="http://www.w3.org/2000/svg">
 <path d="m981.61 218.39c-102-102-237.61-158.39-381.61-158.39s-279.61 56.391-381.61 158.39c-102 102-158.39 237.61-158.39 381.61s56.391 279.61 158.39 381.61c102 102 237.61 158.39 381.61 158.39s279.61-56.391 381.61-158.39c102-102 158.39-237.61 158.39-381.61s-56.391-279.61-158.39-381.61zm-111.61 128.39c15.609 16.781 19.219 40.781 58.781 36 38.391-4.7812 37.219 20.391 33.609 26.391-4.7812 8.3906-22.781 13.219-52.781 2.3906-30-9.6094-27.609 14.391-56.391 3.6094s-14.391-22.781-26.391-33.609c-12-10.781-25.219-1.2188-49.219 4.7812s-27.609-4.7812-9.6094-22.781c10.781-10.781 24-16.781 46.781-34.781 22.828-14.391 38.438 1.2188 55.219 18zm-270 739.22c-267.61 0-486-218.39-486-486 0-18 1.2188-36 2.3906-54 4.7812-1.2188 9.6094-2.3906 13.219-3.6094 13.219-4.7812 16.781 9.6094 25.219 12 9.6094 1.2188 25.219 1.2188 30 21.609s19.219 32.391 40.781 28.781c21.609-3.6094 25.219 8.3906 8.3906 40.781-16.781 31.219-1.2188 51.609 9.6094 78 10.781 26.391 37.219 46.781 66 64.781 28.781 16.781 16.781 120 28.781 141.61 12 21.609 30 64.781 44.391 86.391 28.781 44.391 94.781 46.781 64.781 24-24-18-24-31.219-32.391-58.781-8.3906-27.609 20.391-49.219 30-61.219 10.781-12 20.391-51.609 20.391-72s50.391-25.219 45.609-48c-3.5625-22.734 4.8281-52.734 16.828-68.344 13.219-15.609 12-50.391-42-57.609s-46.781-62.391-67.219-63.609c-21.609 0-33.609 0-63.609-27.609s-82.781-28.781-87.609-15.609c-4.7812 13.219-12 16.781-22.781 13.219-10.781-3.6094-19.219 18-32.391 1.2188-13.219-16.781 15.609-30 6-38.391-10.781-9.6094-36 3.6094-31.219-12s-1.2188-38.391-12-25.219c-10.781 13.219-36 27.609-42-13.219-4.7812-40.781 60-63.609 76.781-48s37.219 25.219 40.781-2.3906c3.6094-28.781 36-30 45.609-45.609 9.6094-14.391 15.609-28.781 44.391-42s46.781-51.609 62.391-63.609 58.781-2.3906 63.609-20.391c4.7812-18-16.781-40.781-36-39.609-19.219 1.2188-20.391-15.609-38.391-8.3906-19.219 8.3906-9.6094 32.391-44.391 39.609s-49.219-34.781-21.609-50.391c27.609-16.781 64.781-9.6094 64.781-18 0-9.6094 20.391-31.219 34.781-34.781 14.391-2.3906 28.781 6 18 16.781s-7.2188 25.219-7.2188 25.219c24 18 51.609-12 62.391-24s-8.3906-16.781-25.219-33.609c-4.7812-4.7812-4.7812-9.6094-3.6094-12 18-4.7812 36-8.3906 54-12 13.219 3.6094 18 15.609 9.6094 50.391 0 1.2188 0 1.2188-1.2188 2.3906-6 27.609 26.391 46.781 48 28.781 28.781-25.219 91.219-33.609 104.39-49.219 7.2188-7.2188 12-18 15.609-27.609 42 9.6094 82.781 24 121.22 43.219-31.219 26.391-25.219 51.609-14.391 69.609 13.219 22.781-22.781 38.391-49.219 44.391-26.391 6 0 37.219-28.781 42-30 3.6094-36 38.391-18 62.391s-67.219 68.391-69.609 118.78c-2.3906 50.391 16.781 86.391 48 111.61s51.609-8.3906 87.609 0 24 28.781 37.219 54 31.219 51.609 19.219 87.609-4.7812 46.781 10.781 69.609c15.609 24 27.609 76.781 33.609 94.781 0 0 42-2.3906 63.609-28.781 21.609-27.609 15.609-43.219 30-49.219 14.391-6 18-16.781 14.391-38.391-3.6094-21.609 26.391-12 36-30 9.6094-19.219-28.781-63.609 4.7812-99.609 33.609-37.219 50.391-48 57.609-78 6-30-30-8.3906-54-12-13.219-2.3906-26.391-86.391-63.609-134.39-1.2188-1.2188 0-2.3906 1.2188-1.2188 7.2188 3.6094 25.219 13.219 39.609 32.391 20.391 26.391 21.609 82.781 58.781 72 6-1.2188 12-3.6094 16.781-6 1.2188 16.781 2.3906 33.609 2.3906 50.391 0.14062 267.71-218.26 486.1-485.86 486.1z"/>
</svg>
