<?xml version="1.0" encoding="UTF-8"?>
<svg width="1200pt" height="1200pt" version="1.1" viewBox="0 0 1200 1200" xmlns="http://www.w3.org/2000/svg">
 <path d="m1192.2 931.87-265.49-225.11c-13.703-11.641-32.656-14.914-49.469-8.5664l-37.504 14.105c-42.398 15.965-91.137 3.9219-121.25-29.867l-323-349.11-62.16 62.16 349.15 323.12c33.746 30.027 45.75 78.77 29.785 121.16l-14.105 37.504c-6.3477 16.812-3.0312 35.766 8.5664 49.469l225.11 265.45c7.0312 8.3242 19.316 10.227 28.574 4.4844 96.633-60.098 176.09-139.55 236.19-236.19 5.9023-9.418 4.043-21.461-4.4023-28.613zm-243.5 181.5c-4.1602 3.3555-10.266 2.707-13.621-1.4531l-149.98-185.71c-1.6172-1.9805-2.3438-4.5273-2.1016-7.0742 0.28125-2.5859 1.5352-4.8906 3.5547-6.5078 2.0195-1.6562 4.5273-2.3828 7.1133-2.1016 2.5859 0.24219 4.8906 1.5352 6.5078 3.5156l149.94 185.71c3.3555 4.168 2.707 10.27-1.4141 13.625zm86.449-78.203c-3.7578 3.7578-9.9023 3.7578-13.703 0l-168.78-168.77c-3.7578-3.8008-3.7578-9.9414 0-13.699 1.8203-1.8203 4.2852-2.8281 6.8711-2.8281s5.0117 1.0117 6.8281 2.8281l168.78 168.77c3.7617 3.7578 3.7617 9.8984 0.003906 13.699zm78.203-86.488c-3.3516 4.1641-9.457 4.8086-13.617 1.4531l-185.67-149.94c-4.1641-3.3555-4.8125-9.457-1.457-13.621 1.6172-2.0195 3.9219-3.2734 6.5078-3.5547 0.36328-0.039062 0.6875-0.039062 1.0508-0.039062 2.1836 0 4.3242 0.72656 6.0625 2.1406l185.67 149.94c4.1641 3.3555 4.8125 9.457 1.457 13.621z"/>
 <path d="m105.96 20.465c-11.273-12.648-26.715-19.883-43.566-20.41-16.652-0.48438-32.336 5.6172-44.137 17.297l-0.96875 0.96875c-11.641 11.762-17.781 27.445-17.258 44.137 0.52734 16.812 7.7188 32.293 20.328 43.488l304 281.33 62.848-62.848zm-34.191 51.367c-6.9102 6.9102-18.188 6.9102-25.098 0-6.9492-6.9102-6.9492-18.188 0-25.137 3.4766-3.4336 8.0039-5.1719 12.57-5.1719 4.5234 0 9.0938 1.7383 12.527 5.1719 6.9492 6.9492 6.9492 18.227 0 25.137z"/>
</svg>
