<?xml version="1.0" encoding="UTF-8"?>
<svg width="1200pt" height="1200pt" version="1.1" viewBox="0 0 1200 1200" xmlns="http://www.w3.org/2000/svg">
 <path d="m477.52 331.55c-1.7812 1.3594-3.5156 2.7188-5.2031 4.125-2.4844-7.2656-4.6406-13.359-5.625-15.469-6.0469-12.891-10.031-32.25-12.234-55.125-4.4062-45.375-1.5-100.03 1.5-132.74 2.7188-30.094 13.359-44.953 24.75-53.906 3.0469-2.4375 6.3281-4.5469 9.7031-6.4219 23.859 3.6094 39.047 19.406 49.594 35.25 4.1719 5.0156 1.3125 4.4062-4.5938 3.1875-15.141-3.1875-50.344-10.641-37.406 62.812 22.078 125.11-0.70312 142.87-20.484 158.29z"/>
 <path d="m402 89.578c-2.625 0.09375-5.4375 0.28125-8.3906 0.46875-40.688 62.062-54.938 110.72-56.859 148.31-1.5469 30.234 4.8281 54.094 12.891 72.938 10.688-14.719 22.828-25.078 33.75-31.266-1.8281-9.7031-3.5625-20.719-5.2969-33.188-7.5-55.078 1.875-103.64 16.359-140.11 2.3906-6.0469 4.9219-11.812 7.5469-17.156z"/>
 <path d="m363.28 93.094c-15.469 2.0625-32.109 5.0156-47.438 9.0469-67.359 132.47-0.70312 244.18 11.766 255.47 2.1094-7.5 4.6406-14.484 7.5469-21-12-22.922-24.656-55.359-22.406-99.469 2.0156-39.234 15.703-86.672 50.531-144.05z"/>
 <path d="m258 143.26c0-12.281 10.266-22.031 25.688-29.625-28.969 58.406-27.328 117.38-15.188 165.37-18-17.25-37.5-39.75-34.5-69.75 4.7812-48 15.984-60 24-66z"/>
 <path d="m286.92 330.74c-5.2969 22.031 3.0938 63.469 18.516 139.82 2.0625 10.266 4.2656 21.141 6.5625 32.672 6.6562-5.0156 14.062-10.5 22.031-16.266-12.422-40.359-15-74.672-11.578-103.17-6.8906-4.3125-21.938-23.859-35.531-53.062z"/>
 <path d="m397.45 443.06c-14.578 9.5625-29.109 19.547-42.75 29.156-27.281-97.219 9.1875-148.69 34.266-167.16 1.3594 5.0625 2.7188 9.6094 4.1719 13.641 0.32812 0.9375 0.65625 1.875 0.98438 2.7656-5.2031 13.641-10.172 34.875-10.125 58.781 0.046875 19.734 3.5156 41.672 13.453 62.812z"/>
 <path d="m417.89 429.94c17.672-11.062 34.922-21.094 50.109-28.688-3.75-3.75-8.4375-10.547-10.922-19.125-4.3125-6.3281-8.0625-19.031-8.8594-45.469-1.5 1.5469-3.0938 3.0938-4.7812 4.5469-5.2969 4.6406-15.422 11.906-27.469 7.5938-1.5469-0.5625-2.9531-1.2656-4.3125-2.0625-2.1562 9.5625-3.7031 21.094-3.6562 33.469 0.046875 16.125 2.7188 33.328 9.8906 49.734z"/>
 <path d="m446.29 81.797c-7.2188 12.234-12.375 27.891-14.25 48.375-3 33.234-6.0938 89.625-1.5 137.21 1.5469 15.844 3.9844 31.266 7.7812 44.719-0.89062 0.9375-1.7344 1.8281-2.5312 2.7188l-0.046875 0.046875c-0.51562 0.60938-1.0781 1.1719-1.5938 1.7344-2.3438 2.5781-4.4531 4.7344-6.4688 6.5156-2.1094 1.7812-3.375 2.5312-3.9844 2.8125-0.375-0.32812-0.98438-0.98438-1.7812-2.1094-1.6875-2.3906-3.8438-6.5156-6.1875-13.078-4.6406-13.219-9.375-34.406-13.828-67.125-6.8906-50.531 1.7344-94.922 14.859-128.06 4.1719-10.547 8.7656-19.875 13.453-27.844 6.6562-1.3594 11.578-3.5625 16.078-5.9062z"/>
 <path d="m252 647.26c-12-102 228-240 294-252s132-6 222 66c33.422 26.719 61.031 42.703 84.422 56.203 39.562 22.922 66.938 38.766 89.578 87.797 36 78-42 126-66 138-29.297 14.625-74.484 13.406-109.73 12.422-8.0156-0.23438-15.562-0.42188-22.266-0.42188-27.984 36-105.61 104.39-192 90-86.391-14.391-132-74.016-144-102-48 1.9688-146.39-14.391-156-96zm438-120c9.9375 0 18-8.0625 18-18s-8.0625-18-18-18-18 8.0625-18 18 8.0625 18 18 18zm-162-18c0 9.9375-8.0625 18-18 18s-18-8.0625-18-18 8.0625-18 18-18 18 8.0625 18 18zm-150 102c9.9375 0 18-8.0625 18-18s-8.0625-18-18-18-18 8.0625-18 18 8.0625 18 18 18zm126 54c0 9.9375-8.0625 18-18 18s-18-8.0625-18-18 8.0625-18 18-18 18 8.0625 18 18zm102-66c9.9375 0 18-8.0625 18-18s-8.0625-18-18-18-18 8.0625-18 18 8.0625 18 18 18zm138 66c0 9.9375-8.0625 18-18 18s-18-8.0625-18-18 8.0625-18 18-18 18 8.0625 18 18zm54-66c9.9375 0 18-8.0625 18-18s-8.0625-18-18-18-18 8.0625-18 18 8.0625 18 18 18z" fill-rule="evenodd"/>
 <path d="m192 767.26c0-42.703 17.578-75.375 39.656-99.047 5.7188 20.953 16.594 37.734 30.094 51.047-24.281 35.859-41.156 103.08-11.953 181.45-36.422-39.938-57.797-86.719-57.797-133.45z"/>
 <path d="m297.74 943.13c-58.641-92.531-40.641-172.26-17.344-208.64 8.1562 5.5781 16.781 10.219 25.5 14.062 0.9375 0.42188 1.8281 0.79688 2.7656 1.1719-18.141 40.359-21.141 108.7 25.547 174.98-10.406 8.1094-21.891 14.906-34.453 19.875-0.65625-0.51562-1.3594-0.98438-2.0156-1.4531z"/>
 <path d="m331.4 757.74c-14.766 31.078-20.438 90.375 20.672 150.61 7.1719-7.5938 13.688-15.891 19.547-24.609 2.9531-4.4531 5.7656-9 8.3438-13.594-33.234-34.641-28.406-77.719-20.016-106.03-9.3281-1.5-18.938-3.5625-28.547-6.375z"/>
 <path d="m391.5 846.71c-19.312-25.969-14.672-57.281-7.2656-79.875 3.1406 0.23438 6.2344 0.375 9.2344 0.46875 3.7031 6.2344 8.2969 13.031 13.781 19.969-1.8281 17.953-7.0312 38.719-15.75 59.438z"/>
 <path d="m428.02 809.9c-5.8125 28.312-17.953 59.484-36.422 87.141-16.922 25.266-39.469 48.047-67.922 62.953 8.0156 4.7344 16.312 9.1875 24.844 13.406 42.375-12.188 99.844-53.859 117.38-134.63-14.625-8.8125-27.188-18.75-37.875-28.875z"/>
 <path d="m379.97 987c43.781-20.859 90.234-65.109 107.86-136.55 8.625 3.9844 17.812 7.5938 27.562 10.641-6.7969 82.312-55.312 125.63-98.156 137.9-12.797-3.4219-25.219-7.4531-37.266-12z"/>
 <path d="m538.92 867.24c-7.0312 70.781-42.609 117.19-82.734 140.86 2.625 11.625 20.578 27.703 73.453 6.8906 9.8906-16.641 17.906-37.266 23.812-59.25 8.5781-31.781 12.094-63.656 11.531-84.891-5.5781-0.32812-11.25-0.98438-16.922-1.9219-3.0938-0.51562-6.1406-1.0781-9.1406-1.6875z"/>
 <path d="m588.61 889.5c0.42188-6.7031 0.51562-13.031 0.375-18.797 34.781-2.625 66.562-15.328 93.094-30.891 2.2969-1.3125 4.5469-2.7188 6.7969-4.125-8.9531 24.656-24.281 38.531-40.594 46.266-19.688 9.2812-42.188 10.172-59.672 7.5469z"/>
 <path d="m718.74 814.26c-7.125 48.047-31.172 75.656-60.234 89.391-24.422 11.531-51.281 12.703-72.188 9.75-1.5 11.625-3.7031 23.812-6.5156 36 62.578 7.875 106.45-5.1562 133.92-33.844 26.109-27.281 39.797-71.156 38.016-132.32-8.9062 9.7969-20.062 20.531-33 31.031z"/>
 <path d="m731.06 932.16c32.672-34.172 46.922-86.25 44.578-152.26 7.0781 0.1875 14.625 0.32812 22.359 0.28125 16.828 80.203-6.7031 155.34-36 209.9-63.609 68.625-155.86 53.906-208.82 32.156 8.4375-15.281 15.141-32.391 20.344-49.453 68.531 9.2344 122.34-3.8906 157.55-40.641z"/>
 <path d="m822.47 779.44c5.3438 26.156 7.0781 51.75 6.0938 76.266 14.203 5.4844 32.062 8.1094 51.75 5.7656 4.9688-16.453 4.6875-34.688 1.5938-52.078-2.625-14.672-7.125-28.031-11.484-38.109-14.719 4.6875-30.516 6.8906-45.328 7.9688-0.89062 0.046875-1.7812 0.14062-2.625 0.1875z"/>
 <path d="m905.53 805.18c-3-16.594-8.0625-31.734-13.078-43.453 9.0469-4.9219 21.75-12.797 34.453-23.625 9.8438 10.031 18.703 22.641 24.188 36.516 7.1719 18.281 8.3438 38.391-1.5 58.594-14.578 10.547-29.203 17.859-43.266 22.5 3-17.344 1.9688-34.875-0.79688-50.531z"/>
 <path d="m944.11 721.31c2.2031-2.4375 4.3125-4.9688 6.375-7.6406 8.9062-11.484 16.406-24.938 20.766-40.078 33.938 37.312 25.828 94.641 13.922 126.61-1.5 1.6875-3 3.375-4.5 5.0156 0.375-13.828-2.4375-27.141-7.2656-39.375-6.75-17.203-17.531-32.438-29.297-44.531z"/>
 <path d="m793.4 988.78c27.891 3.6094 66.047 1.2188 99.281-20.109-6.7031-0.98438-13.172-2.25-19.453-3.75-22.781-5.4375-43.078-13.969-59.062-24.328-5.1094 17.016-12.469 33.234-20.766 48.188z"/>
 <path d="m997.45 822.37c40.406 69.938-33.188 111.8-79.172 124.78-13.922-0.70313-27.234-2.6719-39.516-5.5781-24.516-5.8594-44.531-15.375-58.125-25.734 2.5781-11.438 4.5938-23.25 6-35.391 46.641 14.859 113.16 4.125 170.81-58.078z"/>
 <path d="m108 821.26c0-81.047 46.922-155.02 124.18-211.22-3.375 11.062-5.0625 22.406-4.5 33.844-61.453 50.672-95.672 112.59-95.672 177.37 0 76.922 48.281 149.86 133.13 204.71 84.609 54.656 202.92 89.297 334.87 89.297 131.95 0 250.26-34.641 334.87-89.297 84.844-54.844 133.13-127.78 133.13-204.71 0-63.703-33.094-124.69-92.672-174.89 0.1875-10.922-1.3594-22.453-5.1562-34.594 75.844 55.969 121.82 129.24 121.82 209.48 0 175.6-220.26 318-492 318s-492-142.4-492-318z"/>
 <path d="m546 125.26c6 13.969 30 42 102 6 50.625-25.312 324-114 324 24 0 62.062-59.531 53.719-134.26 43.219-91.406-12.844-205.64-28.828-261.74 76.781-6 18-26.391 52.781-60 48 12-14.016 32.391-54 18-102-18-60-12-108 12-96z"/>
</svg>
