<?xml version="1.0" encoding="UTF-8"?>
<svg width="1200pt" height="1200pt" version="1.1" viewBox="0 0 1200 1200" xmlns="http://www.w3.org/2000/svg">
 <path d="m333.84 462 37.547-7.5469c4.5938-11.109 10.641-22.359 18.141-33.75 6.1406-9.375 15.516-15.375 25.734-17.531s21.188-0.375 30.562 5.7656 15.375 15.516 17.531 25.734c0.09375 0.42188 0.1875 0.84375 0.23438 1.2656l17.953-3.6094c4.1719-11.625 9.7031-23.391 16.547-35.25v-0.09375l2.3438-3.9375c5.7656-9.6094 14.953-15.938 25.078-18.469 8.5312-2.1094 17.766-1.4531 26.203 2.25h2.8594l3.6562 3.6562c8.5312 5.8125 14.156 14.391 16.5 23.812 0.75 2.9531 1.125 5.9531 1.1719 9.0469l43.875-8.8125c4.5469-10.172 10.031-20.531 16.5-30.938 5.9062-9.5625 15.188-15.75 25.312-18.141 10.125-2.3438 21.188-0.84375 30.703 5.0625 9.5625 5.9062 15.75 15.188 18.141 25.312l0.09375 0.46875 337.22-67.734c13.781-2.7656 27.422 0.32812 38.297 7.5469 10.875 7.2656 19.031 18.656 21.797 32.484 2.7656 13.781-0.32812 27.422-7.5469 38.297-7.2656 10.875-18.656 19.031-32.484 21.797l-377.58 75.844c2.625 5.7656 6.375 11.484 11.297 17.109 11.859 13.641 20.812 28.125 26.859 43.547 6.0938 15.562 9.1406 31.828 9.1406 48.797 0 11.391-1.4531 23.156-4.4062 35.344-1.0312 4.2656-2.2031 8.5312-3.6094 12.75h84.141c8.8125 0 16.031 6.9844 16.359 15.703 1.2656 10.078 2.25 20.016 2.8594 29.766 0.70312 10.641 1.0312 21.094 1.0312 31.312 0 67.547-13.781 131.44-38.25 188.16-19.734 45.703-46.406 86.766-78.516 121.4h43.312c9.0469 0 16.359 7.3125 16.359 16.359v34.406c0 13.969-5.7188 26.672-14.906 35.859s-21.891 14.906-35.859 14.906l-527.06 0.046875c-13.969 0-26.672-5.7188-35.859-14.906s-14.906-21.891-14.906-35.859v-34.406c0-9.0469 7.3125-16.359 16.359-16.359h43.312c-32.109-34.641-58.828-75.703-78.516-121.4-24.469-56.719-38.25-120.61-38.25-188.16 0-10.219 0.32812-20.672 1.0312-31.312 0.65625-10.172 1.6875-20.578 3.0469-31.172 1.0312-8.25 8.0625-14.25 16.172-14.25v-0.046875h153.98c2.7656-4.5938 5.0156-8.9531 6.6562-13.078 2.1562-5.3906 3.1875-10.266 3.1875-14.625 0-3.3281-0.75-6.6094-2.25-9.7969v-0.046875c-1.7344-3.6562-4.5-7.4062-8.2969-11.25-6.4219-6.4219-11.953-13.078-16.594-19.875l-56.953 11.438c-13.781 2.7656-27.422-0.32812-38.297-7.5469-10.875-7.2656-19.031-18.656-21.797-32.438s0.32812-27.422 7.5469-38.297c7.2656-10.875 18.656-19.031 32.438-21.797l67.734-13.594c5.1094-12.609 12.281-25.5 21.656-38.672 6.5156-9.1406 16.125-14.812 26.344-16.547s21.141 0.46875 30.281 6.9844 14.812 16.125 16.547 26.344c0.14062 0.89062 0.28125 1.8281 0.375 2.7188zm38.953 96.281-34.594 6.9375c3.7969 5.5781 6.9844 11.344 9.6094 17.25 5.8594 13.266 8.8125 27.234 8.8125 41.859 0 8.2969-1.0312 16.734-3 25.359-0.1875 0.79688-0.375 1.5938-0.5625 2.3438h38.578c4.4531-7.125 7.7812-13.781 10.078-20.016 2.3906-6.5156 3.6094-12.516 3.6094-18 0-9.0469-3.8906-17.766-11.672-26.203-8.5781-9.3281-15.562-19.172-20.812-29.531zm236.81-47.578-40.688 8.1562c9.375 11.672 16.5 23.953 21.422 36.844 5.4375 14.297 8.1562 29.203 8.1562 44.766 0 16.688-3.2344 33.891-9.6562 51.562h52.312c4.4062-7.9219 7.875-15.516 10.359-22.828 3.0938-9 4.6406-17.438 4.6406-25.266 0-6.8906-1.2656-13.453-3.7969-19.688-2.625-6.4688-6.6562-12.891-12.188-19.219-11.859-13.641-20.812-28.125-26.859-43.547-1.4062-3.5625-2.625-7.1719-3.7031-10.828zm-126.1 25.359-23.25 4.6875c7.6406 9.5625 13.641 19.641 17.953 30.188 5.6719 13.781 8.5312 28.172 8.5312 43.125 0 10.031-1.3125 20.25-3.8906 30.656-0.60938 2.4375-1.3125 4.875-2.0625 7.3594h17.859c0.5625-1.125 1.125-2.2031 1.7344-3.2344 5.7656-9.5625 10.031-18.422 12.75-26.672 2.5781-7.6875 3.8438-14.859 3.8438-21.656 0-5.7656-1.0312-11.25-3.0469-16.406-2.1094-5.3906-5.3438-10.688-9.75-15.938-8.6719-10.219-15.562-20.953-20.719-32.156zm-343.13-173.72c-13.266 4.7344-23.391 14.438-29.062 26.25-5.625 11.766-6.75 25.688-2.0625 38.906v0.046875c4.7344 13.266 14.438 23.391 26.297 29.062 11.766 5.625 25.734 6.75 38.953 2.0625l842.72-299.44c13.266-4.7344 23.391-14.438 29.062-26.25 5.625-11.766 6.75-25.688 2.0625-38.906v-0.046875c-4.7344-13.266-14.438-23.391-26.297-29.062-11.766-5.625-25.734-6.75-38.953-2.0625zm853.6-268.6-842.76 299.39c-4.7344 1.6875-8.3438 5.1562-10.359 9.375-1.9219 4.0781-2.3906 8.8594-1.0312 13.406 0.1875 0.46875 0.32813 0.9375 0.46875 1.4062 1.7812 4.4062 5.1094 7.7812 9.1406 9.7031 4.3125 2.0625 9.375 2.4375 14.156 0.75l842.76-299.34c4.7344-1.6875 8.3438-5.1562 10.359-9.375 1.9219-4.0781 2.3906-8.8594 1.0312-13.406-0.1875-0.46875-0.32812-0.9375-0.46875-1.4062-1.7812-4.4062-5.1094-7.7812-9.1406-9.7031-4.3125-2.0625-9.375-2.4375-14.156-0.75zm-632.44 395.9-40.406 8.1094c-5.625 9.4688-8.5781 18-8.8125 25.5-0.14062 4.6406 0.84375 9.0938 2.9531 13.312l46.922-9.4219c-1.2188-6.75-1.875-13.594-1.875-20.625 0-5.5781 0.375-11.203 1.2188-16.875zm148.22-38.906c-0.046874 0.1875-0.14062 0.375-0.1875 0.60938-3.1875 10.922-4.7812 21.609-4.7812 32.062 0 11.625 1.9688 22.688 6 33.141 4.0781 10.688 10.219 20.859 18.422 30.562 6.7031 7.9219 11.812 16.359 15.281 25.266 3.5625 9.1406 5.2969 18.516 5.2969 28.172 0 10.078-1.875 20.766-5.625 31.969-2.1562 6.375-4.875 12.891-8.2031 19.547h17.766c8.0625-18 12.094-35.203 12.094-51.562 0-11.625-1.9688-22.688-6-33.141-4.0781-10.688-10.219-20.859-18.422-30.562-6.7031-7.9219-11.812-16.359-15.281-25.266-3.5625-9.1406-5.2969-18.516-5.2969-28.172 0-10.078 1.875-20.766 5.625-31.969 3.5625-10.688 8.8125-21.75 15.703-33.188v-0.046875c1.1719-1.875 1.4062-4.0781 0.9375-6.0469s-1.7344-3.75-3.6094-4.875c-1.9219-1.1719-4.0781-1.4062-6.0938-0.9375-1.9219 0.46875-3.7031 1.7344-4.875 3.6094l-0.046874 0.046875c-8.0625 13.406-14.062 26.25-17.953 38.531-0.23437 0.75-0.46875 1.5-0.70312 2.25zm-36.703 16.5-19.125 3.8438c-3.6562 6.1875-6.5156 12-8.5312 17.438-2.3906 6.5156-3.6094 12.516-3.6094 18 0 1.5469 0.09375 3.0469 0.32813 4.5469l31.734-6.375c-1.1719-6.9844-1.7812-14.109-1.7812-21.375 0-5.2969 0.32813-10.688 0.98438-16.125zm134.81-27.094-45.469 9.1406c-2.0625 4.3125-3.75 8.4375-5.0625 12.422-2.5781 7.6875-3.8438 14.859-3.8438 21.656 0 1.7812 0.09375 3.5625 0.28125 5.2969l50.484-10.125c-0.09375-1.9219-0.14062-3.8906-0.14062-5.8125 0-10.641 1.2188-21.469 3.7031-32.531zm78.656 21.844 374.95-75.328c4.9219-0.98438 9-3.9375 11.625-7.875 2.6719-3.9844 3.7969-8.9062 2.8125-13.875-0.98438-4.9219-3.9375-9-7.875-11.625-3.9844-2.6719-8.9062-3.7969-13.875-2.8125l-351.56 70.641c-5.3438 9.1406-9.4688 17.906-12.328 26.203-1.7344 5.0625-3 9.9844-3.75 14.672zm-456.56 54.094-52.594 10.547c-4.9219 0.98438-9 3.9375-11.625 7.875-2.6719 3.9844-3.7969 8.9062-2.8125 13.875 0.98438 4.9219 3.9375 9 7.875 11.625 3.9844 2.6719 8.9062 3.7969 13.875 2.8125l48.797-9.7969c-2.4375-8.3906-3.75-16.969-3.8906-25.875-0.09375-3.6562 0.09375-7.3594 0.375-11.062zm464.95 135.98c2.7656-6.9375 4.9219-13.734 6.5156-20.297 2.25-9.3281 3.375-18.609 3.375-27.797 0-12.984-2.2969-25.266-6.8438-36.938-4.6406-11.812-11.672-23.109-21.094-33.938-7.8281-8.9531-13.734-18.469-17.812-28.547-4.125-10.266-6.1875-20.906-6.1875-31.828 0-11.438 2.1562-23.438 6.4688-36 4.0781-11.906 10.172-24.422 18.281-37.453 1.1719-1.875 1.4531-4.0312 0.98438-6.0469-0.46875-1.9688-1.6875-3.7969-3.5625-4.9688s-4.0312-1.4531-6.0469-0.98438c-1.9688 0.46875-3.7969 1.6875-4.9688 3.5625-9.1875 14.812-16.078 29.156-20.578 42.938-4.4062 13.406-6.6094 26.344-6.6094 38.906 0 12.984 2.2969 25.266 6.8438 36.938 4.6406 11.812 11.672 23.109 21.094 33.938 7.8281 8.9531 13.734 18.469 17.812 28.547 4.125 10.266 6.1875 20.906 6.1875 31.828 0 11.344-2.1562 23.297-6.4219 35.766-1.3594 4.0312-3 8.1562-4.8281 12.328h17.344zm-248.76 0c2.0625-5.1562 3.7031-10.266 4.9688-15.281 1.9219-7.6875 2.9062-15.281 2.9062-22.734 0-10.875-1.9688-21.094-5.9531-30.75-4.0781-9.8438-10.266-19.312-18.656-28.406-6.6094-7.1719-11.625-14.719-15-22.641-3.5625-8.2969-5.3438-16.875-5.3438-25.734 0-9.2812 1.875-19.031 5.625-29.25 3.5156-9.5625 8.7188-19.594 15.516-29.953 1.2188-1.875 1.5938-4.0312 1.1719-6.0469-0.42187-1.9688-1.5938-3.7969-3.4688-5.0156s-4.0312-1.5938-6.0469-1.1719c-1.9688 0.42188-3.7969 1.5938-5.0156 3.4688-8.0625 12.281-14.109 24.234-18.094 35.766-3.7969 11.109-5.7188 21.797-5.7188 32.203 0 10.875 1.9688 21.094 5.9531 30.75 4.0781 9.8438 10.266 19.312 18.656 28.406 13.594 14.719 20.344 30.844 20.344 48.328 0 9.2812-1.875 19.031-5.625 29.25-1.0781 2.9062-2.2969 5.8125-3.6562 8.7656h17.438zm-127.18 0c1.125-3.2812 2.0625-6.4688 2.8125-9.6562 1.4062-6.0469 2.1094-12.094 2.1094-18.094 0-10.078-2.0156-19.688-6-28.688-4.125-9.3281-10.406-18.234-18.844-26.672-13.5-13.547-19.922-29.109-19.359-46.734 0.5625-16.219 7.2656-33.422 20.203-51.656 1.2656-1.7812 1.6875-3.9375 1.3594-5.9531s-1.4531-3.8906-3.2344-5.1562-3.9375-1.6875-5.9531-1.3594-3.8906 1.4531-5.1562 3.2344c-16.875 23.812-25.125 45.562-24.75 65.297 0.32812 18.891 8.8594 36.75 25.594 53.578 6.4219 6.4219 11.297 13.219 14.672 20.391h0.046875c3.6094 7.6875 5.4375 15.609 5.4375 23.719 0 8.4844-1.8281 17.344-5.5312 26.672-0.14062 0.375-0.28125 0.70312-0.42188 1.0781zm-2.2031 332.86c-13.172-10.172-25.406-21.703-36.656-34.359-11.25-12.703-21.562-26.672-30.75-41.719-4.6875-7.6875-14.719-10.125-22.453-5.4375-7.6875 4.6875-10.125 14.719-5.4375 22.453 10.125 16.547 21.609 32.062 34.219 46.312 12.656 14.25 26.438 27.188 41.156 38.578 7.125 5.5312 17.391 4.1719 22.875-2.9531 5.5312-7.125 4.1719-17.391-2.9531-22.875zm-90.047-120.89-0.51562-1.3125c-0.09375-0.23438-0.23438-0.51562-0.32812-0.75l-0.1875-0.46875c-3.3281-8.3438-12.844-12.422-21.234-9.0938-8.3438 3.3281-12.422 12.844-9.0938 21.234l0.1875 0.46875c0.09375 0.28125 0.1875 0.60938 0.32812 0.89062l0.51562 1.3125c3.375 8.3438 12.938 12.375 21.281 9s12.375-12.938 9-21.281zm-15.281-47.438c-3.0469-12.609-5.3438-25.828-6.9844-39.562-1.5469-13.172-2.3438-26.719-2.3438-40.594 0-9.0469-7.3125-16.359-16.359-16.359s-16.359 7.3125-16.359 16.359c0 14.906 0.89062 29.672 2.5781 44.297 1.6875 14.578 4.3125 29.062 7.7344 43.359 2.1094 8.7656 10.875 14.156 19.641 12.094 8.7656-2.1094 14.156-10.875 12.094-19.641zm532.69 254.58h-563.21v18.047c0 4.9219 2.0625 9.4688 5.2969 12.75 3.2812 3.2812 7.7812 5.2969 12.75 5.2969h527.11c4.9219 0 9.4688-2.0625 12.75-5.2969 3.2812-3.2812 5.2969-7.7812 5.2969-12.75z" fill-rule="evenodd"/>
</svg>
