<?xml version="1.0" encoding="UTF-8"?>
<svg width="1200pt" height="1200pt" version="1.1" viewBox="0 0 1200 1200" xmlns="http://www.w3.org/2000/svg">
 <path d="m1125 787.5h-135.94c27.375-37.875 42.188-83.25 42.188-131.26 0-124.13-100.88-225-225-225-78.188 0-149.63 40.125-190.5 105.56-20.625-6.75-42-10.688-63.562-11.25 0 3.9375 0 7.875-0.1875 12-0.1875 8.25-0.75 16.688-1.875 25.312-0.75 6-1.6875 12.375-3 18.75-0.1875 0.5625-3 12.562-3 12.562s-1.6875 6.5625-1.875 7.3125c-3 11.25-3.9375 23.625-2.625 36.188 0.1875 1.3125 0.375 2.8125 0.5625 4.125l1.125 5.625-0.375-1.125c0.375 1.6875 0.75 3.375 1.125 5.25 1.5 6 3.5625 12 5.8125 17.625l1.5 3.1875c0.5625 1.3125 0.9375 1.875 1.3125 3 38.062 3.375 68.062 35.438 68.062 74.625 0 3-0.1875 5.8125-0.5625 8.625-0.1875 3.1875-0.75 6.375-1.6875 9.375-0.1875 1.3125-0.5625 2.625-0.9375 3.9375-0.375 1.5-0.9375 3-1.5 4.5-0.375 0.9375-0.75 2.0625-1.3125 3-0.75 1.875-1.5 3.75-2.625 5.4375-0.375 0.9375-0.9375 1.6875-1.5 2.625h-5.0625c0.5625 1.6875 1.125 3.375 1.875 5.0625 1.125 3.375 2.25 6.9375 3.375 10.5l3.375 11.438c1.3125 3.75 2.25 6.75 3.1875 9.9375 0 0.1875 0 0.375 0.1875 0.5625h509.44v56.25h-496.87c0.1875 0.5625 0.375 0.9375 0.375 1.5 1.875 9 3.1875 18.375 4.125 27.375 0.1875 0.5625 0.375 2.0625 0.375 2.25 0.1875 2.0625 0.5625 4.3125 0.75 6.375 0.375 4.5 0.9375 8.8125 1.3125 13.312 0 0.75 0.5625 5.8125 0.5625 5.8125 0.375 4.875 0.75 9.5625 0.9375 14.438 1.125 21.562 1.125 42.188 0.1875 62.438-0.5625 9.1875-1.3125 18.938-2.25 28.688 0 1.3125-0.1875 2.625-0.375 3.9375l-1.6875 11.812c-0.1875 1.5-0.375 2.8125-0.75 4.125-0.5625 3-1.125 5.8125-1.875 8.625-0.9375 3.9375-1.875 8.0625-3.1875 12.188-0.375 1.125-0.5625 2.25-1.125 3.375-1.3125 5.0625-3.1875 10.125-5.25 14.812-0.375 0.5625-3.1875 6.9375-3.1875 6.9375-1.5 3.9375-3.75 8.25-6.1875 12.562-0.75 1.125-1.125 2.25-1.875 3.1875h393.56c25.125 0 47.438-17.062 54.188-41.438l45-164.81h23.25c20.625 0 37.5-16.875 37.5-37.5v-56.25c0-20.625-16.875-37.5-37.5-37.5zm-366.94-105.75c-2.25-7.3125-5.0625-14.625-8.25-21.75-1.125-3-2.4375-5.8125-3.9375-8.625-3.1875-6.5625-6.75-12.938-10.688-19.312v-0.1875c4.125-11.812 10.875-22.125 19.5-30.375 2.4375-2.25 5.0625-4.3125 7.6875-6.1875 4.125-3 8.4375-5.4375 13.125-7.6875 1.6875-0.75 3.375-1.3125 5.25-1.875 8.0625-3 16.5-4.5 25.5-4.5 41.25 0 75 33.562 75 75s-33.75 75-75 75c-3.5625 0-7.125-0.1875-10.5-0.75-2.625-0.375-5.25-0.9375-7.875-1.5-1.125-0.375-2.25-0.5625-3.375-0.9375-2.8125-0.9375-5.625-1.875-8.25-3-0.1875-0.1875-0.1875-0.1875-0.375-0.1875-2.8125-1.3125-5.625-2.625-8.25-4.5-0.375 0-0.5625-0.1875-0.9375-0.375l-0.5625-3.375c-1.3125-9.75-3.375-19.312-6.1875-28.875-0.5625-2.0625-1.125-3.9375-1.875-6zm182.06 105.75h-174.56c0.5625-3 0.9375-6 1.3125-9 0.375-2.625 0.75-5.25 0.9375-7.875l0.5625-8.4375c3 1.125 6 2.0625 9.1875 2.8125 3 0.9375 6.1875 1.5 9.375 2.0625 6.375 1.125 12.75 1.6875 19.312 1.6875 62.062 0 112.5-50.438 112.5-112.5s-50.438-112.5-112.5-112.5c-3 0-6.1875 0.1875-9.1875 0.375-0.5625 0-1.125 0-1.5 0.1875-2.8125 0.1875-5.4375 0.5625-8.0625 1.125-1.3125 0-2.4375 0.1875-3.5625 0.5625-4.6875 0.9375-9.375 2.0625-13.875 3.75-1.125 0.1875-2.25 0.75-3.375 1.125-2.25 0.9375-4.5 1.6875-6.75 2.8125-2.4375 1.125-4.875 2.25-7.125 3.375-3.1875 1.6875-6.1875 3.5625-9.1875 5.625-2.4375 1.6875-4.875 3.375-7.3125 5.25-3 2.4375-6 4.875-8.8125 7.6875-3.375 3.375-6.5625 6.9375-9.5625 10.688-3 3.5625-5.625 7.6875-8.25 11.812-1.125-1.125-2.0625-2.25-3.1875-3.1875-3.1875-3.75-6.5625-6.9375-10.125-10.125-3.5625-3.375-7.125-6.5625-10.875-9.375-3-2.4375-5.8125-4.875-9-6.9375-0.1875-0.375-0.375-0.5625-0.5625-0.375-1.6875-1.5-3.1875-2.625-4.875-3.5625-2.4375-1.875-5.0625-3.5625-7.6875-5.0625-2.4375-1.6875-4.875-3.1875-7.3125-4.3125l-0.1875-0.1875c-1.6875-1.3125-3.5625-2.25-5.25-3.1875 34.5-51.75 92.625-83.062 155.63-83.062 103.31 0 187.5 84.188 187.5 187.5 0 49.5-18.938 95.812-53.625 131.26z"/>
 <path d="m954.56 413.26c21.188 0 75.75 54.562 75.75 75.938 0 10.312 8.4375 18.75 18.75 18.75 10.5 0 18.75-8.4375 18.75-18.75 0-21.375 54.75-75.938 75.938-75.938 10.312 0 18.75-8.25 18.75-18.75 0-10.312-8.4375-18.75-18.75-18.75-21.188 0-75.938-54.562-75.938-75.75 0-10.312-8.25-18.75-18.75-18.75-10.312 0-18.75 8.4375-18.75 18.75 0 21.188-54.562 75.75-75.75 75.75-10.312 0-18.75 8.4375-18.75 18.75 0 10.5 8.4375 18.75 18.75 18.75z"/>
 <path d="m710.81 169.5c21.188 0 75.75 54.562 75.75 75.938 0 10.312 8.4375 18.75 18.75 18.75 10.5 0 18.75-8.4375 18.75-18.75 0-21.375 54.75-75.938 75.938-75.938 10.312 0 18.75-8.25 18.75-18.75 0-10.312-8.4375-18.75-18.75-18.75-21.188 0-75.938-54.562-75.938-75.75 0-10.312-8.25-18.75-18.75-18.75-10.312 0-18.75 8.4375-18.75 18.75 0 21.188-54.562 75.75-75.75 75.75-10.312 0-18.75 8.4375-18.75 18.75 0 10.5 8.4375 18.75 18.75 18.75z"/>
 <path d="m560.63 942s-0.1875-2.0625-0.1875-2.25c-0.5625-6-1.125-12-1.875-18-0.1875-0.9375-0.1875-2.0625-0.375-3-0.75-7.3125-1.875-14.625-3.375-21.938-0.9375-5.25-1.875-10.5-3-15.562-0.1875-1.5-0.5625-3-0.9375-4.5-0.9375-4.5-1.875-9-3-13.5-1.3125-6-3-12.188-4.6875-18.188-0.9375-3.375-2.0625-6.5625-2.8125-9-1.125-3.75-2.25-7.3125-3.375-11.062-2.625-8.625-5.625-17.25-9-25.5-1.5-3.9375-3.1875-8.0625-4.875-12-0.9375-2.625-2.0625-5.0625-3.1875-7.6875-2.4375-5.8125-5.0625-11.438-7.875-17.25-6.375-13.312-13.312-26.438-20.812-39.188-3.1875-5.4375-6-10.875-8.625-16.688-1.5-2.8125-2.625-5.625-3.9375-8.625-4.3125-10.312-7.6875-21-10.125-31.688 1.6875-1.5 3.5625-3.1875 5.4375-4.6875-1.875 1.5-3.5625 3-5.4375 4.5-0.5625-2.0625-0.9375-4.3125-1.3125-6.375l-1.125-6.75c-3.75-24.562-2.4375-49.125 3.9375-71.812 0.375-1.5 0.75-2.8125 1.125-4.3125 0.75-3.1875 1.5-6.1875 2.25-9.5625 2.0625-10.688 3.375-21.375 3.5625-32.25 0.375-8.0625 0.1875-16.125-0.75-24.188-8.25-81-64.875-127.13-90-143.81v-57c0-22.875-18.375-41.25-41.25-41.25h-90c-22.875 0-41.438 18.375-41.438 41.25v57.188c-24.938 16.5-81.562 62.625-90 143.63-2.4375 23.25-0.1875 46.875 6.375 70.125 12.75 45.75 5.0625 97.5-21.188 142.13-22.5 38.25-39.938 79.5-52.125 122.63-17.25 62.25-22.875 126.56-16.688 191.06 6.1875 60.75 53.438 108.75 114.75 116.44 48.188 6.1875 97.125 9.1875 145.31 9.1875 49.5 0 98.812-3.1875 147-9.375 24.375-3 46.875-12.75 65.625-28.125 1.875-1.5 3.75-3.1875 5.625-4.875 10.5-9.5625 19.125-20.625 25.875-32.625 0.1875-0.375 0.5625-0.75 0.5625-1.125 1.5-2.4375 2.8125-5.0625 3.9375-7.6875l2.25-5.0625c1.3125-3.1875 2.625-6.5625 3.5625-9.9375l0.1875-0.75c0.9375-2.8125 1.6875-5.625 2.25-8.4375 0.5625-1.875 0.9375-3.9375 1.3125-5.8125l1.6875-11.812c0.75-8.625 1.5-17.25 1.875-25.875 0.9375-18.75 0.75-37.312-0.1875-55.5-0.1875-4.5-0.5625-8.8125-0.9375-13.5zm-309.56-631.87c0-2.0625 1.875-3.75 3.9375-3.75h90c2.0625 0 3.75 1.6875 3.75 3.75v48.75h-97.688zm48.938 739.69c-72.562 0-131.44-58.875-131.44-131.44 0-72.375 58.875-131.44 131.44-131.44 72.375 0 131.44 59.062 131.44 131.44 0 72.562-59.062 131.44-131.44 131.44z"/>
</svg>
