<?xml version="1.0" encoding="UTF-8"?>
<svg width="1200pt" height="1200pt" version="1.1" viewBox="0 0 1200 1200" xmlns="http://www.w3.org/2000/svg">
 <path d="m60 469.5c0-186.37 151.13-337.5 337.5-337.5h405c186.37 0 337.5 151.13 337.5 337.5 0 12.422-10.078 22.5-22.5 22.5h-1035c-12.422 0-22.5-10.078-22.5-22.5zm720-235.5c0 9.9375-8.0625 18-18 18s-18-8.0625-18-18 8.0625-18 18-18 18 8.0625 18 18zm-342 18c9.9375 0 18-8.0625 18-18s-8.0625-18-18-18-18 8.0625-18 18 8.0625 18 18 18zm486 78c0 9.9375-8.0625 18-18 18s-18-8.0625-18-18 8.0625-18 18-18 18 8.0625 18 18zm-318 18c9.9375 0 18-8.0625 18-18s-8.0625-18-18-18-18 8.0625-18 18 8.0625 18 18 18zm-294-18c0 9.9375-8.0625 18-18 18s-18-8.0625-18-18 8.0625-18 18-18 18 8.0625 18 18zm450 78c9.9375 0 18-8.0625 18-18s-8.0625-18-18-18-18 8.0625-18 18 8.0625 18 18 18zm-306-18c0 9.9375-8.0625 18-18 18s-18-8.0625-18-18 8.0625-18 18-18 18 8.0625 18 18z" fill-rule="evenodd"/>
 <path d="m227.63 628.69c-14.016 10.641-31.312 19.312-52.359 19.312-37.219 0-61.734-16.219-78.562-34.969-8.2031-9.1406-14.672-18.938-20.062-27.609-1.8281-3-3.5156-5.7188-5.0625-8.25-3.1875-5.3438-5.8594-9.7969-8.6719-13.734-5.4375-7.6875-3-17.906 5.4375-22.828 8.4844-4.9219 19.734-2.7188 25.172 4.9688 3.5156 4.9688 7.2188 11.062 10.781 16.922 1.3594 2.3438 2.7656 4.6406 4.0781 6.7969 5.0625 8.1562 10.359 15.984 16.547 22.922 12 13.312 26.906 22.781 50.344 22.781 9.3281 0 18.562-3.7031 29.016-11.625 10.641-8.0625 20.719-19.172 31.922-31.734l2.0156-2.25c10.125-11.438 21.281-24 33.281-33.75 12.984-10.453 29.297-19.641 49.406-19.641s36.422 9.1875 49.359 19.641c12.047 9.75 23.203 22.312 33.328 33.75l2.0156 2.25c11.156 12.562 21.281 23.672 31.922 31.734 10.453 7.9219 19.688 11.625 28.969 11.625 9 0 16.828-3.4219 25.312-10.828 8.9062-7.8281 16.922-18.562 26.297-31.312l0.5625-0.79688c8.7188-11.812 18.703-25.453 30.75-35.953 12.797-11.156 29.203-20.109 50.578-20.109s37.781 8.9531 50.578 20.109c12.047 10.5 22.031 24.141 30.75 35.953l0.5625 0.79688c9.375 12.75 17.391 23.484 26.297 31.312 8.4844 7.4062 16.312 10.828 25.312 10.828 9.2812 0 18.516-3.7031 28.969-11.625 10.641-8.0625 20.766-19.172 31.922-31.734l2.0156-2.25c10.125-11.438 21.281-24 33.328-33.75 12.938-10.453 29.25-19.641 49.359-19.641s36.422 9.1875 49.406 19.641c12 9.75 23.156 22.312 33.281 33.75l2.0156 2.25c11.203 12.562 21.281 23.672 31.922 31.734 10.453 7.9219 19.688 11.625 29.016 11.625 23.438 0 38.344-9.4688 50.344-22.781 6.1875-6.9375 11.484-14.766 16.547-22.922 1.3125-2.1562 2.6719-4.4531 4.0781-6.75v-0.046875c3.5625-5.8594 7.2656-11.953 10.781-16.922 5.4375-7.6875 16.688-9.8906 25.172-4.9688 8.4375 4.9219 10.875 15.141 5.4375 22.828-2.8125 3.9375-5.4844 8.3906-8.6719 13.734-1.5469 2.5312-3.2344 5.2969-5.0625 8.25-5.3906 8.6719-11.859 18.469-20.062 27.609-16.828 18.75-41.344 34.969-78.562 34.969-21.047 0-38.344-8.6719-52.359-19.312-13.828-10.5-26.109-24.141-36.938-36.328l-1.3125-1.5c-10.781-12.141-20.156-22.734-29.906-30.562-9.9844-8.1094-17.906-11.297-25.125-11.297-7.1719 0-15.141 3.1875-25.125 11.297-9.7031 7.8281-19.125 18.422-29.906 30.562l-1.3125 1.5c-10.828 12.188-23.109 25.828-36.891 36.328-14.062 10.641-31.359 19.312-52.359 19.312-21.375 0-37.828-8.9531-50.578-20.109-12.047-10.5-22.078-24.141-30.75-35.953l-0.5625-0.79688c-9.375-12.75-17.391-23.484-26.344-31.312-8.4375-7.4062-16.312-10.828-25.266-10.828s-16.828 3.4219-25.266 10.828c-8.9531 7.8281-16.969 18.562-26.344 31.312l-0.5625 0.79688c-8.6719 11.812-18.703 25.453-30.75 35.953-12.75 11.156-29.203 20.109-50.578 20.109-21 0-38.297-8.6719-52.359-19.312-13.781-10.5-26.062-24.141-36.891-36.328l-1.3125-1.5c-10.781-12.141-20.203-22.734-29.906-30.562-9.9844-8.1094-17.953-11.297-25.125-11.297-7.2188 0-15.141 3.1875-25.125 11.297-9.75 7.8281-19.125 18.422-29.906 30.562l-1.3125 1.5c-10.828 12.188-23.109 25.828-36.938 36.328z"/>
 <path d="m60 744c0-39.75 32.25-72 72-72h936c39.75 0 72 32.25 72 72s-32.25 72-72 72h-936c-39.75 0-72-32.25-72-72z"/>
 <path d="m84 840c-13.266 0-24 10.734-24 24v108c0 59.625 48.375 108 108 108h864c59.625 0 108-48.375 108-108v-108c0-13.266-10.734-24-24-24z"/>
</svg>
