<?xml version="1.0" encoding="UTF-8"?>
<svg width="1200pt" height="1200pt" version="1.1" viewBox="0 0 1200 1200" xmlns="http://www.w3.org/2000/svg">
 <path d="m381.24 499.82c-4.5469 7.7812-14.531 10.453-22.312 5.9531-7.7812-4.5469-10.453-14.531-5.9531-22.312l0.046875-0.046875c4.5469-7.7812 14.531-10.453 22.312-5.9531 7.7812 4.5469 10.453 14.531 5.9531 22.312zm32.438 44.344c-7.7812 4.5469-17.766 1.875-22.312-5.9531-4.5469-7.7812-1.875-17.766 5.9531-22.312l0.046875-0.046875c7.7812-4.5469 17.766-1.875 22.312 5.9531 4.5469 7.7812 1.875 17.766-5.9531 22.312zm5.9062 54.656c-9.0469 0-16.359-7.3125-16.359-16.359s7.3125-16.359 16.359-16.359h0.046875c9.0469 0 16.359 7.3125 16.359 16.359s-7.3125 16.359-16.359 16.359zm-22.266 50.203c-7.7812-4.5469-10.453-14.531-5.9531-22.312 4.5469-7.7812 14.531-10.453 22.312-5.9531l0.046875 0.046875c7.7812 4.5469 10.453 14.531 5.9531 22.312-4.5469 7.7812-14.531 10.453-22.312 5.9531zm-44.297 32.438c-4.5469-7.7812-1.875-17.766 5.9531-22.312 7.7812-4.5469 17.766-1.875 22.312 5.9531l0.046875 0.046875c4.5469 7.7812 1.875 17.766-5.9531 22.312-7.7812 4.5469-17.766 1.875-22.312-5.9531zm-76.641-198c4.5469 7.7812 1.875 17.766-5.9531 22.312-7.7812 4.5469-17.766 1.875-22.312-5.9531l-0.046875-0.046875c-4.5469-7.7812-1.875-17.766 5.9531-22.312 7.7812-4.5469 17.766-1.875 22.312 5.9531zm54.703-5.8594c0 9.0469-7.3125 16.359-16.359 16.359s-16.359-7.3125-16.359-16.359v-0.046875c0-9.0469 7.3125-16.359 16.359-16.359s16.359 7.3125 16.359 16.359zm34.828 76.734c-6.375 6.375-16.734 6.375-23.156 0-6.375-6.375-6.375-16.734 0-23.156l0.046875-0.046875c6.375-6.375 16.734-6.375 23.156 0 6.375 6.375 6.375 16.734 0 23.156zm4.875 44.438c-9.0469 0-16.359-7.3125-16.359-16.359s7.3125-16.359 16.359-16.359h0.046875c9.0469 0 16.359 7.3125 16.359 16.359s-7.3125 16.359-16.359 16.359zm-27.984 34.875c-6.375-6.375-6.375-16.734 0-23.156 6.375-6.375 16.734-6.375 23.156 0l0.046875 0.046875c6.375 6.375 6.375 16.734 0 23.156-6.375 6.375-16.734 6.375-23.156 0zm-44.484 4.875c0-9.0469 7.3125-16.359 16.359-16.359s16.359 7.3125 16.359 16.359v0.046875c0 9.0469-7.3125 16.359-16.359 16.359s-16.359-7.3125-16.359-16.359zm-11.719-107.34c6.375 6.375 6.375 16.734 0 23.156-6.375 6.375-16.734 6.375-23.156 0l-0.046875-0.046875c-6.375-6.375-6.375-16.734 0-23.156 6.375-6.375 16.734-6.375 23.156 0zm44.484-4.875c0 9.0469-7.3125 16.359-16.359 16.359s-16.359-7.3125-16.359-16.359v-0.046875c0-9.0469 7.3125-16.359 16.359-16.359s16.359 7.3125 16.359 16.359zm0 56.156c0 9.0469-7.3125 16.359-16.359 16.359s-16.359-7.3125-16.359-16.359v-0.046875c0-9.0469 7.3125-16.359 16.359-16.359s16.359 7.3125 16.359 16.359zm620.81-82.641c-4.5469 7.7812-14.531 10.453-22.312 5.9531-7.7812-4.5469-10.453-14.531-5.9531-22.312l0.046875-0.046875c4.5469-7.7812 14.531-10.453 22.312-5.9531 7.7812 4.5469 10.453 14.531 5.9531 22.312zm-29.766 168.74c0.84375-2.7656 2.3906-5.3438 4.6406-7.3594 10.594-17.109 20.203-35.109 28.781-53.859 12.844-28.031 23.344-57.797 31.266-88.875 0.14062-0.70312 0.28125-1.4062 0.51562-2.0625 6.4219-25.734 11.062-52.359 13.688-79.734 0-0.23438 0.046875-0.42188 0.046875-0.65625 1.4062-14.906 2.2969-30.047 2.5312-45.375l-807.19 0.046875c0.23438 15.328 1.0781 30.469 2.5312 45.375 0.046875 0.1875 0.046875 0.42188 0.046875 0.65625 2.6719 27.375 7.2656 54 13.688 79.734 0.23438 0.65625 0.375 1.3594 0.51562 2.0625 7.875 31.078 18.422 60.844 31.266 88.875 30.656 66.891 74.578 124.18 127.64 167.02 2.5312-0.28125 5.0625-0.46875 7.6406-0.46875h440.58c2.5781 0 5.1562 0.14062 7.6406 0.46875 36.047-29.109 67.875-64.875 94.172-105.8zm-103.36-3.4688c4.5469-7.7812 14.531-10.453 22.312-5.9531 7.7812 4.5469 10.453 14.531 5.9531 22.312l-0.046875 0.046875c-4.5469 7.7812-14.531 10.453-22.312 5.9531-7.7812-4.5469-10.453-14.531-5.9531-22.312zm-32.484-44.344c7.7812-4.5469 17.766-1.875 22.312 5.9531 4.5469 7.7812 1.875 17.766-5.9531 22.312l-0.046875 0.046875c-7.7812 4.5469-17.766 1.875-22.312-5.9531-4.5469-7.7812-1.875-17.766 5.9531-22.312zm-5.8594-54.656c9.0469 0 16.359 7.3125 16.359 16.359s-7.3125 16.359-16.359 16.359h-0.046875c-9.0469 0-16.359-7.3125-16.359-16.359s7.3125-16.359 16.359-16.359zm22.266-50.203c7.7812 4.5469 10.453 14.531 5.9531 22.312-4.5469 7.7812-14.531 10.453-22.312 5.9531l-0.046875-0.046875c-7.7812-4.5469-10.453-14.531-5.9531-22.312 4.5469-7.7812 14.531-10.453 22.312-5.9531zm44.297-32.438c4.5469 7.7812 1.875 17.766-5.9531 22.312-7.7812 4.5469-17.766 1.875-22.312-5.9531l-0.046875-0.046875c-4.5469-7.7812-1.875-17.766 5.9531-22.312 7.7812-4.5469 17.766-1.875 22.312 5.9531zm54.703-5.8594c0 9.0469-7.3125 16.359-16.359 16.359s-16.359-7.3125-16.359-16.359v-0.046875c0-9.0469 7.3125-16.359 16.359-16.359s16.359 7.3125 16.359 16.359zm34.875 76.734c-6.375 6.375-16.734 6.375-23.156 0-6.375-6.375-6.375-16.734 0-23.156l0.046875-0.046875c6.375-6.375 16.734-6.375 23.156 0 6.375 6.375 6.375 16.734 0 23.156zm-67.641 84.188c0-9.0469 7.3125-16.359 16.359-16.359s16.359 7.3125 16.359 16.359v0.046875c0 9.0469-7.3125 16.359-16.359 16.359s-16.359-7.3125-16.359-16.359zm-34.828-27.984c6.375-6.375 16.734-6.375 23.156 0 6.375 6.375 6.375 16.734 0 23.156l-0.046875 0.046875c-6.375 6.375-16.734 6.375-23.156 0-6.375-6.375-6.375-16.734 0-23.156zm-4.875-44.484c9.0469 0 16.359 7.3125 16.359 16.359s-7.3125 16.359-16.359 16.359h-0.046875c-9.0469 0-16.359-7.3125-16.359-16.359s7.3125-16.359 16.359-16.359zm27.984-34.875c6.375 6.375 6.375 16.734 0 23.156-6.375 6.375-16.734 6.375-23.156 0l-0.046875-0.046875c-6.375-6.375-6.375-16.734 0-23.156 6.375-6.375 16.734-6.375 23.156 0zm44.484-4.875c0 9.0469-7.3125 16.359-16.359 16.359s-16.359-7.3125-16.359-16.359v-0.046875c0-9.0469 7.3125-16.359 16.359-16.359s16.359 7.3125 16.359 16.359zm0 56.156c0 9.0469-7.3125 16.359-16.359 16.359s-16.359-7.3125-16.359-16.359v-0.046875c0-9.0469 7.3125-16.359 16.359-16.359s16.359 7.3125 16.359 16.359zm-717.14-44.625c7.9688 28.922 18.141 56.672 30.234 83.109 30.281 66.047 72.656 123.37 123.66 167.9-1.5938 1.3125-3.0938 2.6719-4.5469 4.125-11.766 11.766-19.031 27.984-19.031 45.797v48.516c0 9.0469 7.3125 16.359 16.359 16.359h537.56c9.0469 0 16.359-7.3125 16.359-16.359v-48.516c0-17.859-7.3125-34.078-19.031-45.797-1.4531-1.4531-2.9531-2.8125-4.5469-4.125 51-44.531 93.375-101.86 123.66-167.9 12.094-26.391 22.266-54.188 30.234-83.109h66.422c16.031 0 30.562-6.5625 41.062-17.062 10.547-10.547 17.062-25.078 17.062-41.062s-6.5625-30.562-17.062-41.062c-10.547-10.547-25.078-17.062-41.062-17.062h-46.781c0.70312-10.312 1.125-20.719 1.2656-31.219 9.2344-1.1719 17.531-5.3906 23.812-11.672 7.4062-7.4062 12-17.625 12-28.875v-12.656c0-11.25-4.5938-21.469-12-28.875s-17.625-12-28.875-12l-862.55 0.046875c-11.25 0-21.469 4.5938-28.875 12s-12 17.625-12 28.875v12.656c0 11.25 4.5938 21.469 12 28.875 6.2812 6.2812 14.578 10.547 23.812 11.672 0.14062 10.453 0.5625 20.859 1.2656 31.219h-46.781c-16.031 0-30.562 6.5625-41.062 17.062-10.547 10.547-17.062 25.078-17.062 41.062s6.5625 30.562 17.062 41.062c10.547 10.547 25.078 17.062 41.062 17.062h66.422zm-16.547-83.531c2.1094 17.203 4.9688 34.172 8.5312 50.812h-58.406c-6.9844 0-13.312-2.8594-17.906-7.4531s-7.4531-10.969-7.4531-17.906c0-6.9844 2.8594-13.312 7.4531-17.906s10.969-7.4531 17.906-7.4531h49.875zm855.47 50.812c3.5625-16.641 6.4219-33.562 8.5312-50.812h49.875c6.9844 0 13.312 2.8594 17.906 7.4531s7.4531 10.969 7.4531 17.906c0 6.9844-2.8594 13.312-7.4531 17.906s-10.969 7.4531-17.906 7.4531h-58.406zm-356.9-5.2969c-4.5469 7.7812-14.531 10.453-22.312 5.9531-7.7812-4.5469-10.453-14.531-5.9531-22.312l0.046875-0.046875c4.5469-7.7812 14.531-10.453 22.312-5.9531 7.7812 4.5469 10.453 14.531 5.9531 22.312zm32.438 44.344c-7.7812 4.5469-17.766 1.875-22.312-5.9531-4.5469-7.7812-1.875-17.766 5.9531-22.312l0.046875-0.046875c7.7812-4.5469 17.766-1.875 22.312 5.9531 4.5469 7.7812 1.875 17.766-5.9531 22.312zm5.8594 54.656c-9.0469 0-16.359-7.3125-16.359-16.359s7.3125-16.359 16.359-16.359h0.046875c9.0469 0 16.359 7.3125 16.359 16.359s-7.3125 16.359-16.359 16.359zm-22.219 50.203c-7.7812-4.5469-10.453-14.531-5.9531-22.312 4.5469-7.7812 14.531-10.453 22.312-5.9531l0.046875 0.046875c7.7812 4.5469 10.453 14.531 5.9531 22.312-4.5469 7.7812-14.531 10.453-22.312 5.9531zm-44.344 32.438c-4.5469-7.7812-1.875-17.766 5.9531-22.312 7.7812-4.5469 17.766-1.875 22.312 5.9531l0.046875 0.046875c4.5469 7.7812 1.875 17.766-5.9531 22.312-7.7812 4.5469-17.766 1.875-22.312-5.9531zm-54.656 5.8594c0-9.0469 7.3125-16.359 16.359-16.359s16.359 7.3125 16.359 16.359v0.046875c0 9.0469-7.3125 16.359-16.359 16.359s-16.359-7.3125-16.359-16.359zm-50.203-22.219c4.5469-7.7812 14.531-10.453 22.312-5.9531 7.7812 4.5469 10.453 14.531 5.9531 22.312l-0.046875 0.046875c-4.5469 7.7812-14.531 10.453-22.312 5.9531-7.7812-4.5469-10.453-14.531-5.9531-22.312zm-32.438-44.344c7.7812-4.5469 17.766-1.875 22.312 5.9531 4.5469 7.7812 1.875 17.766-5.9531 22.312l-0.046875 0.046875c-7.7812 4.5469-17.766 1.875-22.312-5.9531-4.5469-7.7812-1.875-17.766 5.9531-22.312zm-5.8594-54.656c9.0469 0 16.359 7.3125 16.359 16.359s-7.3125 16.359-16.359 16.359h-0.046875c-9.0469 0-16.359-7.3125-16.359-16.359s7.3125-16.359 16.359-16.359zm22.219-50.203c7.7812 4.5469 10.453 14.531 5.9531 22.312-4.5469 7.7812-14.531 10.453-22.312 5.9531l-0.046875-0.046875c-7.7812-4.5469-10.453-14.531-5.9531-22.312 4.5469-7.7812 14.531-10.453 22.312-5.9531zm44.344-32.438c4.5469 7.7812 1.875 17.766-5.9531 22.312-7.7812 4.5469-17.766 1.875-22.312-5.9531l-0.046875-0.046875c-4.5469-7.7812-1.875-17.766 5.9531-22.312 7.7812-4.5469 17.766-1.875 22.312 5.9531zm54.656-5.8594c0 9.0469-7.3125 16.359-16.359 16.359s-16.359-7.3125-16.359-16.359v-0.046875c0-9.0469 7.3125-16.359 16.359-16.359s16.359 7.3125 16.359 16.359zm34.875 76.734c-6.375 6.375-16.734 6.375-23.156 0-6.375-6.375-6.375-16.734 0-23.156l0.046875-0.046875c6.375-6.375 16.734-6.375 23.156 0 6.375 6.375 6.375 16.734 0 23.156zm4.875 44.438c-9.0469 0-16.359-7.3125-16.359-16.359s7.3125-16.359 16.359-16.359h0.046875c9.0469 0 16.359 7.3125 16.359 16.359s-7.3125 16.359-16.359 16.359zm-28.031 34.875c-6.375-6.375-6.375-16.734 0-23.156 6.375-6.375 16.734-6.375 23.156 0l0.046875 0.046875c6.375 6.375 6.375 16.734 0 23.156-6.375 6.375-16.734 6.375-23.156 0zm-44.438 4.875c0-9.0469 7.3125-16.359 16.359-16.359s16.359 7.3125 16.359 16.359v0.046875c0 9.0469-7.3125 16.359-16.359 16.359s-16.359-7.3125-16.359-16.359zm-34.875-27.984c6.375-6.375 16.734-6.375 23.156 0 6.375 6.375 6.375 16.734 0 23.156l-0.046875 0.046875c-6.375 6.375-16.734 6.375-23.156 0-6.375-6.375-6.375-16.734 0-23.156zm-4.875-44.484c9.0469 0 16.359 7.3125 16.359 16.359s-7.3125 16.359-16.359 16.359h-0.046875c-9.0469 0-16.359-7.3125-16.359-16.359s7.3125-16.359 16.359-16.359zm27.984-34.875c6.375 6.375 6.375 16.734 0 23.156-6.375 6.375-16.734 6.375-23.156 0l-0.046875-0.046875c-6.375-6.375-6.375-16.734 0-23.156 6.375-6.375 16.734-6.375 23.156 0zm44.484-4.875c0 9.0469-7.3125 16.359-16.359 16.359s-16.359-7.3125-16.359-16.359v-0.046875c0-9.0469 7.3125-16.359 16.359-16.359s16.359 7.3125 16.359 16.359zm0 56.156c0 9.0469-7.3125 16.359-16.359 16.359s-16.359-7.3125-16.359-16.359v-0.046875c0-9.0469 7.3125-16.359 16.359-16.359s16.359 7.3125 16.359 16.359z" fill-rule="evenodd"/>
</svg>
