<?xml version="1.0" encoding="UTF-8"?>
<svg width="1200pt" height="1200pt" version="1.1" viewBox="0 0 1200 1200" xmlns="http://www.w3.org/2000/svg">
 <path d="m982.77 268.69-609.76 378.47-209.81-125.89c59.902-17.484 243.7-73.457 819.57-252.58zm-461.94 467.85c-0.0625 0.058594-0.078125 0.14062-0.14062 0.19922-0.48438 0.48047-0.76172 1.1055-1.1562 1.6602-0.55469 0.78125-1.1602 1.5234-1.5039 2.3906-0.042969 0.10547-0.13672 0.17188-0.17578 0.27734l-70.09 190.25-61.02-264.43 590.63-366.6zm-45.477 189.31 60.465-164.13 69.777 33.371zm323.46-64.957-167.24-79.977c-0.11719-0.058593-0.20703-0.15234-0.32812-0.20703l-81.273-38.824 486.83-465.19z"/>
</svg>
