<?xml version="1.0" encoding="UTF-8"?>
<svg width="1200pt" height="1200pt" version="1.1" viewBox="0 0 1200 1200" xmlns="http://www.w3.org/2000/svg">
 <path d="m348.32 360c3.7031-82.969 35.766-146.06 77.953-181.92 44.625-37.969 100.45-45.703 149.44-15.562 23.953 14.766 40.641 39.328 53.766 71.25 13.172 32.016 22.172 69.938 31.594 110.2l0.46875 2.0156c9.1875 39.281 18.844 80.531 33.281 118.36 14.719 38.578 34.688 74.531 65.156 101.95 60.75 54.75 129.56 57.141 183.1 23.953 45.75-28.359 78.984-81.844 87.047-147.1 1.0312-0.46875 2.0156-1.0312 2.9531-1.6406l96-62.391c6.7969-4.4531 10.922-12 10.922-20.156v-214.97c0-13.266-10.734-24-24-24h-192c-13.266 0-24 10.734-24 24v214.97c0 8.1562 4.125 15.703 10.922 20.156l95.297 61.922c-7.4531 58.547-37.219 104.91-75.797 128.81-43.969 27.281-101.16 26.625-154.4-21.375-26.531-23.953-44.812-56.062-58.781-92.672-13.828-36.328-23.203-76.266-32.484-116.06l-0.32812-1.2656c-9.3281-39.797-18.703-79.734-32.719-113.86-14.062-34.219-33.375-64.031-63.422-82.547-59.016-36.375-126.19-25.969-177.56 17.719-48.281 41.062-82.688 111.23-86.391 200.21h-131.02c-8.2969 0-15.984 4.2656-20.344 11.297l-109.31 174.89c-2.3906 3.7969-3.6562 8.2031-3.6562 12.703v497.11c0 13.266 10.734 24 24 24h504c13.266 0 24-10.734 24-24v-497.11c0-4.5-1.2656-8.9062-3.6562-12.703l-109.31-174.89c-4.3594-7.0312-12.047-11.297-20.344-11.297zm-90.328 180c-9.9375 0-18 8.0625-18 18s8.0625 18 18 18h156c9.9375 0 18-8.0625 18-18s-8.0625-18-18-18z" fill-rule="evenodd"/>
</svg>
