<?xml version="1.0" encoding="UTF-8"?>
<svg width="1200pt" height="1200pt" version="1.1" viewBox="0 0 1200 1200" xmlns="http://www.w3.org/2000/svg">
 <path d="m882.52 147.56c-8.5781 31.969-92.953 161.44-104.58 158.29-11.578-3.0938-19.922-157.36-11.344-189.37s41.484-51 73.5-42.422c31.969 8.5781 51 41.484 42.422 73.5z"/>
 <path d="m665.81 188.48c18.75 18.75 74.672 128.95 67.875 135.74-6.75 6.7969-117-49.125-135.74-67.875-18.742-18.75-18.75-49.125 0-67.875s49.125-18.75 67.875 0z"/>
 <path d="m943.08 257.29c-25.594 6.8906-129.14 74.391-126.66 83.672 2.4844 9.2344 125.9 15.938 151.5 9.0938 25.641-6.8906 40.828-33.188 33.938-58.828-6.8438-25.594-33.141-40.781-58.781-33.938z"/>
 <path d="m332.26 250.6c-23.391 0.60938-47.766 7.6875-72.938 23.578-52.219 33-62.625 89.156-41.578 134.95 4.6875 10.219 10.875 19.828 18.422 28.594l-17.062-3.0469c-58.688-10.594-114.84 28.406-125.44 87.094l-31.922 177.19c-10.594 58.688 28.453 114.84 87.141 125.44l35.438 6.375-10.641 59.062s-8.5312 47.203 192.24 83.391c161.06 29.016 198.37 4.3594 206.86-6.5156l-15.328-109.03-11.859 65.766s-7.9688 44.156-173.29 14.344c-165.32-29.766-157.36-73.922-157.36-73.922l70.359-390.47c7.2656 3.0938 14.953 5.6719 23.016 7.5938l-65.859 365.53s-7.5938 42.141 134.11 67.641c141.71 25.547 149.29-16.547 149.29-16.547l20.906-115.97-17.25-122.58c-3.8438-3.375-7.5469-6.9844-11.109-10.734-5.6719-6-11.062-12.609-15.891-19.875-5.0156 8.5781-13.031 15.609-25.922 19.875-61.312 20.391-100.97-48.656-57.609-120.1 1.4531-2.3438 2.9531-4.7344 4.4531-7.125l0.51562-0.75c2.3438-3.7031 4.7812-7.5 6.9375-11.25 15.328-26.344 19.547-51.844-79.078-47.859-14.109 0.5625-27.234-0.89062-39.234-3.9375-8.1562-2.0625-15.797-4.875-22.875-8.2969-0.42188-0.1875-0.79688-0.375-1.1719-0.5625-12.188-6.0938-22.641-13.969-31.172-23.062-35.953-38.344-37.359-97.969 14.766-130.92 61.875-39.094 110.77-12.375 150.79 9.5625 16.453 9 31.406 17.156 45.141 19.641 13.031 2.3438 30.328 1.3125 49.641 0.14062 50.625-3.0469 114.7-6.8906 148.97 47.859 8.7656 13.922 13.688 27.141 15.656 39.562 6.8906 0.5625 13.406 1.2188 19.312 1.7812l0.46875 0.046875c1.5938 0.1875 3.1406 0.32812 4.6875 0.46875-1.7344-17.766-8.2031-36.141-19.781-54.609-29.906-47.766-77.766-58.781-118.73-60.375-18.234-0.75-36.469 0.375-52.031 1.3125-1.7812 0.09375-3.5625 0.23438-5.2969 0.32812-17.812 1.0312-30.188 1.4062-38.625-0.14062-7.5-1.3594-16.969-5.7188-31.125-13.406-2.0625-1.0781-4.2188-2.2969-6.4688-3.5156-11.766-6.4219-25.734-14.109-40.547-20.156-18.047-7.3594-38.766-13.031-61.922-12.375zm-141.56 544.74-35.438-6.375c-39.141-7.0781-65.156-44.484-58.078-83.625l31.922-177.14c7.0312-39.141 44.484-65.156 83.625-58.125l35.438 6.4219zm107.91 43.828c-9.75-1.7344-16.266-11.109-14.484-20.906 1.7344-9.7969 11.109-16.266 20.906-14.531 9.75 1.7812 16.266 11.156 14.484 20.906-1.7344 9.7969-11.109 16.312-20.906 14.531zm41.25-59.625c-1.7812 9.7969 4.7344 19.125 14.531 20.906 9.7969 1.7812 19.125-4.7344 20.906-14.531 1.7344-9.75-4.7344-19.125-14.531-20.906-9.7969-1.7344-19.125 4.7344-20.906 14.531zm-19.969-58.453c-9.75-1.7812-16.266-11.156-14.484-20.906 1.7344-9.7969 11.109-16.312 20.906-14.531 9.75 1.7812 16.266 11.109 14.484 20.906-1.7344 9.7969-11.109 16.266-20.906 14.531z" fill-rule="evenodd"/>
 <path d="m957.47 421.22c-24.562-16.875-48.656-24.844-72-26.391-23.109-1.5469-44.062 3.3281-62.344 9.9844-15.047 5.4844-29.297 12.562-41.344 18.562-2.25 1.1719-4.4531 2.25-6.5625 3.2812-14.438 7.125-24.094 11.156-31.594 12.188-8.5312 1.2188-20.859 0.375-38.625-1.3594-1.7344-0.1875-3.4688-0.32812-5.2969-0.51562-15.516-1.5469-33.656-3.375-51.938-3.3281-41.016 0-89.25 9.1875-120.98 55.734-18.234 26.766-25.172 53.719-22.078 79.312 3.0469 25.266 15.516 46.547 31.125 63.141 5.0625 5.3438 10.453 10.266 16.172 14.812l63.234 449.86s6.7031 47.531 208.74 19.125c201.98-28.406 195.32-75.938 195.32-75.938l-8.3906-59.438 35.672-5.0156c59.062-8.2969 100.22-62.906 91.922-121.97l-25.078-178.22c-8.2969-59.109-62.906-100.22-121.97-91.922l-17.203 2.3906c7.875-8.4375 14.438-17.812 19.547-27.844 22.781-45 14.578-101.48-36.328-136.45zm-33.656 198.05 55.219 392.86s6.2812 44.438-160.08 67.828c-166.36 23.391-172.64-21-172.64-21l-54.656-388.78c8.3438 3.5625 16.922 6.4688 25.453 8.5781l49.922 355.13s5.9531 42.375 148.55 22.312c142.6-20.016 136.64-62.391 136.64-62.391l-51.703-367.82c8.1094-1.6406 15.891-3.8906 23.297-6.7031zm29.766-46.875c37.406-36.938 41.109-96.469-9.7031-131.39-60.328-41.484-110.2-16.641-151.08 3.7031-16.734 8.3906-32.016 15.984-45.844 17.906-13.078 1.8281-30.375 0.14062-49.594-1.7812-50.484-4.9688-114.38-11.297-150.74 42.094-28.172 41.297-21.188 77.484-0.09375 104.53 0.65625 0.89062 1.3594 1.7344 2.0625 2.5781 10.641 12.844 24.469 23.484 39.047 31.5 8.5312 4.6875 17.297 8.4375 25.828 11.25 0.70312 0.23438 1.4062 0.42188 2.1562 0.65625 11.391 3.5156 22.312 5.25 31.641 4.9688 48-1.4062 47.391 27.328 46.781 58.594-0.60937 27.656-1.2188 57.281 31.828 69.703 60.516 22.734 102.8-44.719 62.203-117.8-1.3125-2.3906-2.7188-4.8281-4.1719-7.2656l-0.42188-0.79688c-2.25-3.7969-4.5-7.6875-6.5625-11.531-14.25-26.906-17.531-52.547 80.906-44.766 14.062 1.125 27.234 0.1875 39.375-2.3906 8.2031-1.7344 15.984-4.2656 23.156-7.4062l0.51563-0.23437 0.70312-0.28125c12.375-5.625 23.156-13.078 32.016-21.844zm87.984 367.22-35.672 5.0156-45.094-320.86 35.672-5.0156c39.375-5.5312 75.75 21.891 81.328 61.266l25.031 178.26c5.5312 39.375-21.891 75.797-61.266 81.328zm-129.89 24.328c1.4062 9.8438-5.4844 18.938-15.328 20.344-9.8438 1.3594-18.938-5.4844-20.297-15.328-1.4062-9.8438 5.4844-18.938 15.328-20.344s18.938 5.4844 20.297 15.328zm-69.516-20.531c9.8438-1.3594 16.688-10.5 15.328-20.344-1.4062-9.8438-10.5-16.688-20.344-15.281-9.8438 1.3594-16.688 10.453-15.328 20.297 1.4062 9.8438 10.5 16.734 20.344 15.328zm52.828-98.297c1.3594 9.8438-5.4844 18.938-15.328 20.297-9.8438 1.4062-18.938-5.4375-20.344-15.281-1.3594-9.8438 5.4844-18.984 15.328-20.344 9.8438-1.4062 18.938 5.4844 20.344 15.328z" fill-rule="evenodd"/>
</svg>
