<?xml version="1.0" encoding="UTF-8"?>
<svg width="1200pt" height="1200pt" version="1.1" viewBox="0 0 1200 1200" xmlns="http://www.w3.org/2000/svg">
 <path d="m1050 412.5h-468.74c-51.797 0-93.75 41.953-93.75 93.75v318.74c0 62.156 50.344 112.5 112.5 112.5h169.45l138.74 173.44c9.9375 12.422 26.672 17.203 41.719 11.953 15.047-5.2969 25.078-19.453 25.078-35.391v-150h75c62.156 0 112.5-50.344 112.5-112.5v-300c0-62.156-50.344-112.5-112.5-112.5zm-600 187.5v-93.75c0-72.469 58.781-131.26 131.26-131.26h131.26v-187.5c0-62.156-50.344-112.5-112.5-112.5h-450c-62.156 0-112.5 50.344-112.5 112.5v300c0 62.156 50.344 112.5 112.5 112.5h75v150c0 15.938 10.031 30.094 25.078 35.391 15.047 5.25 31.781 0.46875 41.719-11.953l138.74-173.44zm525 37.5c-20.719 0-37.5 16.781-37.5 37.5s16.781 37.5 37.5 37.5 37.5-16.781 37.5-37.5-16.781-37.5-37.5-37.5zm-150 0c-20.719 0-37.5 16.781-37.5 37.5s16.781 37.5 37.5 37.5 37.5-16.781 37.5-37.5-16.781-37.5-37.5-37.5zm-150 0c-20.719 0-37.5 16.781-37.5 37.5s16.781 37.5 37.5 37.5 37.5-16.781 37.5-37.5-16.781-37.5-37.5-37.5zm-450-337.5c20.719 0 37.5 16.781 37.5 37.5s-16.781 37.5-37.5 37.5-37.5-16.781-37.5-37.5 16.781-37.5 37.5-37.5zm150 0c20.719 0 37.5 16.781 37.5 37.5s-16.781 37.5-37.5 37.5-37.5-16.781-37.5-37.5 16.781-37.5 37.5-37.5zm150 0c20.719 0 37.5 16.781 37.5 37.5s-16.781 37.5-37.5 37.5-37.5-16.781-37.5-37.5 16.781-37.5 37.5-37.5z" fill-rule="evenodd"/>
</svg>
