<?xml version="1.0" encoding="UTF-8"?>
<svg width="1200pt" height="1200pt" version="1.1" viewBox="0 0 1200 1200" xmlns="http://www.w3.org/2000/svg">
 <path d="m78.141 120c-10.031 0-18.141 8.1562-18.141 18.234v273.37c0 40.266 32.484 72.891 72.562 72.891v273.37c0 103.97-14.578 161.58-25.266 203.76-6.1875 24.328-11.016 43.5-11.016 63.516 0 36.938 29.766 66.844 66.469 66.844 36.75 0 66.516-29.906 66.516-66.844 0-20.016-4.875-39.188-11.016-63.516-10.688-42.188-25.266-99.797-25.266-203.76v-273.37c40.078 0 72.562-32.625 72.562-72.891v-273.37c0-10.078-8.1094-18.234-18.141-18.234s-18.141 8.1562-18.141 18.234v188.29c0 13.453-10.828 24.328-24.188 24.328s-24.188-10.875-24.188-24.328v-188.29c0-10.078-8.1094-18.234-18.141-18.234-9.9844 0-18.094 8.1562-18.094 18.234v188.29c0 13.453-10.828 24.328-24.188 24.328s-24.188-10.875-24.188-24.328v-188.29c0-10.078-8.1094-18.234-18.141-18.234z"/>
 <path d="m1140 1019.1v-887.16c0-6.7031-5.5781-12-11.719-9.4219-36.562 15.469-88.688 104.16-121.26 349.82-11.297 84.938 3.1406 97.219 24.75 115.55 10.875 9.2344 23.531 20.016 35.672 42.375 25.078 46.219 3.9375 185.39-11.531 286.97-6.8906 45.281-12.609 83.109-12.609 101.86 0 60.75 24.141 72.891 48.328 72.891s48.375-18.234 48.375-72.891z"/>
 <path d="m879.05 606c0 139.18-112.31 252-250.78 252-138.52 0-250.78-112.83-250.78-252s112.27-252 250.78-252c138.47 0 250.78 112.83 250.78 252z"/>
 <path d="m628.26 946.22c186.98 0 338.53-152.34 338.53-340.22s-151.55-340.22-338.53-340.22-338.53 152.34-338.53 340.22 151.55 340.22 338.53 340.22zm263.29-340.22c0 146.16-117.89 264.61-263.29 264.61-145.4 0-263.29-118.45-263.29-264.61s117.89-264.61 263.29-264.61c145.4 0 263.29 118.45 263.29 264.61z" fill-rule="evenodd"/>
</svg>
