<?xml version="1.0" encoding="UTF-8"?>
<svg width="1200pt" height="1200pt" version="1.1" viewBox="0 0 1200 1200" xmlns="http://www.w3.org/2000/svg">
 <path d="m294.52 367.5c-8.6719-4.0781-12.375-14.438-8.2969-23.156 4.0781-8.6719 14.438-12.375 23.156-8.2969 26.531 12.516 50.016 27.516 70.453 44.953 7.0312 6 13.734 12.281 20.062 18.891-9.5625-42.938-27.281-76.031-53.062-99.234-32.016-28.828-77.344-43.219-135.94-43.219 5.8594 61.078 24.844 106.12 56.953 135.05 27.844 25.078 66.328 38.625 115.36 40.688-7.875-9.1406-16.5-17.719-25.922-25.734-18.047-15.375-38.953-28.688-62.719-39.891zm-119.06 486.14c4.6406 8.3906 1.5469 18.984-6.8906 23.625-8.3906 4.6406-18.984 1.5469-23.625-6.8906l-0.60938-1.125c-0.1875-0.32812-0.32812-0.65625-0.46875-0.98438l-0.14062-0.23438c-4.5938-8.3906-1.4531-18.938 6.9375-23.531s18.938-1.4531 23.531 6.9375l0.09375 0.1875c0.1875 0.28125 0.32812 0.5625 0.51562 0.89062l0.60938 1.125zm121.92 108.28c9.3281 2.25 15.047 11.625 12.797 20.953s-11.625 15.047-20.953 12.797c-18.797-4.5469-37.266-12.844-54.984-24.469-17.438-11.438-34.078-26.109-49.406-43.641-6.3281-7.2188-5.5781-18.188 1.6406-24.469 7.2188-6.3281 18.188-5.5781 24.469 1.6406 13.312 15.188 27.562 27.797 42.328 37.5 14.297 9.375 29.156 16.078 44.109 19.688zm349.08 27.281c-21.562 16.312-44.203 27.609-67.078 33.141l-0.60938 0.14062c-27.375 6.4688-55.172 4.6406-81.75-6.8438-10.969-4.7344-21.375-10.969-31.172-18.562-10.125-7.8281-19.453-17.062-28.078-27.469-6.0938-7.4062-17.016-8.4844-24.422-2.3906-0.9375 0.79688-1.7812 1.6406-2.5312 2.5781-8.5312 10.359-17.859 19.5-27.891 27.281-9.7969 7.5938-20.203 13.828-31.172 18.562-5.4844 2.3438-11.109 4.3594-16.875 5.9531-42 11.672-86.438 0.5625-127.08-28.312-42.375-30.141-80.438-79.219-107.53-142.03-8.3906-19.406-15.75-40.219-21.844-62.25-27.891-100.36-22.172-189.28 3.375-259.4 27.047-74.25 76.172-127.13 130.64-149.68 9.0469 14.578 19.734 27.375 31.969 38.391 42.375 38.156 102.75 54.422 181.18 48.797 6.2344-0.42188 11.484-4.125 14.203-9.2812 13.078-21.609 27.75-39.094 43.406-52.734 27-23.531 57-35.344 87.188-36.984 30.469-1.6875 61.5 6.8906 90.188 24.141 8.5312 5.1562 16.922 11.062 24.984 17.766-17.344 3.0938-34.453 9.1406-50.812 17.953-28.453 15.281-54.656 38.953-76.031 69.516-48.703 69.703-72.188 175.97-37.453 300.79 5.4375 19.594 12.094 38.25 19.688 55.922 24.938 57.703 60.375 103.17 100.17 131.44 1.7344 1.2188 3.5156 2.4375 5.25 3.6094zm370.74-536.06c-7.3594 11.484-15.984 21.656-25.781 30.469-35.859 32.297-86.812 46.078-152.86 41.297-6.2344-0.42188-11.438-4.0781-14.156-9.2344-27.375-45.094-62.578-67.922-98.625-72.422-0.75-0.046875-1.4531-0.14062-2.1562-0.23438l-0.42188-0.046875c-24.094-2.4375-48.797 3.1406-71.906 15.609-23.812 12.797-45.891 32.812-64.031 58.734-43.453 62.156-64.078 157.92-32.438 271.69 5.0625 18.234 11.156 35.391 18.047 51.422 22.359 51.703 53.625 92.109 88.453 116.91 7.3594 5.25 14.906 9.7969 22.547 13.547 0.23437 0.14063 0.46875 0.23438 0.75 0.375 26.297 12.797 53.719 16.5 79.922 9.2344 4.6875-1.3125 9.2344-2.9062 13.641-4.8281 8.8594-3.8438 17.344-8.9062 25.266-15.094 8.25-6.375 15.844-13.875 22.875-22.406 6.0938-7.4062 17.016-8.4844 24.422-2.3906 0.9375 0.79687 1.8281 1.6406 2.5312 2.5781 6.9375 8.4375 14.531 15.891 22.688 22.219 7.9688 6.1875 16.406 11.25 25.266 15.094 4.4062 1.9219 8.9531 3.5156 13.641 4.8281 34.031 9.4688 70.172 0.375 103.22-23.109 34.828-24.75 66.141-65.203 88.453-116.91 6.8906-16.031 12.984-33.188 18.047-51.422 23.016-82.875 18.328-156.19-2.7656-214.03-21.844-59.906-61.125-102.89-104.77-121.82zm-82.922-42.75c-22.312 10.547-42.047 23.156-59.25 37.781-3.2344 2.7656-6.375 5.5781-9.4219 8.4844 8.2031-30.234 21.797-53.859 40.734-70.922 25.5-22.969 61.453-34.688 107.91-35.156-5.1562 48.422-20.531 84.141-46.078 107.2-21.328 19.219-50.344 30.094-87.141 32.672 5.1562-5.5312 10.688-10.828 16.594-15.844 14.812-12.609 31.969-23.531 51.516-32.766 8.6719-4.0781 12.375-14.438 8.2969-23.156-4.0781-8.6719-14.438-12.375-23.156-8.2969zm-285.89 431.72-0.51562-0.9375c-0.1875-0.28125-0.32813-0.60938-0.51563-0.89063-4.5938-8.3906-15.141-11.531-23.531-6.9375-8.3906 4.5938-11.531 15.141-6.9375 23.531v0.046876c0.1875 0.32812 0.32813 0.65625 0.51563 0.98437l0.51562 0.9375c4.6406 8.3906 15.188 11.484 23.625 6.8906 8.3906-4.6406 11.484-15.188 6.8906-23.625zm99.516 88.641c-11.672-2.8125-23.344-8.0156-34.734-15.375-11.719-7.5469-23.062-17.344-33.703-29.156-6.4219-7.125-17.438-7.7344-24.562-1.3125-7.125 6.4219-7.7344 17.438-1.3125 24.562 12.703 14.062 26.391 25.875 40.781 35.156 14.531 9.3281 29.766 16.078 45.328 19.828 9.3281 2.25 18.703-3.4688 20.953-12.797 2.25-9.3281-3.4688-18.703-12.797-20.953zm-295.74-522.42c3.6562-36.375 17.016-71.344 40.031-104.86 23.484-34.219 57.094-66.938 100.69-98.156 7.8281-5.5781 9.6562-16.406 4.0781-24.234-5.5781-7.8281-16.406-9.6562-24.234-4.0781-47.016 33.656-83.438 69.281-109.27 106.88-26.297 38.297-41.578 78.656-45.891 121.03-0.9375 9.5625 6.0469 18.047 15.562 18.984 9.5625 0.9375 18.047-6.0469 18.984-15.562zm400.13 57.609c0.28125 9.5625-7.3125 17.578-16.875 17.812-9.5625 0.28125-17.578-7.3125-17.812-16.875-0.9375-29.906-9.7969-59.203-26.719-87.891-17.297-29.391-43.031-58.219-77.297-86.531-7.4062-6.1406-8.4375-17.109-2.2969-24.469 6.1406-7.4062 17.109-8.4375 24.469-2.2969 37.219 30.797 65.578 62.719 85.031 95.766 19.875 33.75 30.375 68.625 31.453 104.53z" fill-rule="evenodd"/>
</svg>
