<?xml version="1.0" encoding="UTF-8"?>
<svg width="1200pt" height="1200pt" version="1.1" viewBox="0 0 1200 1200" xmlns="http://www.w3.org/2000/svg">
 <path d="m996.48 61.559c-79.32 0-144 64.559-144 144v144c0 30.359 9.3594 59.16 27 83.762l93.238 687.48c1.6797 11.879 11.762 20.762 23.762 20.762 12.121 0 22.199-8.8789 23.879-20.762 0.83984-6.4805 83.398-614.64 93.238-687.48 17.641-24.602 26.879-53.398 26.879-83.762v-144c0.003907-79.438-64.555-144-144-144zm96 288c0 21.719-7.0781 42.238-20.641 59.398-2.7617 3.3594-4.4414 7.4414-5.0391 11.762-2.3984 18.121-43.199 318.84-70.199 518.28l-70.441-518.4c-0.48047-4.1992-2.2812-8.2812-4.9219-11.641-13.559-17.16-20.762-37.68-20.762-59.398v-144c0-52.922 43.078-96 96-96 53.039 0 96 43.078 96 96 0.003907-0.003906 0.003907 144 0.003907 144zm-72-144v144c0 13.199-10.68 24-24 24-13.199 0-24-10.801-24-24v-144c0-13.32 10.801-24 24-24 13.32 0 24 10.68 24 24zm-312.96-147.12h-576c-39.719 0-72 32.281-72 72v32.039c0 15.48 5.1602 30.719 14.398 43.199l57.602 76.801v631.92l-57.602 76.801c-9.2383 12.359-14.398 27.719-14.398 43.199v32.039c0 39.719 32.281 72 72 72h576c39.719 0 72-32.281 72-72v-32.039c0-15.48-5.0391-30.84-14.398-43.199l-57.602-76.801v-632.04l57.602-76.68c9.3594-12.48 14.398-27.719 14.398-43.199v-32.039c0-39.723-32.281-72-72-72zm19.199 961.56c3.1211 4.1992 4.8008 9.2383 4.8008 14.398v32.039c0 13.199-10.68 24-24 24h-576c-13.199 0-24-10.801-24-24v-32.039c0-5.1602 1.6797-10.199 4.8008-14.398l55.199-73.559h504zm-257.04-721.56h119.76l-409.92 223.56v-65.281zm-290.16 103.56v-103.56h189.96zm308.04 6.7188 171.96-93.84v65.281l-480 261.84v-65.281zm0 120 171.96-93.84v65.281l-480 261.84v-65.281zm0 120 171.96-93.84v65.281l-480 261.84v-65.281zm-118.08 249.72h-119.76l409.8-223.56v65.281zm290.04-103.56v103.56l-189.84 0.003906zm72-632.4c0 5.1602-1.6797 10.199-4.8008 14.398l-55.199 73.559h-504l-55.199-73.559c-3.1211-4.1992-4.8008-9.2383-4.8008-14.398v-32.039c0-13.199 10.801-24 24-24h576c13.32 0 24 10.801 24 24z"/>
</svg>
