<?xml version="1.0" encoding="UTF-8"?>
<svg width="1200pt" height="1200pt" version="1.1" viewBox="0 0 1200 1200" xmlns="http://www.w3.org/2000/svg">
 <path d="m219.6 1140 240 60h3.6016 1.1992l513.6-57.602c4.8008 0 8.3984-2.3984 10.801-6 2.3984-3.6016 3.6016-7.1992 2.3984-12l-134.4-796.8h9.6016c4.8008 0 8.3984-2.3984 12-4.8008 2.3984-3.6016 4.8008-7.1992 3.6016-12l-4.8008-55.199c-1.1992-7.1992-7.1992-14.398-14.398-14.398l-21.605-1.2031-24-174c-3.6016-25.199-24-45.602-49.199-48-72-7.1992-252-25.199-369.6-15.602h-1.1992c-26.398 2.3984-46.801 22.801-49.199 48l-26.398 190.8-9.6016 2.4023c-7.1992 1.1992-13.199 6-13.199 13.199l-7.1992 56.398c-1.1992 4.8008 1.1992 9.6016 3.6016 13.199 2.3984 3.6016 7.1992 4.8008 10.801 4.8008h1.1992 4.8008l-103.2 792c-1.2031 7.1992 3.5938 14.402 10.797 16.801zm532.8-902.4-38.398-1.1992 6-117.6c9.6016-7.1992 19.199-4.8008 26.398-2.3984zm-268.8-8.4023-8.4023-129.6 214.8 12-7.1992 123.6zm-50.402 60-105.6 8.3984h-4.8008l3.6016-25.199 106.8-12zm-55.199-234c1.1992-10.801 9.6016-18 19.199-20.398 3.6016 3.6016 7.1992 18 7.1992 32.398v166.8l-51.602 6zm432 184.8-26.398-1.1992-7.2031-133.2c0-4.8008-2.3984-9.6016-7.1992-12-4.8008-3.6016-13.199-7.1992-21.602-8.3984-1.1992-1.2031-3.5977-1.2031-5.9961-2.4023l-282-15.602c-4.8008 0-8.3984 1.1992-12 4.8008-3.6016 3.6016-4.8008 7.1992-4.8008 12l9.6016 144h-2.3984-1.1992l-12 1.1992-0.003907-162c0-4.8008 0-20.398-4.8008-34.801 112.8-4.8008 268.8 10.801 334.8 18 10.801 1.1992 20.398 9.6016 21.602 21.602zm39.602 56.398h-10.801l-374.4-8.3984v-28.801l300 9.6016c1.1992 0 2.3984 1.1992 4.8008 1.1992h1.1992 2.3984l75.602 2.3984zm109.2 817.2-480 54-13.199-847.2 361.2 7.1992zm-717.6-1.2031 102-784.8 91.199-7.1992 13.203 843.6z"/>
 <path d="m784.8 451.2h-2.3984c-7.1992 0-14.398-6-15.602-13.199l-8.3984-57.602c-1.1992-8.3984 4.8008-16.801 13.199-18 8.3984-1.1992 16.801 4.8008 18 13.199l8.3984 57.602c1.1992 9.6016-4.8008 16.801-13.199 18z"/>
 <path d="m703.2 451.2h-2.3984c-7.1992 0-14.398-6-15.602-13.199l-8.3984-57.602c-1.1992-8.3984 4.8008-16.801 13.199-18 8.3984-1.1992 16.801 4.8008 18 13.199l8.3984 57.602c1.2031 9.6016-4.7969 16.801-13.199 18z"/>
 <path d="m621.6 451.2h-2.3984c-7.1992 0-14.398-6-15.602-13.199l-8.3984-57.602c-1.1992-8.3984 4.8008-16.801 13.199-18 8.3984-1.1992 16.801 4.8008 18 13.199l8.3984 57.602c1.1992 9.6016-4.8008 16.801-13.199 18z"/>
 <path d="m526.8 362.4c8.3984-1.1992 16.801 4.8008 18 13.199l8.3984 57.602c1.1992 8.3984-4.8008 16.801-13.199 18h-2.3984c-7.1992 0-14.398-6-15.602-13.199l-8.3984-57.602c-1.2031-8.3984 4.7969-16.797 13.199-18z"/>
 <path d="m769.2 496.8 8.3984 57.602c1.1992 8.3984-4.8008 16.801-13.199 18h-2.3984c-7.1992 0-14.398-6-15.602-13.199l-8.3984-57.602c-1.1992-8.3984 4.8008-16.801 13.199-18 8.4023-1.2031 16.801 4.7969 18 13.199z"/>
 <path d="m664.8 559.2-8.3984-57.602c-1.1992-8.3984 4.8008-16.801 13.199-18 8.3984-1.1992 16.801 4.8008 18 13.199l8.3984 57.602c1.1992 8.3984-4.8008 16.801-13.199 18h-2.3984c-8.4023 0-14.402-6-15.602-13.199z"/>
 <path d="m588 483.6c8.3984-1.1992 16.801 4.8008 18 13.199l8.3984 57.602c1.1992 8.3984-4.8008 16.801-13.199 18h-2.3984c-7.1992 0-14.398-6-15.602-13.199l-8.3984-57.602c-1.1992-9.6016 4.8008-16.801 13.199-18z"/>
 <path d="m830.4 681.6h-2.3984c-7.1992 0-14.398-6-15.602-13.199l-9.6016-57.602c-1.1992-8.3984 4.8008-16.801 13.199-18 8.3984-1.1992 16.801 4.8008 18 13.199l9.6016 57.602c1.2031 8.3984-4.7969 16.797-13.199 18z"/>
 <path d="m751.2 663.6c1.1992 8.3984-4.8008 16.801-13.199 18h-2.3984c-7.1992 0-14.398-6-15.602-13.199l-9.6016-57.602c-1.1992-8.3984 4.8008-16.801 13.199-18 8.3984-1.1992 16.801 4.8008 18 13.199z"/>
 <path d="m646.8 681.6h-2.3984c-7.1992 0-14.398-6-15.602-13.199l-9.6016-57.602c-1.1992-8.3984 4.8008-16.801 13.199-18 8.3984-1.1992 16.801 4.8008 18 13.199l9.6016 57.602c1.1992 8.3984-4.8008 16.797-13.199 18z"/>
 <path d="m555.6 681.6h-2.3984c-7.1992 0-14.398-6-15.602-13.199l-9.6016-57.602c-1.1992-8.3984 4.8008-16.801 13.199-18 8.3984-1.1992 16.801 4.8008 18 13.199l9.6016 57.602c0 8.3984-4.8008 16.797-13.199 18z"/>
 <path d="m792 712.8c8.3984-1.1992 16.801 4.8008 18 13.199l9.6016 57.602c1.1992 8.3984-4.8008 16.801-13.199 18h-2.3984c-7.1992 0-14.398-6-15.602-13.199l-8.4023-57.602c-1.1992-8.4023 3.6016-15.602 12-18z"/>
 <path d="m700.8 712.8c8.3984-1.1992 16.801 4.8008 18 13.199l9.6016 57.602c1.1992 8.3984-4.8008 16.801-13.199 18h-2.3984c-7.1992 0-14.398-6-15.602-13.199l-9.6016-57.602c-1.2031-8.4023 4.7969-15.602 13.199-18z"/>
 <path d="m609.6 712.8c8.3984-1.1992 16.801 4.8008 18 13.199l9.6016 57.602c1.1992 8.3984-4.8008 16.801-13.199 18h-2.3984c-7.1992 0-14.398-6-15.602-13.199l-9.6016-57.602c-1.2031-8.4023 4.7969-15.602 13.199-18z"/>
 <path d="m848.4 855.6c-1.1992-8.3984 3.6016-16.801 12-18 8.3984-1.1992 16.801 3.6016 18 12l10.801 57.602c1.1992 8.3984-3.6016 16.801-12 18h-2.3984c-7.1992 0-13.199-4.8008-15.602-13.199z"/>
 <path d="m740.4 855.6c-1.1992-8.3984 3.6016-16.801 12-18 8.3984-1.1992 16.801 3.6016 18 12l10.801 57.602c1.1992 8.3984-3.6016 16.801-12 18h-2.3984c-7.1992 0-13.199-4.8008-15.602-13.199z"/>
 <path d="m631.2 855.6c-1.1992-8.3984 3.6016-16.801 12-18 8.3984-1.1992 16.801 3.6016 18 12l10.801 57.602c1.1992 8.3984-3.6016 16.801-12 18h-2.3984c-7.1992 0-13.199-4.8008-15.602-13.199z"/>
 <path d="m535.2 836.4c8.3984-1.1992 16.801 3.6016 18 12l10.801 57.602c1.1992 8.3984-3.6016 16.801-12 18h-2.3984c-7.1992 0-13.199-4.8008-15.602-13.199l-10.801-57.602c-2.3984-6 3.6016-14.398 12-16.801z"/>
 <path d="m832.8 957.6c8.3984-1.1992 16.801 3.6016 18 12l10.801 57.602c1.1992 8.3984-3.6016 16.801-12 18h-2.3984c-7.1992 0-13.199-4.8008-15.602-13.199l-10.801-57.602c-1.1992-7.2031 3.5977-15.602 12-16.801z"/>
 <path d="m724.8 957.6c8.3984-1.1992 16.801 3.6016 18 12l10.801 57.602c1.1992 8.3984-3.6016 16.801-12 18h-2.3984c-7.1992 0-13.199-4.8008-15.602-13.199l-10.801-57.602c-2.4023-7.2031 3.5977-15.602 12-16.801z"/>
 <path d="m615.6 957.6c8.3984-1.1992 16.801 3.6016 18 12l10.801 57.602c1.1992 8.3984-3.6016 16.801-12 18h-2.3984c-7.1992 0-13.199-4.8008-15.602-13.199l-10.801-57.602c-2.4023-7.2031 3.5977-15.602 12-16.801z"/>
</svg>
