<?xml version="1.0" encoding="UTF-8"?>
<svg width="1200pt" height="1200pt" version="1.1" viewBox="0 0 1200 1200" xmlns="http://www.w3.org/2000/svg">
 <path d="m1157 243.54h-1113.9c-23.73 0-43.031 19.34-43.031 43.031v599.82c0 23.734 19.301 43.031 43.031 43.031h55.781v6c0 11.574 9.4141 21.027 21.027 21.027h175.23c11.609 0 21.027-9.4531 21.027-21.027v-6h564.95v6c0 11.574 9.4531 21.027 21.023 21.027h175.27c11.57 0 21.027-9.4531 21.027-21.027v-6h58.605c23.734 0 43.031-19.301 43.031-43.031l0.003906-599.82c0-23.691-19.301-43.031-43.031-43.031zm19.496 642.86c0 10.75-8.7461 19.496-19.496 19.496h-1113.9c-10.75 0-19.496-8.7461-19.496-19.496v-599.82c0-10.75 8.7461-19.496 19.496-19.496h1113.9c10.75 0 19.496 8.7461 19.496 19.496z"/>
 <path d="m914.19 288.38h-866.14c-4.3555 0-7.8438 3.5312-7.8438 7.8438v580.52c0 4.3555 3.4922 7.8438 7.8438 7.8438h866.14c4.3125 0 7.8438-3.4922 7.8438-7.8438v-580.52c0-4.3125-3.5312-7.8438-7.8438-7.8438zm-779.56 518.78v-441.3c0-5.9609 4.8633-10.828 10.828-10.828h671.34c5.9609 0 10.789 4.8633 10.789 10.828v441.3c0 5.9609-4.8242 10.789-10.789 10.789l-671.34-0.003907c-5.9609 0-10.824-4.8242-10.824-10.785z"/>
 <path d="m1110.9 339.49c0 30.324-24.676 54.996-54.996 54.996-30.324 0-54.996-24.676-54.996-54.996 0-30.363 24.676-55.035 54.996-55.035 30.324 0 54.996 24.672 54.996 55.035z"/>
 <path d="m1055.9 526.06c30.328 0 55-24.672 55-54.996s-24.672-54.996-55-54.996c-30.324 0-54.996 24.672-54.996 54.996s24.672 54.996 54.996 54.996zm0-86.457c17.348 0 31.461 14.113 31.461 31.461s-14.113 31.461-31.461 31.461c-17.348 0-31.461-14.113-31.461-31.461s14.113-31.461 31.461-31.461z"/>
 <path d="m1055.9 657.65c30.328 0 55-24.672 55-54.996 0-30.328-24.672-55-55-55-30.324 0-54.996 24.672-54.996 55 0 30.324 24.672 54.996 54.996 54.996zm0-86.461c17.348 0 31.461 14.113 31.461 31.461 0 17.348-14.113 31.461-31.461 31.461-17.348 0-31.461-14.113-31.461-31.461 0-17.348 14.113-31.461 31.461-31.461z"/>
 <path d="m1145.9 803.63v59.273c0 14.121-11.535 25.617-25.656 25.617l-128.7-0.003906c-14.16 0-25.656-11.492-25.656-25.617v-59.273c0-14.121 11.492-25.617 25.656-25.617h128.7c14.121 0.003907 25.656 11.5 25.656 25.621z"/>
</svg>
