<?xml version="1.0" encoding="UTF-8"?>
<svg width="1200pt" height="1200pt" version="1.1" viewBox="0 0 1200 1200" xmlns="http://www.w3.org/2000/svg">
 <path d="m309.79 504.89c11.156-15.797 64.453-49.172 177.1 3.9375 118.36 55.828 193.5 24.938 218.11-2.9062 4.3594-4.9688 3.8906-12.562-1.0781-16.969-4.9219-4.3594-12.516-3.8906-16.922 1.0781-15.375 17.391-77.812 49.922-189.89-2.9062-117.75-55.547-186.1-25.547-206.9 3.9375-3.8438 5.3906-2.5312 12.891 2.8594 16.688 5.4375 3.8438 12.891 2.5312 16.734-2.8594z"/>
 <path d="m486.89 664.87c-112.64-53.156-165.94-19.734-177.1-3.9375-3.8438 5.3906-11.297 6.7031-16.734 2.8594-5.3906-3.8438-6.7031-11.297-2.8594-16.734 20.812-29.438 89.156-59.438 206.9-3.9375 112.08 52.875 174.52 20.344 189.89 2.9531 4.4062-4.9688 12-5.4375 16.922-1.0781 4.9688 4.4062 5.4375 12 1.0781 16.969-24.609 27.844-99.75 58.688-218.11 2.9062z"/>
 <path d="m240 348c-13.266 0-24 10.734-24 24v396c0 13.266 10.734 24 24 24h516c13.266 0 24-10.734 24-24v-396c0-13.266-10.734-24-24-24zm0 24h516v396h-516z" fill-rule="evenodd"/>
 <path d="m108 204c-26.531 0-48 21.469-48 48v636c0 26.531 21.469 48 48 48h84v36c0 13.266 10.734 24 24 24h84c13.266 0 24-10.734 24-24v-36h552v36c0 13.266 10.734 24 24 24h84c13.266 0 24-10.734 24-24v-36h84c26.531 0 48-21.469 48-48v-636c0-26.531-21.469-48-48-48zm120 120c-19.875 0-36 16.125-36 36v420c0 19.875 16.125 36 36 36h540c19.875 0 36-16.125 36-36v-420c0-19.875-16.125-36-36-36zm732 12c-6.6094 0-12 5.3906-12 12v24.984c-34.031 5.7188-60 35.344-60 71.016 0 39.75 32.25 72 72 72s72-32.25 72-72c0-35.672-25.969-65.297-60-71.016v-24.984c0-6.6094-5.3906-12-12-12zm-72 336c-6.6094 0-12 5.3906-12 12s5.3906 12 12 12h144c6.6094 0 12-5.3906 12-12s-5.3906-12-12-12zm-12 96c0-6.6094 5.3906-12 12-12h144c6.6094 0 12 5.3906 12 12s-5.3906 12-12 12h-144c-6.6094 0-12-5.3906-12-12z" fill-rule="evenodd"/>
</svg>
