<?xml version="1.0" encoding="UTF-8"?>
<svg width="1200pt" height="1200pt" version="1.1" viewBox="0 0 1200 1200" xmlns="http://www.w3.org/2000/svg">
 <path d="m442.92 142.31c-12.703 2.3906-25.969 5.25-39.797 8.6719-37.312 9.0938-67.828 20.203-92.766 32.766 4.9219-0.375 9.8906-0.65625 14.906-0.75 77.672-1.5938 165.05 31.969 248.02 133.4 4.2188 5.1094 3.4688 12.703-1.6875 16.875-5.1094 4.2188-12.703 3.4688-16.875-1.6875-79.031-96.562-159.66-126-228.98-124.6-23.484 0.46875-45.891 4.5-66.703 10.828-16.875 15.047-28.828 31.078-37.078 47.484 40.875-6.3281 83.812 0.98438 123.61 16.828 92.203 36.703 178.26 123.89 192.1 220.74 11.438 79.969 1.5 154.55-21.375 211.78 39.141 3.4688 78.797 2.0625 114.7-6.6562 30.562-26.109 50.812-61.359 64.219-98.344 21.797-60.141 24.797-123.14 24.797-153.66 0-6.6094 5.3906-12 12-12 6.6094 0 12 5.3906 12 12 0 31.594-3 97.875-26.203 161.86-9 24.797-21.141 49.547-37.5 71.812 36.562-19.359 64.969-50.531 78.188-97.547 3.4688-12.281 6.4688-24.328 9.1406-36.094 26.297-116.62 16.031-210.94-0.65625-269.95-8.6719-30.656-19.031-51.797-26.859-61.594-1.4062-1.7812-2.9531-3.7969-4.6406-6-1.5938-2.1094-3.3281-4.3594-5.25-6.7969-26.156-33.234-82.922-92.953-235.82-77.016 41.766 17.625 81.281 44.344 113.25 81.797 59.812 70.031 91.688 175.92 64.172 325.69-1.2188 6.5156-7.4531 10.828-13.969 9.6562-6.5156-1.2188-10.828-7.4531-9.6562-13.969 26.484-144.24-4.6406-242.34-58.828-305.81-39.703-46.5-92.531-75.281-146.44-89.719z"/>
 <path d="m513.42 506.34c-18.188-127.22-181.26-244.36-301.82-213.94-42 10.641-78.844 39.141-102.56 91.406-48.75 107.16-52.688 181.64-42 234.37 6.6562-8.4844 14.25-15.984 22.688-22.594 33.094-25.875 76.125-34.969 117.84-34.125 41.906 0.84375 85.078 11.672 121.26 28.547 35.484 16.5 67.828 40.5 83.672 70.219 19.5 36.562 28.5 81.094 26.438 124.45 5.9531-4.5469 11.719-9.9844 17.25-16.172 6.5625-30.844 10.969-71.062 5.1562-112.88-5.3438-38.766-19.453-78.562-48.422-113.62s-73.312-66.094-140.44-86.531c-6.3281-1.9219-9.8906-8.625-7.9688-15 1.9219-6.3281 8.625-9.8906 15-7.9688 70.875 21.562 119.53 55.031 151.87 94.219 32.344 39.188 47.859 83.391 53.766 125.63 3.2344 23.484 3.5156 46.453 2.0625 67.781 1.2656-2.7656 2.5312-5.5312 3.75-8.3906 21.422-50.156 32.344-117.19 24.281-190.64-0.51562-4.9219-1.125-9.8438-1.8281-14.766z"/>
 <path d="m743.26 671.29c24.469 16.125 49.359 26.578 70.359 31.078 12.516 2.7188 26.812 3.6094 42.141 2.625l-0.14062-0.42188c-0.14063-0.375-0.23438-0.79688-0.32813-1.1719-7.0312-24.422-4.2656-51.281 2.9531-76.641 14.344-50.625 48.938-104.44 84.375-143.11 33.141-36.188 70.922-56.766 108.14-53.484-23.859-152.39-192.14-204.61-287.81-216 7.4062 10.875 14.766 26.391 21.281 45.047 7.7344 22.219 14.812 50.484 19.219 83.812 8.8594 66.75 7.1719 154.36-21.375 255.71-8.2031 29.156-21.609 53.156-38.812 72.562z"/>
 <path d="m960.66 500.21c32.531-35.438 65.016-49.547 92.719-45 29.719 4.875 53.906 31.219 66.609 75.656 10.547 36.891 12 69.281 7.8281 97.594-17.859-8.7188-39.094-6.6562-60.094 2.2969l-1.5 0.5625c-15.281 6.0938-46.594 18.562-69.141 42.938-12.234 13.219-22.266 30.188-25.969 51.609-1.6875 9.75-2.0156 19.969-0.89062 30.703-10.969-2.4375-22.594-5.8594-34.922-10.406-3.2344-10.688-4.4531-23.25-3.6562-37.172 2.1094-37.594 18.609-80.953 42-111.19 4.0781-5.25 3.0938-12.797-2.1094-16.828-5.25-4.0781-12.797-3.0938-16.875 2.1094-26.25 33.984-44.625 81.938-46.969 124.55-0.51562 9.1406-0.32812 18.141 0.75 26.859-13.969-8.2031-22.969-19.453-27.938-32.719-20.438-54.797 28.031-144.71 80.156-201.56z"/>
 <path d="m1003.5 788.16c-3.9375-9.9375-6.5625-19.172-8.0156-27.75-2.4375-14.203-1.6875-26.578 1.2656-37.359 11.625-42.234 57.047-60.375 79.266-69.234l1.0312-0.42188c85.781-36.75 73.547 104.16 24.516 171.56-50.203 69-61.266 55.125-98.062-36.797z"/>
 <path d="m133.87 917.86c-0.23438-2.4375-0.32812-4.8281-0.32812-7.125 0-9.6094 0.9375-18.328 2.6719-26.25 26.484-119.25 238.69-62.203 248.53-22.781 1.125 4.5938 2.2969 8.9531 3.4688 13.078 15.516 54.938 32.953 72.375 46.453 85.875 7.2656 7.2656 13.359 13.359 17.438 23.578 0.79688 1.9219 1.5938 3.8906 2.4844 5.9062 12.891 30.609 30.938 73.359-112.73 67.641-145.45-5.8125-202.5-88.969-207.89-139.31z"/>
 <path d="m109.83 894.42c-12.094-15-23.297-34.172-31.969-58.219 0.23438-6.2344 0.75-12.422 1.6406-18.516 4.1719-28.453 16.172-54.891 39.891-75.328 23.766-20.578 60.422-36.047 115.55-40.406 6.6094-0.51562 11.531-6.2812 11.016-12.891s-6.2812-11.531-12.891-11.016c-58.688 4.5938-100.69 21.328-129.37 46.125-18.984 16.406-31.641 35.906-39.469 56.766-2.7188-18.141-4.2188-38.156-4.2188-60.141 0-28.922 5.7656-52.453 15.75-71.25 7.5-14.109 17.391-25.547 29.062-34.641 81.562-63.75 249.28-12.094 286.03 56.859 19.594 36.703 27.422 83.156 22.406 126.89-1.7812 15.422-5.1562 30.516-10.219 44.719-4.9688-7.7344-11.953-13.641-17.859-17.859-9.75-6.9844-21.984-13.125-35.25-18.281-26.531-10.312-60.375-17.812-94.078-18.75-33.281-0.84375-69.469 4.6406-98.062 23.625-26.484 17.531-44.016 44.953-47.953 82.312z"/>
</svg>
