<?xml version="1.0" encoding="UTF-8"?>
<svg width="1200pt" height="1200pt" version="1.1" viewBox="0 0 1200 1200" xmlns="http://www.w3.org/2000/svg">
 <path d="m936.19 780.47c4.5 2.5781 9.6562 4.5469 15.375 5.8594 5.6719 1.3125 11.766 1.875 18.047 1.6406 7.2656-0.375 14.297 3.8906 17.062 11.109 2.8125 7.3125 8.0156 13.453 14.578 17.531 6.3281 3.9375 14.016 5.9531 22.125 5.25 3.7031-0.32812 7.125-1.125 10.266-2.3906 3.2812-1.3125 6.3281-3.1406 9.0469-5.2969 7.1719-5.7656 17.719-4.9219 23.859 2.0625 1.875 2.1094 4.1719 3.75 6.75 4.7812 2.4375 0.98438 5.2031 1.4062 8.2031 1.125 4.9219-0.42188 9.1406-2.7656 12.047-6.2344s4.5469-8.1094 4.0781-13.031c-0.09375-1.2188-0.28125-2.2031-0.46875-2.9531-0.23438-0.98438-0.60938-1.9219-0.98438-2.8125-0.14062-0.32812-0.28125-0.65625-0.42188-1.0312-3.3281-8.9531 1.2188-18.984 10.219-22.312 10.031-3.75 18.281-9.6094 23.625-16.641 4.5469-5.9062 6.8906-12.703 6.2812-19.594-0.046875-0.5625-0.14062-1.125-0.1875-1.6875-1.7812 1.0781-3.6562 2.1094-5.625 2.9531-7.7344 3.5156-15.891 5.0156-23.859 4.7344-2.7188-0.09375-5.3906-0.42188-8.0625-0.9375-4.3594 5.2031-10.406 9.7031-22.969 15.422-12.422 5.6719-30.047 3-46.828-4.0312-12-5.0156-24.234-12.469-33.75-20.438-13.266 5.9062-21.562 11.016-30.375 16.406-8.1562 4.9688-16.688 10.219-29.531 16.641 0.70312 4.6875 1.1719 9.2812 1.5 13.922zm94.031-246.52-0.14062-0.14062c-4.7344-4.9219-11.391-7.5469-18.891-8.0156-8.8594-0.5625-18.703 1.7812-28.078 6.9375-8.3906 4.5938-18.938 1.4531-23.531-6.9375-0.1875-0.32812-0.375-0.70312-0.51562-1.0312h-0.046875c-0.42188-0.89062-0.89062-1.7344-1.4531-2.5781-0.51562-0.75-1.0781-1.4062-1.6875-2.1094l-0.046875 0.046875c-0.28125-0.28125-0.5625-0.5625-0.79688-0.89062-3.3281-3.1406-7.5938-4.7344-11.859-4.8281-4.4531-0.09375-8.9531 1.5469-12.469 4.8281l0.046875 0.046875c-0.28125 0.28125-0.5625 0.5625-0.89062 0.79688-1.7344 1.875-3.0469 4.0312-3.7969 6.2812-0.9375 2.6719-1.2188 5.4844-0.84375 8.2969 1.2188 9.375-5.2969 17.953-14.578 19.406-3.2812 0.65625-6.4688 1.7344-9.5625 3.2812-3 1.5469-5.8594 3.6094-8.5781 6.1875-5.8125 5.625-9.2812 12.703-10.453 20.109-1.2188 7.5938 0.046875 15.562 3.75 22.547 3.6094 6.8906 2.1562 15.094-3.0469 20.344-4.125 4.4062-7.4531 9.0469-10.078 13.781-0.89062 1.6875-1.7344 3.3281-2.4844 5.0625 9.1875 7.8281 17.625 16.875 25.266 27.188 14.109-5.7188 25.781-12.281 34.125-19.453 7.0312-6.0938 11.203-12.188 11.625-18-3.4688-15.75-1.4531-31.828 5.2031-45.75 6.8906-14.438 18.75-26.625 34.453-33.797 8.1562-3.7031 16.594-5.7656 24.984-6.2812 3.2812-0.1875 6.5625-0.1875 9.7969 0.09375 1.2188-1.9688 2.5781-3.8906 4.0781-5.7188 2.9531-3.6094 6.4688-6.8906 10.453-9.6562zm27.375 25.406c3.0938-0.51562 6.2344-0.1875 9.1406 0.89062 4.2656 1.5938 7.9219 4.8281 9.9844 9.3281 0.42188 0.9375 0.79688 1.9688 1.0312 3.0469 0.28125 1.0781 0.42188 2.1562 0.51562 3.2344 0.5625 9.5625 8.7656 16.875 18.375 16.312 0.32812-0.046875 0.65625-0.046875 0.9375-0.09375 10.031-1.125 19.406 0.14062 27 3.6562 6.4219 2.9531 11.484 7.5469 14.203 13.5 2.8594 6.2344 2.8594 13.406 0.5625 20.578-2.7188 8.3906-8.4844 16.641-16.734 23.531-7.3594 6.1875-8.3438 17.109-2.1562 24.469 0.32812 0.42188 0.70312 0.79688 1.0781 1.1719 0.51562 0.5625 1.0312 1.2188 1.5469 1.9688 0.65625 0.98438 1.1719 1.8281 1.5469 2.625 2.0625 4.4531 2.0625 9.375 0.46875 13.641-0.23438 0.5625-0.46875 1.125-0.70312 1.6406-0.1875 0.32812-0.375 0.70312-0.5625 1.0312-1.7812 3.0938-4.5469 5.6719-8.0625 7.2656-2.625 1.1719-5.3438 1.6875-8.0625 1.5938-2.8125-0.09375-5.5312-0.89062-7.9688-2.2031-8.2969-4.5938-18.703-1.6875-23.438 6.4688-1.5938 2.5781-0.32812 0.46875-0.9375 1.5-2.8125 4.6406-4.4531 7.3125-14.484 11.859-2.7188 1.2188-10.312-0.89062-19.078-4.5938-11.953-5.0156-23.859-12.797-30.094-20.109-5.0625-5.9062-13.266-7.5938-20.062-4.6875-22.125 8.9062-33.328 15.797-45.422 23.203-5.9531 3.6562-12.141 7.4062-20.109 11.672-2.1562-6.1875-4.6875-12.422-7.5469-18.703-1.5469-3.6562-3.1875-7.2188-4.875-10.688 15.422-6.7031 28.641-14.531 38.672-23.25 15.562-13.453 24.234-29.203 23.672-46.781-0.046875-1.3594-0.23438-2.6719-0.5625-3.9375-2.1094-8.25-1.0781-16.828 2.4844-24.328 3.5156-7.3594 9.5156-13.594 17.484-17.203 4.0781-1.875 8.3438-2.8594 12.609-3.1406 4.4531-0.28125 8.8594 0.28125 13.078 1.6406 9.1875 2.8594 18.891-2.25 21.75-11.438 0.14062-0.42188 0.23438-0.79688 0.32812-1.2188 0.60938-2.625 1.8281-5.1094 3.6094-7.2188 1.6875-2.0625 3.8438-3.7969 6.3281-4.9219 1.0781-0.46875 2.2031-0.89062 3.3281-1.125 0.375-0.046875 0.75-0.14062 1.125-0.23438l0.09375-0.046875zm-508.78 332.53c-3.9844-8.7188-0.14062-19.031 8.5781-22.969 8.7188-3.9844 19.031-0.14062 22.969 8.5781l1.2188 2.6719c3.9844 8.7188 0.14062 19.031-8.5781 22.969-8.7188 3.9844-19.031 0.14062-22.969-8.5781zm87.047-617.06c5.4844 4.0312 10.875 8.4375 16.219 13.219l0.046874-0.046875c4.6406 3.9375 9 7.9688 13.125 12.094 3.0938-4.2188 5.8594-8.0625 8.4375-11.578 10.969-15.141 17.906-24.656 37.641-45.844 4.875-5.6719 13.125-7.7344 20.297-4.4531 8.8125 3.9844 22.922 6.0469 35.859 5.5312 9.4219-0.375 17.156-1.6875 19.125-3.9844 7.125-8.3438 7.4531-11.438 8.0625-16.828l0.23437-2.2031c1.0312-9.1875 9.1406-15.984 18.422-15.375 2.7656 0.1875 5.5781-0.28125 8.2031-1.3594 2.25-0.9375 4.3125-2.3438 6.0469-4.1719 0.375-0.46875 0.75-0.89062 1.1719-1.3594 2.7656-3.6094 3.9375-7.9688 3.6094-12.281-0.32813-4.2656-2.2031-8.3906-5.5312-11.531-0.46875-0.375-0.9375-0.75-1.3594-1.1719-0.5625-0.42188-1.1719-0.84375-1.7344-1.1719-0.84375-0.51562-1.7344-0.9375-2.625-1.3125-0.375-0.14062-0.75-0.32812-1.0781-0.46875-8.6719-4.0781-12.422-14.391-8.3438-23.062 4.5469-9.7031 6.2812-19.688 5.2031-28.406-0.9375-7.4062-4.0312-13.922-9.2812-18.422-4.9688-4.2656-11.484-6.2812-18.562-6.2344-7.9688 0.046875-16.594 2.5781-24.844 7.4531-0.60938 0.42188-1.2656 0.84375-1.9219 1.2188-8.4375 4.5938-19.031 1.4531-23.625-7.0312-0.60937-1.0781-1.1719-2.0156-1.7344-2.7188-0.65625-0.79688-1.4531-1.6406-2.3438-2.3906-3.7031-3.1406-8.3906-4.5-12.984-4.1719-4.5469 0.375-8.9531 2.4375-12.141 6.1875-1.7812 2.1094-3 4.5469-3.6562 7.125-0.70313 2.7188-0.75 5.4844-0.1875 8.1562 0.09375 0.42188 0.14062 0.84375 0.23437 1.3125 1.2188 9.5156-5.4375 18.234-14.953 19.453-4.3125 0.5625-8.5312 1.9219-12.422 4.0312-3.7031 2.0156-7.1719 4.7812-10.125 8.2969-5.7188 6.7031-8.5312 14.812-8.5781 22.922-0.09375 8.25 2.7188 16.5 8.2031 23.156 0.70313 0.84375 1.3125 1.7344 1.8281 2.7188 6.0469 10.922-0.28125 31.5-11.766 51.797-6.3281 11.156-14.25 22.969-22.125 32.906zm60.562 66.609c-2.5312-4.6406-5.3438-9.2344-8.3906-13.734 5.8594-7.7812 10.078-13.594 13.781-18.703 8.8125-12.141 14.812-20.391 27.75-34.781 11.953 3.2344 26.25 4.7812 39.281 4.2188 18.234-0.75 35.344-5.7656 44.203-16.125 8.9531-10.5 12.516-17.156 14.297-23.672 2.625-0.65625 5.2031-1.5 7.7344-2.5781 6.8906-2.9062 13.266-7.3125 18.609-13.266l0.09375-0.09375 0.89063-1.0312c1.4062-1.6406 2.7188-3.375 3.8906-5.1562 0.32813 0.46875 0.60938 0.9375 0.89063 1.4531 3.4219 5.9062 4.125 13.078 2.4844 20.438-1.875 8.625-6.8438 17.391-14.344 25.031-6.75 6.8438-6.6562 17.812 0.1875 24.562 0.32813 0.32812 0.65625 0.60938 1.0312 0.89062 0.60938 0.5625 1.2188 1.2188 1.875 1.9688 0.46875 0.5625 0.89063 1.1719 1.2656 1.7344 0.28125 0.51562 0.5625 0.98438 0.84375 1.4531 2.1094 4.0781 2.4375 8.5781 1.3594 12.75-1.125 4.125-3.7031 7.875-7.5469 10.359-0.51563 0.28125-1.0312 0.5625-1.5469 0.89062-2.25 1.1719-4.6875 1.8281-7.0781 1.9219-2.8594 0.1875-5.7188-0.32812-8.25-1.4531-8.5312-3.6562-18.375 0-22.406 8.25h-0.046876c-1.5469 3.1406-3.5625 6.0469-5.9531 8.625-2.3438 2.5312-5.1562 4.7344-8.2969 6.6094-6.9844 4.0312-14.766 5.4375-22.266 4.5469-7.6406-0.9375-14.906-4.2656-20.578-9.7031-5.5312-5.2969-13.641-6.2344-20.109-2.8594-5.625 2.9062-11.391 4.9688-17.062 6.1875-5.6719 1.2188-11.344 1.5938-16.641 1.125zm-18.984-263.06c-2.4375 4.1719-4.2188 8.625-5.3438 13.125-0.5625 2.2969-1.0312 4.5938-1.2656 6.9375-3.0469 1.1719-6.0469 2.5312-8.9531 4.0781-7.4062 4.0312-14.203 9.4219-19.922 16.172-11.203 13.125-16.734 29.203-16.875 45.234-0.14063 15.328 4.6875 30.609 14.25 43.266-0.5625 1.6875-5.9531 7.7812-11.484 17.531-6.4219 11.344-14.531 23.297-21.938 32.062-8.625-4.0781-17.344-7.3125-26.203-9.75-0.046876-1.8281 0-3.7031 0.09375-5.625 0.32812-5.2969 1.3125-10.734 2.9531-16.078 2.9062-7.125 0.84375-15.609-5.625-20.484-6.2812-4.7344-10.734-11.391-12.844-18.75-2.0625-7.2188-1.875-15.141 0.98438-22.734 1.3125-3.4688 3.0469-6.5625 5.1562-9.1875 2.1094-2.7188 4.5-5.0156 7.0781-6.9375 7.875-5.2031 10.172-15.797 5.1094-23.812-1.4531-2.25-2.3438-4.8281-2.6719-7.5l-0.046874-0.375c-0.28125-2.625 0.09375-5.3906 1.125-8.1562 1.7812-4.5938 5.2031-8.0625 9.3281-9.8906s9.0469-2.1094 13.641-0.32812c1.125 0.42188 2.0625 0.84375 2.7188 1.2656 0.75 0.42188 1.5469 1.0312 2.3438 1.6875 0.32812 0.28125 0.60937 0.51562 0.9375 0.75 7.7344 5.6719 18.609 3.9844 24.281-3.75 6.3281-8.625 14.203-14.906 22.406-18.141 6.9844-2.7188 14.156-3.1406 20.578-0.70312zm-415.31 785.81c29.672-24.891 62.25-49.688 96.469-73.219l11.109-7.5938 40.828 89.625c3.9844 8.7188 14.297 12.562 22.969 8.5781 8.7188-3.9844 12.562-14.297 8.5781-22.969l-43.031-94.359c38.719-24.516 78.984-46.922 119.16-65.859 31.5-14.859 62.906-27.562 93.469-37.406l41.156 90.281c3.9844 8.7188 14.297 12.562 22.969 8.5781 8.7188-3.9844 12.562-14.297 8.5781-22.969l-39.047-85.641c10.219-2.625 20.25-4.875 30.188-6.75 95.953-18.141 176.44 0.70312 211.08 82.828l0.1875 0.46875c39.375 86.062-6.1875 163.45-91.078 226.22-40.688 30.094-90.328 56.859-144.28 79.734l-40.359-88.547c-3.9844-8.7188-14.297-12.562-22.969-8.5781-8.7188 3.9844-12.562 14.297-8.5781 22.969l39.703 87.141c-53.953 20.766-110.77 37.594-166.31 50.016-31.922 7.1719-63.375 12.938-93.562 17.297l-43.125-94.641c-3.9844-8.7188-14.297-12.562-22.969-8.5781-8.7188 3.9844-12.562 14.297-8.5781 22.969l38.625 84.797c-110.77 11.953-197.63 1.9688-213.74-36.047-7.9219-18.75-0.14062-45.422 19.359-76.547 4.5938-2.6719 7.8281-7.4062 8.5312-12.797 26.484-37.828 68.297-81.094 119.06-124.22 1.875-0.98438 3.5625-2.3438 5.0156-4.0312 0.1875-0.23438 0.375-0.42188 0.51562-0.65625zm-48.562-17.531c-7.2656-6.2344-8.1562-17.203-1.9219-24.469s17.203-8.1562 24.469-1.9219l12.562 10.688c28.078-23.578 58.406-46.688 90.188-68.578 44.484-30.656 91.734-59.062 139.31-83.156l-28.875-24.656c-7.2656-6.2344-8.1562-17.203-1.9219-24.469 6.2344-7.2656 17.203-8.1562 24.469-1.9219l40.5 34.547c28.359-13.031 56.719-24.375 84.516-33.516 46.969-63.281 79.078-127.5 84.703-185.26 4.7812-48.984-10.031-93.703-51.984-129.37l0.046874-0.046874-0.42187-0.375c-66.141-59.766-147-42.797-226.26 14.25-8.2031 5.9062-16.359 12.188-24.469 18.891l71.672 61.125c7.2656 6.2344 8.1562 17.203 1.9219 24.469-6.2344 7.2656-17.203 8.1562-24.469 1.9219l-75.469-64.359c-23.531 21.891-46.641 46.688-68.859 73.453-28.359 34.125-55.312 71.484-80.062 110.11l78.984 67.359c7.2656 6.2344 8.1562 17.203 1.9219 24.469-6.2344 7.2656-17.203 8.1562-24.469 1.9219l-74.906-63.891c-2.2969 3.8438-4.5938 7.6875-6.8906 11.578-94.078 160.31-147.89 328.22-102.14 369.42 3.9844 3.5625 9.2344 6.0938 15.609 7.5469 6.2812 1.4531 13.5 1.9688 21.562 1.5938 26.25-38.109 64.078-79.406 109.41-120.05l-8.5781-7.3125zm179.26-240.28c-7.2656-6.2344-8.1562-17.203-1.9219-24.469s17.203-8.1562 24.469-1.9219l2.25 1.9219c7.2656 6.2344 8.1562 17.203 1.9219 24.469s-17.203 8.1562-24.469 1.9219z" fill-rule="evenodd"/>
</svg>
