<?xml version="1.0" encoding="UTF-8"?>
<svg width="1200pt" height="1200pt" version="1.1" viewBox="0 0 1200 1200" xmlns="http://www.w3.org/2000/svg">
 <path d="m1087.5 1003.1h-356.25c-10.312 0-18.75-8.4375-18.75-18.75v-37.5h-60.375c-17.812 85.875-97.688 151.12-185.81 150h-240.19c-95.625 0-176.62-71.625-188.44-166.5-1.6875-10.688 7.6875-21.188 18.562-21h656.25v-37.5c0-10.312 8.4375-18.75 18.75-18.75h356.25c99.188 3.1875 99 147 0 150z"/>
 <path d="m212.33 782.51c17.172 14.102 17.168 27.055 0 41.152-7.6367 6.9961-8.1484 18.859-1.1523 26.484 20.723 21.191 52.316-18.762 51.324-47.066 0-25.434-14.355-38.598-24.828-48.203-9.0078-8.2656-12.672-11.965-12.672-20.582 0-8.5703 3.6641-12.258 12.652-20.508 12.293-9.7305 31.504-32.684 10.711-45.602-18.543-9.4336-23.918 7.3984-36.031 17.945-32.957 25.137-32.863 71.312-0.003906 96.379z"/>
 <path d="m324.83 782.51c17.172 14.102 17.168 27.055 0 41.152-7.6367 6.9961-8.1484 18.859-1.1523 26.484 20.723 21.191 52.316-18.762 51.324-47.066 0-25.434-14.355-38.598-24.828-48.203-9.0078-8.2656-12.672-11.965-12.672-20.582 0-8.5703 3.6641-12.258 12.652-20.508 12.293-9.7305 31.504-32.684 10.711-45.602-18.562-9.4336-23.91 7.3984-36.031 17.945-32.957 25.137-32.863 71.312-0.003906 96.379z"/>
 <path d="m437.33 782.51c17.172 14.102 17.168 27.055 0 41.152-7.6367 6.9961-8.1484 18.859-1.1523 26.484 20.723 21.191 52.316-18.762 51.324-47.066 0-25.434-14.355-38.598-24.828-48.203-9.0078-8.2656-12.672-11.965-12.672-20.582 0-8.5703 3.6641-12.258 12.652-20.508 12.293-9.7305 31.504-32.684 10.711-45.602-18.543-9.4336-23.918 7.3984-36.031 17.945-32.957 25.137-32.863 71.312-0.003906 96.379z"/>
 <path d="m768.75 169.12v-28.5h46.312c10.312 0 18.75-8.4375 18.75-18.75s-8.4375-18.75-18.75-18.75h-130.12c-10.312 0-18.75 8.4375-18.75 18.75s8.4375 18.75 18.75 18.75h46.312v28.5c-334.12 35.438-318 511.88 18.75 524.06 336.94-12.375 352.69-488.62 18.75-524.06zm65.438 372.19-97.5-97.5c-3.375-3.375-5.4375-8.25-5.4375-13.125v-130.12c0.375-24.562 37.125-24.562 37.5 0v122.25l92.062 92.062c17.25 17.438-9.1875 43.688-26.625 26.438z"/>
</svg>
