<?xml version="1.0" encoding="UTF-8"?>
<svg width="1200pt" height="1200pt" version="1.1" viewBox="0 0 1200 1200" xmlns="http://www.w3.org/2000/svg">
 <path d="m360 794.4h2.3984c9.6016 0 16.801-7.1992 18-16.801 6-62.398 34.801-122.4 81.602-169.2 46.801-46.801 106.8-74.398 169.2-81.602 9.6016-1.1992 16.801-8.3984 16.801-18v-2.3984c0-9.6016-7.1992-16.801-16.801-18-62.398-6-122.4-34.801-169.2-81.602s-75.602-106.8-81.602-169.2c-1.1992-9.6016-8.3984-16.801-18-16.801l-2.3984 0.003906c-9.6016 0-16.801 7.1992-18 16.801-6 62.398-34.801 122.4-81.602 169.2-46.801 46.801-106.8 74.398-169.2 81.602-9.6016 1.1992-16.801 8.3984-16.801 18v2.3984c0 9.6016 7.1992 16.801 16.801 18 62.398 6 122.4 34.801 169.2 81.602 46.801 46.801 75.602 106.8 81.602 169.2 1.1992 9.5977 8.3984 16.797 18 16.797z"/>
 <path d="m519.6 232.8c42 4.8008 81.602 22.801 111.6 54 31.199 31.199 49.199 70.801 54 111.6 1.1992 6 6 10.801 12 10.801h1.1992c6 0 12-4.8008 12-10.801 4.8008-42 22.801-81.602 54-111.6 31.199-31.199 70.801-49.199 111.6-54 6-1.1992 10.801-6 10.801-12v-1.1992c0-6-4.8008-12-10.801-12-40.801-4.8008-81.602-22.801-111.6-54-31.199-31.199-49.199-70.801-54-111.6-1.1992-6-6-10.801-12-10.801h-1.1992c-6 0-12 4.8008-12 10.801-4.8008 42-22.801 81.602-54 111.6-31.199 31.199-70.801 49.199-111.6 54-6 1.1992-10.801 6-10.801 12v1.1992c-1.1992 6 3.5977 12 10.801 12z"/>
 <path d="m686.4 967.2c-40.801-4.8008-81.602-22.801-111.6-54-31.199-31.199-49.199-70.801-54-111.6-1.1992-6-6-10.801-12-10.801h-1.1992c-6 0-12 4.8008-12 10.801-4.8008 42-22.801 81.602-54 111.6-31.199 31.199-70.801 49.199-111.6 54-6 1.1992-10.801 6-10.801 12v1.1992c0 6 4.8008 12 10.801 12 42 4.8008 81.602 22.801 111.6 54 31.199 31.199 49.199 70.801 54 111.6 1.1992 6 6 10.801 12 10.801h1.1992c6 0 12-4.8008 12-10.801 4.8008-42 22.801-81.602 54-111.6 31.199-31.199 70.801-49.199 111.6-54 6-1.1992 10.801-6 10.801-12v-1.1992c1.1992-6-3.5977-12-10.801-12z"/>
 <path d="m1108.8 681.6c-61.199-6-118.8-34.801-164.4-79.199-45.602-45.602-73.199-103.2-79.199-164.4-1.1992-9.6016-8.3984-16.801-18-16.801h-2.3984c-9.6016 0-16.801 7.1992-18 16.801-6 61.199-34.801 118.8-79.199 164.4-45.602 45.602-103.2 73.199-164.4 79.199-9.6016 1.1992-16.801 8.3984-16.801 18v2.3984c0 9.6016 7.1992 16.801 16.801 18 61.199 6 118.8 34.801 164.4 79.199 45.602 45.602 73.199 103.2 79.199 164.4 1.1992 9.6016 8.3984 16.801 18 16.801h2.3984c9.6016 0 16.801-7.1992 18-16.801 6-61.199 34.801-120 79.199-164.4 45.602-45.602 103.2-73.199 164.4-79.199 9.6016-1.1992 16.801-8.3984 16.801-18v-2.3984c0-9.6016-7.2031-16.801-16.801-18z"/>
</svg>
