<?xml version="1.0" encoding="UTF-8"?>
<svg width="1200pt" height="1200pt" version="1.1" viewBox="0 0 1200 1200" xmlns="http://www.w3.org/2000/svg">
 <path d="m600 180c-231.61 0-420 188.39-420 420s188.39 420 420 420 420-188.39 420-420-188.39-420-420-420zm122.39 610.78c0 9.6094-4.7812 16.781-14.391 19.219l-15.609 3.6094c-20.391 3.6094-40.781 4.7812-63.609 4.7812-22.781 0-43.219-2.3906-61.219-8.3906-19.219-6-36-14.391-51.609-25.219-32.391-22.781-56.391-52.781-70.781-92.391-3.6094-9.6094-9.6094-13.219-19.219-13.219h-10.781c-6 0-10.781-1.2188-14.391-4.7812-3.5625-3.6094-4.7812-8.3906-4.7812-14.391v-22.781c0-4.7812 1.2188-9.6094 4.7812-12 3.6094-3.6094 7.2188-4.7812 13.219-4.7812h7.2188c6 0 9.6094-3.6094 9.6094-9.6094v-19.219c0-6-3.6094-8.3906-9.6094-8.3906h-7.2188c-6 0-9.6094-1.2188-13.219-4.7812-3.5625-3.6562-4.7812-8.4375-4.7812-14.438v-22.781c0-6 1.2188-10.781 4.7812-14.391 3.6094-3.6094 8.3906-4.7812 14.391-4.7812h10.781c9.6094 0 15.609-4.7812 19.219-13.219 22.781-61.219 62.391-100.78 121.22-118.78 19.219-6 34.781-8.3906 49.219-8.3906 30 0 55.219 1.2188 75.609 4.7812l15.609 3.6094c9.6094 2.3906 14.391 9.6094 14.391 19.219v46.734c0 9.6094-4.7812 13.219-14.391 10.781l-14.391-3.6094c-24-4.7812-44.391-6-62.391-6-39.609 0-69.609 13.219-90 40.781-6 7.2188-7.2188 13.219-3.6094 18s9.6094 7.2188 18 7.2188h106.78c6 0 10.781 1.2188 14.391 4.7812 3.6094 3.6094 4.7812 8.3906 4.7812 14.391v20.391c0 6-1.2188 10.781-4.7812 14.391-3.6094 3.6094-8.3906 4.7812-14.391 4.7812l-140.44 0.09375c-6 0-9.6094 2.3906-9.6094 8.3906l0.046875 9.6094v9.6094c0 6 3.6094 9.6094 9.6094 9.6094h142.78c6 0 10.781 1.2188 14.391 4.7812 3.6094 3.6094 4.7812 8.3906 4.7812 14.391v21.609c0 6-1.2188 10.781-4.7812 14.391-3.6094 3.6094-8.3906 4.7812-14.391 4.7812h-106.78c-9.6094 0-15.609 2.3906-18 7.2188-2.3906 4.7812-2.3906 10.781 3.6094 18 21.609 26.391 50.391 39.609 87.609 39.609 25.219 0 45.609-2.3906 63.609-7.2188l14.391-3.6094c4.7812-1.2188 8.3906-1.2188 10.781 1.2188 2.3906 2.3906 3.6094 6 3.6094 9.6094z"/>
</svg>
